<svg width="19" height="19" viewBox="0 0 19 19" fill="none" xmlns="http://www.w3.org/2000/svg">
<g id="Iconly/Light/Add User">
<g id="Add User">
<path id="Stroke 1" fill-rule="evenodd" clip-rule="evenodd" d="M7.62247 12.5742C4.05059 12.5742 1 13.1141 1 15.2773C1 17.4405 4.03201 17.9999 7.62247 17.9999C11.1953 17.9999 14.2449 17.4591 14.2449 15.2968C14.2449 13.1345 11.2139 12.5742 7.62247 12.5742Z" fill="#FF559C" stroke="#FF559C" stroke-linecap="round" stroke-linejoin="round"/>
<path id="Stroke 3" fill-rule="evenodd" clip-rule="evenodd" d="M7.62263 9.48925C9.96703 9.48925 11.8673 7.58902 11.8673 5.24463C11.8673 2.90023 9.96703 1 7.62263 1C5.27917 1 3.37893 2.90023 3.37893 5.24463C3.37057 7.58066 5.25687 9.48089 7.59383 9.48925H7.62263Z" fill="#FF559C" stroke="#FF559C" stroke-linecap="round" stroke-linejoin="round"/>
<path id="Stroke 10" d="M16.2031 6.67188V10.6819" stroke="#FF559C" stroke-linecap="round" stroke-linejoin="round"/>
<path id="Stroke 7" d="M18.2502 8.67188H14.1602" stroke="#FF559C" stroke-linecap="round" stroke-linejoin="round"/>
<path id="Stroke 8" d="M16.2031 6.67188V10.6819" stroke="#FF559C" stroke-linecap="round" stroke-linejoin="round"/>
<path id="Stroke 9" d="M18.2502 8.67188H14.1602" stroke="#FF559C" stroke-linecap="round" stroke-linejoin="round"/>
</g>
</g>
</svg>
