<svg width="20" height="19" viewBox="0 0 20 19" fill="none" xmlns="http://www.w3.org/2000/svg">
<g id="Iconly/Light/Add User">
<g id="Add User">
<path id="Stroke 1" fill-rule="evenodd" clip-rule="evenodd" d="M7.62247 12.5742C4.05059 12.5742 1 13.1141 1 15.2773C1 17.4405 4.03201 17.9999 7.62247 17.9999C11.1953 17.9999 14.2449 17.4591 14.2449 15.2968C14.2449 13.1345 11.2139 12.5742 7.62247 12.5742Z" fill="#BCC6D4" stroke="#BCC6D4" stroke-linecap="round" stroke-linejoin="round"/>
<path id="Stroke 3" fill-rule="evenodd" clip-rule="evenodd" d="M7.62263 9.48925C9.96703 9.48925 11.8673 7.58902 11.8673 5.24463C11.8673 2.90023 9.96703 1 7.62263 1C5.27917 1 3.37893 2.90023 3.37893 5.24463C3.37057 7.58066 5.25687 9.48089 7.59383 9.48925H7.62263Z" fill="#BCC6D4" stroke="#BCC6D4" stroke-linecap="round" stroke-linejoin="round"/>
<g id="check 2">
<g id="Group">
<g id="Group_2">
<path id="Vector" d="M18.8838 7.11614C18.7291 6.96124 18.4779 6.96133 18.323 7.11614L15.7989 9.64031L14.6771 8.51848C14.5222 8.36357 14.2711 8.36357 14.1162 8.51848C13.9613 8.67339 13.9613 8.92449 14.1162 9.07939L15.5184 10.4816C15.5958 10.559 15.6973 10.5978 15.7988 10.5978C15.9003 10.5978 16.0019 10.5591 16.0793 10.4816L18.8838 7.67705C19.0387 7.52225 19.0387 7.27104 18.8838 7.11614Z" fill="#BCC6D4" stroke="#BCC6D4" stroke-width="0.2"/>
</g>
</g>
</g>
</g>
</g>
</svg>
