<svg width="21" height="19" viewBox="0 0 21 19" fill="none" xmlns="http://www.w3.org/2000/svg">
<path fill-rule="evenodd" clip-rule="evenodd" d="M0.0412253 9.17383C-0.0137418 9.07793 -0.0137418 8.96284 0.0412253 8.86694C0.670599 7.77912 4.45781 1.24126 5.08719 0.153444C5.14215 0.0575413 5.24387 0 5.3538 0H10.2074C10.2074 0 4.09505 10.5548 2.73461 12.9031C2.67964 12.999 2.57796 13.0565 2.46803 13.0565C2.35809 13.0565 2.25638 12.999 2.20141 12.9031C1.64624 11.9441 0.387518 9.76843 0.0412253 9.17383ZM16.7292 2.88258C16.7842 2.78667 16.7842 2.67159 16.7292 2.57569C16.4517 2.09617 15.6024 0.63022 15.3248 0.153444C15.2698 0.0575413 15.1682 0 15.0582 0H10.2046C10.2046 0 13.1261 5.04451 14.0331 6.61458C14.0881 6.71048 14.1897 6.76803 14.2997 6.76803C14.4096 6.76803 14.5113 6.71048 14.5663 6.61458C15.1214 5.65555 16.3802 3.47992 16.7265 2.88532L16.7292 2.88258Z" fill="#FF559C"/>
<path fill-rule="evenodd" clip-rule="evenodd" d="M20.3709 8.86708C20.4258 8.96299 20.4258 9.07807 20.3709 9.17398C19.7415 10.2618 15.9542 16.7996 15.3249 17.8875C15.2699 17.9834 15.1682 18.0409 15.0583 18.0409H10.2047C10.2047 18.0409 16.317 7.48608 17.6775 5.13782C17.7324 5.04192 17.8341 4.98438 17.944 4.98438C18.054 4.98438 18.1557 5.04192 18.2106 5.13782C18.7658 6.09685 20.0246 8.27248 20.3709 8.86708ZM3.68283 15.1583C3.62786 15.2542 3.62786 15.3693 3.68283 15.4652C3.96041 15.9447 4.80965 17.4107 5.08723 17.8902C5.1422 17.9861 5.24391 18.0437 5.35385 18.0437H10.2074C10.2074 18.0437 7.28594 12.9991 6.37898 11.4291C6.32401 11.3332 6.22233 11.2756 6.1124 11.2756C6.00246 11.2756 5.90075 11.3332 5.84578 11.4291C5.29061 12.3881 4.03187 14.5637 3.68558 15.1583H3.68283Z" fill="#4CAFF6"/>
</svg>
