<svg width="49" height="49" viewBox="0 0 49 49" fill="none" xmlns="http://www.w3.org/2000/svg">
<path d="M0.288676 25C0.110043 24.6906 0.110042 24.3094 0.288675 24L11.9613 3.78238C12.14 3.47298 12.4701 3.28238 12.8274 3.28238H36.1726C36.5299 3.28238 36.86 3.47298 37.0387 3.78238L48.7113 24C48.89 24.3094 48.89 24.6906 48.7113 25L37.0387 45.2176C36.86 45.527 36.5299 45.7176 36.1726 45.7176H12.8274C12.4701 45.7176 12.14 45.527 11.9613 45.2176L0.288676 25Z" fill="white"/>
<path fill-rule="evenodd" clip-rule="evenodd" d="M7.0707 24.7613C6.97643 24.5966 6.97643 24.3988 7.0707 24.2341C8.14997 22.3651 14.6445 11.1326 15.7237 9.26363C15.818 9.09886 15.9924 9 16.1809 9H24.5041C24.5041 9 14.0224 27.134 11.6894 31.1685C11.5952 31.3332 11.4208 31.4321 11.2323 31.4321C11.0438 31.4321 10.8693 31.3332 10.7751 31.1685C9.82305 29.5208 7.66453 25.7829 7.0707 24.7613ZM35.6881 13.9525C35.7823 13.7877 35.7823 13.59 35.6881 13.4252C35.2121 12.6014 33.7557 10.0828 33.2797 9.26363C33.1854 9.09886 33.0111 9 32.8225 9H24.4994C24.4994 9 29.5093 17.6668 31.0646 20.3643C31.1589 20.5291 31.3332 20.628 31.5217 20.628C31.7103 20.628 31.8846 20.5291 31.9789 20.3643C32.9309 18.7167 35.0895 14.9788 35.6834 13.9572L35.6881 13.9525Z" fill="#FF559C"/>
<path fill-rule="evenodd" clip-rule="evenodd" d="M41.9303 24.2343C42.0246 24.399 42.0246 24.5968 41.9303 24.7615C40.851 26.6305 34.3564 37.863 33.2772 39.7319C33.1829 39.8967 33.0085 39.9956 32.82 39.9956H24.4968C24.4968 39.9956 34.9786 21.8616 37.3115 17.8271C37.4058 17.6623 37.5802 17.5635 37.7687 17.5635C37.9572 17.5635 38.1316 17.6623 38.2258 17.8271C39.1778 19.4748 41.3365 23.2127 41.9303 24.2343ZM13.3129 35.0431C13.2186 35.2079 13.2186 35.4056 13.3129 35.5704C13.7889 36.3942 15.2452 38.9128 15.7212 39.7367C15.8155 39.9014 15.9899 40.0003 16.1784 40.0003H24.5016C24.5016 40.0003 19.4917 31.3334 17.9364 28.6359C17.8421 28.4712 17.6677 28.3723 17.4792 28.3723C17.2907 28.3723 17.1163 28.4712 17.022 28.6359C16.07 30.2836 13.9114 34.0215 13.3176 35.0431H13.3129Z" fill="#4CAFF6"/>
</svg>
