<svg width="20" height="16" viewBox="0 0 20 16" fill="none" xmlns="http://www.w3.org/2000/svg">
<path d="M7.60178 0.500889C7.29306 0.510554 7.00005 0.646143 6.78482 0.878858L0.845587 7.1255C0.624241 7.35942 0.5 7.67587 0.5 8.0057C0.5 8.33553 0.624241 8.65184 0.845587 8.88576L6.78482 15.135C7.0084 15.369 7.31124 15.5003 7.62686 15.5C7.94248 15.4997 8.24509 15.3679 8.46827 15.1334C8.69145 14.899 8.81695 14.581 8.81724 14.2495C8.81753 13.9179 8.69257 13.5997 8.4698 13.3648L4.55906 9.25638H18.3068C18.4633 9.2569 18.6184 9.22507 18.7631 9.1625C18.9079 9.09994 19.0394 9.00789 19.1503 8.8918C19.2611 8.77572 19.3491 8.63776 19.4091 8.4859C19.4691 8.33404 19.5 8.17128 19.5 8.00685C19.5 7.84243 19.4691 7.67966 19.4091 7.5278C19.3491 7.37594 19.2611 7.23798 19.1503 7.1219C19.0394 7.00582 18.9079 6.91391 18.7631 6.85135C18.6184 6.78878 18.4633 6.75681 18.3068 6.75732H4.54977L8.4698 2.64891C8.64356 2.4736 8.7625 2.24703 8.81085 1.99909C8.8592 1.75115 8.83468 1.49354 8.74054 1.26057C8.6464 1.0276 8.48709 0.830233 8.28372 0.694553C8.08035 0.558873 7.84253 0.491344 7.60178 0.500889Z" fill="#FF8C41"/>
</svg>
