<svg width="20" height="18" viewBox="0 0 20 18" fill="none" xmlns="http://www.w3.org/2000/svg">
<path d="M4.24728 17.2577C2.33505 17.2577 0.770508 15.6932 0.770508 13.781C0.770508 11.8687 2.33505 10.3042 4.24728 10.3042C6.1595 10.3042 7.72405 11.8687 7.72405 13.781C7.72405 15.6932 6.1595 17.2577 4.24728 17.2577ZM4.24728 12.0426C3.29117 12.0426 2.50889 12.8249 2.50889 13.781C2.50889 14.7371 3.29117 15.5194 4.24728 15.5194C5.20339 15.5194 5.98566 14.7371 5.98566 13.781C5.98566 12.8249 5.20339 12.0426 4.24728 12.0426Z" fill="white"/>
<path d="M16.4123 17.2577C14.5001 17.2577 12.9355 15.6932 12.9355 13.781C12.9355 11.8687 14.5001 10.3042 16.4123 10.3042C18.3245 10.3042 19.8891 11.8687 19.8891 13.781C19.8891 15.6932 18.3245 17.2577 16.4123 17.2577ZM16.4123 12.0426C15.4562 12.0426 14.6739 12.8249 14.6739 13.781C14.6739 14.7371 15.4562 15.5194 16.4123 15.5194C17.3684 15.5194 18.1507 14.7371 18.1507 13.781C18.1507 12.8249 17.3684 12.0426 16.4123 12.0426Z" fill="white"/>
<path d="M10.3313 15.5197C9.80975 15.5197 9.46207 15.172 9.46207 14.6505V11.5214L7.11525 9.17461C6.94141 9.00077 6.85449 8.74002 6.85449 8.47926C6.85449 8.2185 7.02833 8.04466 7.20217 7.87082L11.5481 4.39405C11.722 4.22021 11.9827 4.22021 12.2435 4.22021C12.5042 4.22021 12.6781 4.39405 12.8519 4.56789L14.3295 6.82779H16.4156C16.9371 6.82779 17.2848 7.17547 17.2848 7.69698C17.2848 8.2185 16.9371 8.56618 16.4156 8.56618H13.808C13.5473 8.56618 13.2865 8.39234 13.1127 8.2185L11.8958 6.3932L9.02747 8.6531L10.9397 10.5653C11.1135 10.7392 11.2005 10.913 11.2005 11.1738V14.6505C11.2005 15.172 10.8528 15.5197 10.3313 15.5197Z" fill="white"/>
<path d="M14.6739 4.21993C15.634 4.21993 16.4123 3.44163 16.4123 2.48155C16.4123 1.52147 15.634 0.743164 14.6739 0.743164C13.7138 0.743164 12.9355 1.52147 12.9355 2.48155C12.9355 3.44163 13.7138 4.21993 14.6739 4.21993Z" fill="white"/>
</svg>
