<svg width="18" height="19" viewBox="0 0 18 19" fill="none" xmlns="http://www.w3.org/2000/svg">
<g id="Iconly/Light/Add User">
<g id="Unblacklist">
<g id="Iconly/Light/Add User_2">
<g id="Add User">
<path id="Stroke 1" fill-rule="evenodd" clip-rule="evenodd" d="M7.49578 12.5742C4.13714 12.5742 1.26868 13.1141 1.26868 15.2773C1.26868 17.4405 4.11967 17.9999 7.49578 17.9999C10.8553 17.9999 13.7229 17.4591 13.7229 15.2968C13.7229 13.1345 10.8728 12.5742 7.49578 12.5742Z" fill="#011C42" stroke="#011C42" stroke-linecap="round" stroke-linejoin="round"/>
<path id="Stroke 3" fill-rule="evenodd" clip-rule="evenodd" d="M7.49591 9.48925C9.70034 9.48925 11.4871 7.58902 11.4871 5.24463C11.4871 2.90023 9.70034 1 7.49591 1C5.29235 1 3.50556 2.90023 3.50556 5.24463C3.4977 7.58066 5.27138 9.48089 7.46882 9.48925H7.49591Z" fill="#011C42" stroke="#011C42" stroke-linecap="round" stroke-linejoin="round"/>
</g>
<g id="Stroke 9">
<path fill-rule="evenodd" clip-rule="evenodd" d="M17.489 8.67188H13.6431H17.489Z" fill="#011C42"/>
<path d="M17.489 8.67188H13.6431" stroke="#011C42" stroke-linecap="round" stroke-linejoin="round"/>
</g>
</g>
</g>
</g>
</svg>
