<svg width="22" height="22" viewBox="0 0 22 22" fill="none" xmlns="http://www.w3.org/2000/svg">
<path d="M11.333 1C9.28934 1 7.29155 1.60602 5.5923 2.74143C3.89305 3.87683 2.56864 5.49063 1.78656 7.37874C1.00448 9.26685 0.799849 11.3445 1.19855 13.3489C1.59725 15.3533 2.58138 17.1944 4.02647 18.6395C5.47157 20.0846 7.31273 21.0688 9.31714 21.4675C11.3215 21.8662 13.3992 21.6615 15.2873 20.8795C17.1754 20.0974 18.7892 18.773 19.9246 17.0737C21.06 15.3745 21.666 13.3767 21.666 11.333C21.6628 8.59351 20.5731 5.96715 18.636 4.03004C16.6989 2.09292 14.0725 1.00323 11.333 1ZM2.87873 11.333C2.87798 9.41592 3.53259 7.55618 4.73398 6.06223L16.6038 17.932C15.3615 18.9278 13.863 19.5521 12.2812 19.7328C10.6993 19.9135 9.09863 19.6433 7.66375 18.9534C6.22887 18.2635 5.01827 17.182 4.17162 15.8337C3.32497 14.4854 2.87677 12.9251 2.87873 11.333ZM17.932 16.6038L6.06224 4.73397C7.68473 3.43333 9.7301 2.77713 11.8064 2.8911C13.8828 3.00506 15.844 3.88118 17.3144 5.35158C18.7848 6.82198 19.661 8.78324 19.7749 10.8596C19.8889 12.9359 19.2327 14.9813 17.932 16.6038Z" fill="#ED4039" stroke="white" stroke-width="0.4"/>
</svg>
