<svg width="81" height="63" viewBox="0 0 81 63" fill="none" xmlns="http://www.w3.org/2000/svg">
<g opacity="0.5">
<path opacity="0.9" d="M0.954091 20.2031C1.48048 20.2031 1.90721 19.7759 1.90721 19.249C1.90721 18.7221 1.48048 18.2949 0.954091 18.2949C0.4277 18.2949 0.000976562 18.7221 0.000976562 19.249C0.000976562 19.7759 0.4277 20.2031 0.954091 20.2031Z" fill="#FF559C"/>
<path opacity="0.9" d="M79.7588 63.0012C80.3717 63.0012 80.8686 62.5038 80.8686 61.8902C80.8686 61.2767 80.3717 60.7793 79.7588 60.7793C79.1458 60.7793 78.6489 61.2767 78.6489 61.8902C78.6489 62.5038 79.1458 63.0012 79.7588 63.0012Z" fill="#FF559C"/>
<path opacity="0.9" d="M4.31938 16.3896C4.56292 16.3896 4.76034 16.192 4.76034 15.9482C4.76034 15.7045 4.56292 15.5068 4.31938 15.5068C4.07584 15.5068 3.87842 15.7045 3.87842 15.9482C3.87842 16.192 4.07584 16.3896 4.31938 16.3896Z" fill="#FF559C"/>
<g opacity="0.8">
<path opacity="0.5" d="M3.54025 56.3226C4.05193 56.3226 4.46673 55.9074 4.46673 55.3952C4.46673 54.883 4.05193 54.4678 3.54025 54.4678C3.02857 54.4678 2.61377 54.883 2.61377 55.3952C2.61377 55.9074 3.02857 56.3226 3.54025 56.3226Z" stroke="#FF559C" stroke-width="0.8"/>
</g>
<path opacity="0.5" d="M68.603 13.7269C69.2561 13.7269 69.7855 13.1969 69.7855 12.5431C69.7855 11.8894 69.2561 11.3594 68.603 11.3594C67.9499 11.3594 67.4204 11.8894 67.4204 12.5431C67.4204 13.1969 67.9499 13.7269 68.603 13.7269Z" stroke="#FF559C" stroke-width="0.8"/>
</g>
<path opacity="0.09" d="M40.6885 2.47407C55.2468 12.0982 72.0515 27.0569 64.5711 41.4213C57.0906 55.7857 50.7332 64.33 32.7842 61.7181C14.8352 59.1063 -2.52367 45.688 0.315849 29.491C3.15537 13.2939 26.1297 -7.14808 40.6885 2.47407Z" fill="#FF559C"/>
<path d="M31.4799 35.4187C34.4899 37.3984 41.8421 42.7419 45.0876 49.588C46.5394 52.6523 49.7789 54.9823 54.4533 56.3242C54.7721 56.4148 55.1079 56.2312 55.1997 55.9111C55.2915 55.5898 55.1067 55.2553 54.7866 55.1635C51.7658 54.2962 47.821 52.5352 46.1783 49.0698C42.8023 41.9484 35.2388 36.4454 32.1443 34.4101C31.1345 33.7446 30.2177 32.9897 29.4193 32.166C26.8249 29.4833 25.3066 27.2234 25.1447 25.8018C25.1339 25.7076 25.1737 25.5892 25.2583 25.4672C26.5048 23.641 33.0852 14.6545 40.191 17.3311C40.6367 17.499 40.8988 17.9991 40.7901 18.4689C40.4422 19.9582 40.3323 22.1613 41.7817 24.2014C43.4703 26.5796 46.8305 28.0532 51.7682 28.5811C53.0824 28.7224 54.2214 29.5944 54.7407 30.8554L55.0246 31.5451L52.6862 32.4619C52.3758 32.5839 52.2224 32.9342 52.3444 33.2446C52.4374 33.4825 52.6657 33.6287 52.906 33.6287C52.9797 33.6287 53.0546 33.6142 53.1271 33.5864L55.4836 32.6624L56.4958 35.1204L54.1404 36.0444C53.83 36.1652 53.6766 36.5154 53.7998 36.8271C53.8928 37.065 54.1199 37.2099 54.3615 37.2099C54.4352 37.2099 54.5088 37.1967 54.5813 37.1677L56.9547 36.2376L57.9669 38.6956L55.5959 39.6256C55.2855 39.7477 55.1321 40.0979 55.2541 40.4083C55.3471 40.6475 55.5754 40.7924 55.8157 40.7924C55.8894 40.7924 55.9643 40.7779 56.0368 40.7502L58.4271 39.8129L58.8704 40.8903C60.0903 43.8556 62.3695 46.235 65.2877 47.589C73.8502 51.5629 74.5386 53.4664 74.5459 53.9544C74.5495 54.2383 74.3019 54.5064 73.8067 54.7528C71.2823 56.0162 66.2757 56.6274 61.3489 56.2795C61.0083 56.2505 60.7269 56.5054 60.7039 56.8375C60.6797 57.1709 60.931 57.4596 61.2631 57.4837C62.2004 57.5502 63.1414 57.5828 64.0702 57.5828C68.224 57.5828 72.1398 56.9378 74.3478 55.8338C75.5243 55.2456 75.7622 54.4774 75.7537 53.9375C75.7429 53.2345 75.7127 51.0954 65.7962 46.4923C63.1546 45.2675 61.0916 43.1139 59.9877 40.4301L55.858 30.3952C55.4763 29.4688 54.8338 28.7091 54.0426 28.1764L59.9792 23.9127C60.2498 23.717 60.3126 23.3402 60.1169 23.0696C59.9224 22.7979 59.5432 22.7362 59.275 22.9307L52.8034 27.581C52.5098 27.488 52.2091 27.4143 51.8963 27.3804C47.3173 26.8901 44.2457 25.5856 42.7661 23.502C41.5776 21.8292 41.6742 19.9908 41.9653 18.7431C42.1308 18.0341 41.9242 17.319 41.4725 16.8033L49.6448 11.6542C49.9262 11.4767 50.012 11.1047 49.8332 10.822C49.6569 10.5394 49.2837 10.456 49.001 10.6324L40.319 16.1028C32.4921 13.4551 25.5808 22.8522 24.2594 24.786C24.0094 25.152 23.9007 25.5518 23.9453 25.9383C24.1893 28.0979 26.5857 30.9738 28.5521 33.0054C29.4121 33.8932 30.3965 34.7061 31.4799 35.4187Z" fill="#FF559C"/>
<path d="M31.4799 35.4187C34.4899 37.3984 41.8421 42.7419 45.0876 49.588C46.5394 52.6523 49.7789 54.9823 54.4533 56.3242C54.7721 56.4148 55.1079 56.2312 55.1997 55.9111C55.2915 55.5898 55.1067 55.2553 54.7866 55.1635C51.7658 54.2962 47.821 52.5352 46.1783 49.0698C42.8023 41.9484 35.2388 36.4454 32.1443 34.4101C31.1345 33.7446 30.2177 32.9897 29.4193 32.166C26.8249 29.4833 25.3066 27.2234 25.1447 25.8018C25.1339 25.7076 25.1737 25.5892 25.2583 25.4672C26.5048 23.641 33.0852 14.6545 40.191 17.3311C40.6367 17.499 40.8988 17.9991 40.7901 18.4689C40.4422 19.9582 40.3323 22.1613 41.7817 24.2014C43.4703 26.5796 46.8305 28.0532 51.7682 28.5811C53.0824 28.7224 54.2214 29.5944 54.7407 30.8554L55.0246 31.5451L52.6862 32.4619C52.3758 32.5839 52.2224 32.9342 52.3444 33.2446C52.4374 33.4825 52.6657 33.6287 52.906 33.6287C52.9797 33.6287 53.0546 33.6142 53.1271 33.5864L55.4836 32.6624L56.4958 35.1204L54.1404 36.0444C53.83 36.1652 53.6766 36.5154 53.7998 36.8271C53.8928 37.065 54.1199 37.2099 54.3615 37.2099C54.4352 37.2099 54.5088 37.1967 54.5813 37.1677L56.9547 36.2376L57.9669 38.6956L55.5959 39.6256C55.2855 39.7477 55.1321 40.0979 55.2541 40.4083C55.3471 40.6475 55.5754 40.7924 55.8157 40.7924C55.8894 40.7924 55.9643 40.7779 56.0368 40.7502L58.4271 39.8129L58.8704 40.8903C60.0903 43.8556 62.3695 46.235 65.2877 47.589C73.8502 51.5629 74.5386 53.4664 74.5459 53.9544C74.5495 54.2383 74.3019 54.5064 73.8067 54.7528C71.2823 56.0162 66.2757 56.6274 61.3489 56.2795C61.0083 56.2505 60.7269 56.5054 60.7039 56.8375C60.6798 57.1709 60.931 57.4596 61.2631 57.4837C62.2004 57.5502 63.1414 57.5828 64.0702 57.5828C68.224 57.5828 72.1398 56.9378 74.3478 55.8338C75.5243 55.2456 75.7622 54.4774 75.7537 53.9375C75.7429 53.2345 75.7127 51.0954 65.7962 46.4923C63.1546 45.2675 61.0916 43.1139 59.9877 40.4301L55.858 30.3952C55.4763 29.4688 54.8338 28.7091 54.0426 28.1764L59.9792 23.9127C60.2498 23.717 60.3126 23.3402 60.1169 23.0696C59.9224 22.7979 59.5432 22.7362 59.275 22.9307L52.8034 27.581C52.5098 27.488 52.2091 27.4143 51.8963 27.3804C47.3173 26.8901 44.2457 25.5856 42.7661 23.502C41.5776 21.8292 41.6742 19.9908 41.9653 18.7431C42.1308 18.0341 41.9242 17.319 41.4725 16.8033L49.6448 11.6542C49.9262 11.4767 50.012 11.1047 49.8332 10.822C49.6569 10.5394 49.2837 10.456 49.001 10.6324L40.319 16.1028C32.4921 13.4551 25.5808 22.8522 24.2594 24.786C24.0094 25.152 23.9007 25.5518 23.9453 25.9383C24.1893 28.0979 26.5857 30.9738 28.5521 33.0054C29.4121 33.8932 30.3965 34.7061 31.4799 35.4187" stroke="#FF559C" stroke-width="0.5"/>
<path d="M53.7778 61.5957C55.3988 61.9907 57.0269 62.1876 58.6539 62.1876C64.1207 62.1876 69.5729 59.9723 74.6507 55.6458C74.9056 55.4296 74.9358 55.0479 74.7184 54.7943C74.5022 54.5407 74.1217 54.5093 73.868 54.7267C67.4942 60.1559 60.8329 62.0728 54.0641 60.4229C46.3338 58.5386 40.8502 52.4728 39.7595 49.7938C37.711 44.7655 29.6896 41.4185 29.4179 41.3134C29.3997 41.3026 27.5554 40.2445 25.5286 38.5886C25.2701 38.3772 24.8896 38.4158 24.6795 38.6743C24.4681 38.9328 24.5067 39.3132 24.764 39.5246C26.8741 41.2482 28.7415 42.3184 28.8888 42.3957C28.9673 42.4283 36.7834 45.6919 38.641 50.2492C39.8114 53.1214 45.6284 59.6088 53.7778 61.5957Z" fill="#FF559C"/>
<path d="M53.7778 61.5957C55.3988 61.9907 57.0269 62.1876 58.6539 62.1876C64.1207 62.1876 69.5729 59.9723 74.6507 55.6458C74.9056 55.4296 74.9358 55.0479 74.7184 54.7943C74.5022 54.5407 74.1217 54.5093 73.868 54.7267C67.4942 60.1559 60.8329 62.0728 54.0641 60.4229C46.3338 58.5386 40.8502 52.4728 39.7595 49.7938C37.711 44.7655 29.6896 41.4185 29.4179 41.3134C29.3997 41.3026 27.5554 40.2445 25.5286 38.5886C25.2701 38.3772 24.8896 38.4158 24.6795 38.6743C24.4681 38.9328 24.5067 39.3132 24.764 39.5246C26.8741 41.2482 28.7415 42.3184 28.8888 42.3957C28.9673 42.4283 36.7834 45.6919 38.641 50.2492C39.8114 53.1214 45.6284 59.6088 53.7778 61.5957" stroke="#FF559C" stroke-width="0.5"/>
<path d="M20.443 32.1967C20.0528 31.013 20.1132 29.9827 20.6217 29.136C21.7426 27.2711 24.6608 26.7505 24.691 26.7445C25.0195 26.6889 25.2405 26.3773 25.1838 26.0487C25.1282 25.7202 24.819 25.5016 24.4881 25.5535C24.3467 25.5789 20.9998 26.1683 19.589 28.5079C18.8885 29.6723 18.7894 31.0396 19.2967 32.5748C19.6675 33.6993 20.3258 34.8637 21.2534 36.0365C21.373 36.1875 21.5493 36.266 21.7281 36.266C21.8586 36.266 21.9914 36.2225 22.1025 36.1355C22.3634 35.9278 22.4081 35.5485 22.2016 35.2876C21.3609 34.2247 20.7703 33.1848 20.443 32.1967Z" fill="#FF559C" stroke="#FF559C" stroke-width="0.5"/>
<path d="M30.2305 33.4893C29.9454 33.6621 29.8536 34.0341 30.0276 34.3192C30.1411 34.5064 30.3404 34.609 30.5445 34.609C30.6508 34.609 30.7583 34.5813 30.8574 34.5209C33.4687 32.9362 35.0365 30.8394 35.5148 28.2883C36.498 23.0608 32.5641 17.8477 32.3962 17.6278C32.1932 17.3633 31.8152 17.3138 31.5495 17.5155C31.2849 17.7172 31.2342 18.0965 31.4371 18.3622C31.4746 18.4118 35.2129 23.376 34.3275 28.0697C33.912 30.2668 32.5339 32.0907 30.2305 33.4893Z" fill="#FF559C"/>
<path d="M30.2305 33.4893C29.9454 33.6621 29.8536 34.0341 30.0276 34.3192C30.1411 34.5064 30.3404 34.609 30.5445 34.609C30.6508 34.609 30.7583 34.5813 30.8574 34.5209C33.4687 32.9362 35.0365 30.8394 35.5148 28.2883C36.498 23.0608 32.5641 17.8477 32.3962 17.6278C32.1932 17.3633 31.8152 17.3138 31.5495 17.5155C31.2849 17.7172 31.2342 18.0965 31.4371 18.3622C31.4746 18.4118 35.2129 23.376 34.3275 28.0697C33.912 30.2668 32.5339 32.0907 30.2305 33.4893" stroke="#FF559C" stroke-width="0.5"/>
</svg>
