<svg width="30" height="29" viewBox="0 0 30 29" fill="none" xmlns="http://www.w3.org/2000/svg">
<path fill-rule="evenodd" clip-rule="evenodd" d="M0.5 14.5218C0.5 6.88332 6.6045 0 15.029 0C23.265 0 29.5 6.75263 29.5 14.4782C29.5 23.4382 22.192 29 15 29C12.622 29 9.983 28.361 7.866 27.1122C7.1265 26.662 6.503 26.328 5.7055 26.5894L2.7765 27.4607C2.037 27.693 1.37 27.1122 1.5875 26.328L2.559 23.0751C2.7185 22.6249 2.6895 22.1457 2.4575 21.7682C1.2105 19.4737 0.5 16.9614 0.5 14.5218ZM13.1094 14.5212C13.1094 15.5523 13.9359 16.38 14.9654 16.3945C15.9949 16.3945 16.8214 15.5523 16.8214 14.5357C16.8214 13.5047 15.9949 12.6769 14.9654 12.6769C13.9504 12.6624 13.1094 13.5047 13.1094 14.5212ZM19.7949 14.5355C19.7949 15.5521 20.6214 16.3943 21.6509 16.3943C22.6804 16.3943 23.5069 15.5521 23.5069 14.5355C23.5069 13.5045 22.6804 12.6768 21.6509 12.6768C20.6214 12.6768 19.7949 13.5045 19.7949 14.5355ZM8.28959 16.3963C7.27459 16.3963 6.43359 15.554 6.43359 14.5375C6.43359 13.5065 7.26009 12.6787 8.28959 12.6787C9.31909 12.6787 10.1456 13.5065 10.1456 14.5375C10.1456 15.554 9.31909 16.3818 8.28959 16.3963Z" fill="#8D4FD0"/>
</svg>
