<svg width="17" height="18" viewBox="0 0 17 18" fill="none" xmlns="http://www.w3.org/2000/svg">
<path fill-rule="evenodd" clip-rule="evenodd" d="M14.0969 14.5136C11.6774 16.9334 8.09477 17.4561 5.16294 16.1003C4.73013 15.926 4.37529 15.7852 4.03795 15.7852C3.09833 15.7907 1.92879 16.7018 1.32094 16.0947C0.713094 15.4868 1.62486 14.3163 1.62486 13.371C1.62486 13.0336 1.48961 12.6851 1.31537 12.2515C-0.0411444 9.32012 0.482367 5.73629 2.90182 3.31737C5.99038 0.227675 11.0083 0.227676 14.0969 3.31658C17.191 6.41105 17.1854 11.4247 14.0969 14.5136Z" stroke="#2A9D8F" stroke-linecap="round" stroke-linejoin="round"/>
<path d="M11.6179 9.24349H11.625" stroke="#2A9D8F" stroke-width="1.8" stroke-linecap="round" stroke-linejoin="round"/>
<path d="M8.44403 9.24349H8.45115" stroke="#2A9D8F" stroke-width="1.8" stroke-linecap="round" stroke-linejoin="round"/>
<path d="M5.2702 9.24349H5.27733" stroke="#2A9D8F" stroke-width="1.8" stroke-linecap="round" stroke-linejoin="round"/>
</svg>
