<svg width="11" height="11" viewBox="0 0 11 11" fill="none" xmlns="http://www.w3.org/2000/svg">
<path d="M5.5 0C2.46718 0 0 2.46718 0 5.5C0 8.53282 2.46718 11 5.5 11C8.53282 11 11 8.53282 11 5.5C11 2.46718 8.53282 0 5.5 0Z" fill="#4CAFF6"/>
<path d="M8.28445 4.33475L5.30526 7.31386C5.21588 7.40324 5.09856 7.44822 4.98123 7.44822C4.86391 7.44822 4.74658 7.40324 4.6572 7.31386L3.16765 5.8243C2.98839 5.64513 2.98839 5.35542 3.16765 5.17625C3.34682 4.99699 3.63644 4.99699 3.8157 5.17625L4.98123 6.34177L7.6364 3.68669C7.81557 3.50743 8.10519 3.50743 8.28445 3.68669C8.46363 3.86587 8.46363 4.15549 8.28445 4.33475Z" fill="#FAFAFA"/>
</svg>
