<svg width="61" height="57" viewBox="0 0 61 57" fill="none" xmlns="http://www.w3.org/2000/svg">
<path d="M2.35377 48.2291C1.04999 48.2291 0 49.294 0 50.5978V56.9997H1.55259V52.9764H7.20562V51.4114H1.56504V50.5953C1.56504 50.1574 1.9283 49.7916 2.36621 49.7916H8.77066V48.2266H2.35377V48.2291Z" fill="#011C42"/>
<path d="M11.5787 57.0002V48.2295H10.0137V57.0002H11.5787Z" fill="#011C42"/>
<path d="M20.0377 48.2295V53.8104L14.3971 49.4686L12.832 48.2668V57.0002H14.3971V51.4591L20.0377 55.7984L21.6027 57.0002V48.2419L20.0377 48.2295Z" fill="#011C42"/>
<path d="M30.0611 48.2295V52.6161C30.0611 54.1711 28.7946 55.4351 27.242 55.4351C25.6895 55.4351 24.4205 54.1687 24.4205 52.6161V48.2295H22.8555V52.6161C22.8555 55.0345 24.8211 57.0002 27.242 57.0002C29.663 57.0002 31.6261 55.0345 31.6261 52.6161V48.2295H30.0611Z" fill="#011C42"/>
<path d="M32.8828 48.2295V49.7945H36.4806V57.0002H38.0457V49.7945H41.641V48.2295H32.8828Z" fill="#011C42"/>
<path d="M51.2043 50.6474V50.5977C51.2043 49.2939 50.1394 48.2314 48.8381 48.2314H45.2776C43.9738 48.2314 42.9238 49.2964 42.9238 50.5977V50.6474C42.9238 51.15 43.0731 51.6128 43.3369 51.9885C43.424 52.1254 43.526 52.2523 43.6379 52.3642C44.0634 52.7773 44.6406 53.0286 45.2801 53.0286H48.44C49.1044 53.0286 49.6567 53.5685 49.6567 54.2328C49.6567 54.8971 49.1044 55.4346 48.44 55.4346H45.6956C45.0313 55.4346 44.4914 54.8947 44.4914 54.2328H42.9263C42.9263 55.7605 44.1654 56.9996 45.6956 56.9996H48.44C49.9702 56.9996 51.2093 55.7605 51.2093 54.2328C51.2093 53.5685 50.9705 52.9539 50.5848 52.4762C50.5475 52.4389 50.5226 52.4015 50.4853 52.3642C49.9851 51.8143 49.2586 51.4635 48.4425 51.4635H45.2826C44.8447 51.4635 44.4814 51.1003 44.4814 50.6599V50.6101C44.4814 50.1722 44.8447 49.8089 45.2826 49.8089H48.8431C49.281 49.8089 49.6443 50.1722 49.6443 50.6126V50.6624L51.2093 50.6499L51.2043 50.6474Z" fill="#011C42"/>
<path d="M60.7532 50.6474V50.5977C60.7532 49.2939 59.6882 48.2314 58.3869 48.2314H54.8264C53.5227 48.2314 52.4727 49.2964 52.4727 50.5977V50.6474C52.4727 51.15 52.622 51.6128 52.8857 51.9885C52.9728 52.1254 53.0748 52.2523 53.1867 52.3642C53.6122 52.7773 54.1895 53.0286 54.8289 53.0286H57.9889C58.6532 53.0286 59.2055 53.5685 59.2055 54.2328C59.2055 54.8971 58.6532 55.4346 57.9889 55.4346H55.2444C54.5801 55.4346 54.0402 54.8947 54.0402 54.2328H52.4751C52.4751 55.7605 53.7142 56.9996 55.2444 56.9996H57.9889C59.5191 56.9996 60.7581 55.7605 60.7581 54.2328C60.7581 53.5685 60.5193 52.9539 60.1311 52.4762C60.0938 52.4389 60.0689 52.4015 60.0316 52.3642C59.5315 51.8143 58.805 51.4635 57.9889 51.4635H54.8289C54.391 51.4635 54.0277 51.1003 54.0277 50.6599V50.6101C54.0277 50.1722 54.391 49.8089 54.8289 49.8089H58.3894C58.8273 49.8089 59.1906 50.1722 59.1906 50.6126V50.6624L60.7557 50.6499L60.7532 50.6474Z" fill="#011C42"/>
<path fill-rule="evenodd" clip-rule="evenodd" d="M8.32133 19.83C8.20409 19.6228 8.20409 19.3741 8.32133 19.1668C9.66373 16.8161 17.7416 2.68822 19.0839 0.337511C19.2012 0.13027 19.4181 0.00592696 19.6526 0.00592696H29.999C29.999 0.00592696 16.9619 22.8143 14.0602 27.8888C13.943 28.096 13.7261 28.2203 13.4916 28.2203C13.2571 28.2203 13.0402 28.096 12.923 27.8888C11.7389 25.8163 9.05407 21.1149 8.31546 19.83H8.32133ZM43.9154 6.23501C44.0326 6.02777 44.0326 5.77909 43.9154 5.57184C43.3233 4.53564 41.512 1.36779 40.9199 0.331584C40.8027 0.124343 40.5858 0 40.3513 0H30.0049C30.0049 0 36.2362 10.9009 38.1706 14.2878C38.2879 14.495 38.5047 14.6194 38.7392 14.6194C38.9737 14.6194 39.1906 14.495 39.3078 14.2878C40.492 12.2154 43.1768 7.51398 43.9154 6.22909V6.23501Z" fill="#FF559C"/>
<path fill-rule="evenodd" clip-rule="evenodd" d="M51.683 19.1735C51.8002 19.3807 51.8002 19.6294 51.683 19.8367C50.3406 22.1874 42.2627 36.3153 40.9203 38.666C40.8031 38.8732 40.5862 38.9976 40.3517 38.9976H30.0053C30.0053 38.9976 43.0424 16.1892 45.9441 11.1148C46.0613 10.9075 46.2782 10.7832 46.5127 10.7832C46.7472 10.7832 46.9641 10.9075 47.0813 11.1148C48.2654 13.1872 50.9502 17.8886 51.6888 19.1735H51.683ZM16.0948 32.7685C15.9775 32.9758 15.9775 33.2244 16.0948 33.4317C16.6868 34.4679 18.4982 37.6357 19.0903 38.6719C19.2075 38.8792 19.4244 39.0035 19.6589 39.0035H30.0053C30.0053 39.0035 23.774 28.1026 21.8395 24.7098C21.7223 24.5025 21.5054 24.3782 21.2709 24.3782C21.0364 24.3782 20.8195 24.5025 20.7023 24.7098C19.5182 26.7822 16.8334 31.4836 16.0948 32.7685Z" fill="#4CAFF6"/>
</svg>
