<svg width="28" height="28" viewBox="0 0 28 28" fill="none" xmlns="http://www.w3.org/2000/svg">
<circle cx="14" cy="14" r="14" fill="#FF000F" fill-opacity="0.1"/>
<path d="M17.628 12.7227C17.628 12.7227 17.3271 16.4541 17.1526 18.0259C17.0695 18.7766 16.6058 19.2165 15.8462 19.2304C14.4007 19.2564 12.9535 19.2581 11.5086 19.2276C10.7778 19.2126 10.3219 18.7672 10.2404 18.0298C10.0648 16.4441 9.76562 12.7227 9.76562 12.7227" stroke="#FF000F" stroke-width="0.6" stroke-linecap="round" stroke-linejoin="round"/>
<path d="M18.3953 10.9333H9" stroke="#FF000F" stroke-width="0.6" stroke-linecap="round" stroke-linejoin="round"/>
<path d="M16.5833 10.933C16.1484 10.933 15.7739 10.6255 15.6885 10.1995L15.5539 9.52578C15.4708 9.21497 15.1894 9 14.8686 9H12.5233C12.2025 9 11.9211 9.21497 11.838 9.52578L11.7034 10.1995C11.618 10.6255 11.2435 10.933 10.8086 10.933" stroke="#FF000F" stroke-width="0.6" stroke-linecap="round" stroke-linejoin="round"/>
</svg>
