<svg width="20" height="20" viewBox="0 0 20 20" fill="none" xmlns="http://www.w3.org/2000/svg">
<path d="M13.5848 17.3064H5.55173C5.19665 17.3064 4.85611 17.1653 4.60503 16.9142C4.35395 16.6632 4.21289 16.3226 4.21289 15.9675V3.91794C4.21289 3.56286 4.35395 3.22232 4.60503 2.97124C4.85611 2.72016 5.19665 2.5791 5.55173 2.5791H13.5848C13.9399 2.5791 14.2804 2.72016 14.5315 2.97124C14.7826 3.22232 14.9236 3.56286 14.9236 3.91794V15.9675C14.9236 16.3226 14.7826 16.6632 14.5315 16.9142C14.2804 17.1653 13.9399 17.3064 13.5848 17.3064Z" stroke="#8D4FD0" stroke-width="1.2" stroke-miterlimit="10" stroke-linecap="square"/>
<path d="M9.56786 15.2978C9.93757 15.2978 10.2373 14.9981 10.2373 14.6284C10.2373 14.2587 9.93757 13.959 9.56786 13.959C9.19815 13.959 8.89844 14.2587 8.89844 14.6284C8.89844 14.9981 9.19815 15.2978 9.56786 15.2978Z" fill="#8D4FD0"/>
</svg>
