<svg width="24" height="24" viewBox="0 0 24 24" fill="none" xmlns="http://www.w3.org/2000/svg">
<path d="M11.4922 2.78906H7.75324C4.67824 2.78906 2.75024 4.96606 2.75024 8.04806V16.3621C2.75024 19.4441 4.66924 21.6211 7.75324 21.6211H16.5772C19.6622 21.6211 21.5812 19.4441 21.5812 16.3621V12.3341" stroke="#4CAFF6" stroke-width="1.5" stroke-linecap="round" stroke-linejoin="round"/>
<path fill-rule="evenodd" clip-rule="evenodd" d="M8.82775 10.921L16.3008 3.44799C17.2318 2.51799 18.7408 2.51799 19.6718 3.44799L20.8888 4.66499C21.8198 5.59599 21.8198 7.10599 20.8888 8.03599L13.3798 15.545C12.9728 15.952 12.4208 16.181 11.8448 16.181H8.09875L8.19275 12.401C8.20675 11.845 8.43375 11.315 8.82775 10.921Z" stroke="#4CAFF6" stroke-width="1.5" stroke-linecap="round" stroke-linejoin="round"/>
<path d="M15.1652 4.60254L19.7312 9.16854" stroke="#4CAFF6" stroke-width="1.5" stroke-linecap="round" stroke-linejoin="round"/>
</svg>
