<svg width="21" height="15" viewBox="0 0 21 15" fill="none" xmlns="http://www.w3.org/2000/svg">
<path d="M11.6877 9.75726C11.1894 10.0894 10.6106 10.265 10.0139 10.265C9.41722 10.265 8.83845 10.0894 8.34018 9.75726L0.133349 4.28587C0.0878173 4.25551 0.0434588 4.22387 0 4.19132V13.1568C0 14.1847 0.834167 15.0005 1.84369 15.0005H18.1841C19.212 15.0005 20.0278 14.1663 20.0278 13.1568V4.19128C19.9842 4.22391 19.9398 4.25563 19.8942 4.28603L11.6877 9.75726Z" fill="#2A9D8F"/>
<path d="M0.784293 3.30897L8.99112 8.7804C9.30179 8.98752 9.65783 9.09107 10.0139 9.09107C10.37 9.09107 10.726 8.98749 11.0367 8.7804L19.2435 3.30897C19.7346 2.98176 20.0278 2.43412 20.0278 1.84307C20.0278 0.826774 19.201 0 18.1848 0H1.84307C0.826813 3.91168e-05 0 0.826813 0 1.84405C0 2.43412 0.29322 2.98176 0.784293 3.30897Z" fill="#2A9D8F"/>
</svg>
