<svg width="118" height="118" viewBox="0 0 118 118" fill="none" xmlns="http://www.w3.org/2000/svg">
<circle cx="59" cy="59" r="58" fill="#E7E8E9" stroke="#FF559C" stroke-width="2" stroke-linecap="round"/>
<path d="M59.1908 22C45.6203 22 34.5271 33.0932 34.5271 46.6637C34.5271 60.2342 45.6203 71.3274 59.1908 71.3274C72.7613 71.3274 83.8545 60.2342 83.8545 46.6637C83.8545 33.0932 72.7613 22 59.1908 22Z" fill="white"/>
<path d="M104.805 90.6368C104.106 89.0581 103.174 87.5847 102.125 86.2166C96.7645 79.06 88.4911 74.3242 79.1687 73.1665C78.0035 73.0614 76.7216 73.2717 75.7893 73.9032C70.895 77.1657 65.0686 78.8495 59.0089 78.8495C52.9492 78.8495 47.1228 77.1657 42.2285 73.9032C41.2962 73.2717 40.0144 72.956 38.8492 73.1665C29.5268 74.3242 21.1367 79.06 15.8929 86.2166C14.8441 87.5847 13.9118 89.1634 13.2128 90.6368C12.8633 91.2683 12.9797 92.0049 13.3292 92.6364C14.2615 94.1098 15.4267 95.5833 16.4755 96.8461C18.1068 98.8458 19.8548 100.635 21.8359 102.319C23.4673 103.792 25.3317 105.16 27.1964 106.528C36.4021 112.738 47.4726 116 58.8925 116C70.3124 116 81.3828 112.737 90.5886 106.528C92.453 105.265 94.3175 103.792 95.949 102.319C97.8135 100.635 99.6779 98.8456 101.31 96.8461C102.475 95.478 103.524 94.1098 104.456 92.6364C105.038 92.0049 105.155 91.2681 104.805 90.6368Z" fill="white"/>
</svg>
