<svg width="220" height="214" viewBox="0 0 220 214" fill="none" xmlns="http://www.w3.org/2000/svg">
<path d="M220 107C220 166.094 172.094 214 113 214C53.9055 214 6 166.094 6 107C6 47.9055 53.9055 0 113 0C172.094 0 220 47.9055 220 107ZM27.4185 107C27.4185 154.265 65.7347 192.581 113 192.581C160.265 192.581 198.581 154.265 198.581 107C198.581 59.7347 160.265 21.4185 113 21.4185C65.7347 21.4185 27.4185 59.7347 27.4185 107Z" fill="#3E0A52"/>
<circle cx="105.5" cy="106.5" r="84.5" fill="#892CAD"/>
<path fill-rule="evenodd" clip-rule="evenodd" d="M109.742 23.2088C65.7599 26.1689 31.0009 62.7831 31.0009 107.516C31.0009 149.714 61.9328 184.688 102.36 191C56.7254 190.126 20.0009 152.859 20.0009 107.016C20.0009 60.6238 57.609 23.0157 104.001 23.0157C105.931 23.0157 107.845 23.0808 109.742 23.2088Z" fill="#3E0A52"/>
<path d="M210 107C210 164.99 162.99 212 105 212C47.0101 212 0 164.99 0 107C0 49.0101 47.0101 2 105 2C162.99 2 210 49.0101 210 107ZM21.0182 107C21.0182 153.382 58.6181 190.982 105 190.982C151.382 190.982 188.982 153.382 188.982 107C188.982 60.6181 151.382 23.0182 105 23.0182C58.6181 23.0182 21.0182 60.6181 21.0182 107Z" fill="#C26FF4"/>
<path d="M134.554 65.2406L136.533 76.9605C136.838 78.7648 135.47 80.4193 133.64 80.4593L90.465 81.4036C82.2815 81.4036 72.6659 85.4843 79.2127 109.357C84.3274 130.576 96.398 132.821 108.673 133.433H144.032C145.476 133.433 146.715 134.461 146.981 135.88L148.669 144.895C149.361 148.587 146.532 152 142.776 152H99.876C74.5072 151.388 68.3695 137.513 63.8686 130.168C59.3677 122.823 53.2301 105.072 55.4805 84.0561C57.2809 67.2435 74.5072 61.8161 86.3733 61.8161L129.538 61.0739C132.01 61.0314 134.142 62.8025 134.554 65.2406Z" fill="white"/>
<path d="M91.2848 112.43C93.0106 102.917 101.295 96 110.964 96H151L150.715 97.5698C148.989 107.083 140.705 114 131.036 114H91L91.2848 112.43Z" fill="white"/>
</svg>
