<svg width="17" height="16" viewBox="0 0 17 16" fill="none" xmlns="http://www.w3.org/2000/svg">
<path d="M16.4473 8C16.4473 12.4183 12.8655 16 8.44727 16C4.02899 16 0.447266 12.4183 0.447266 8C0.447266 3.58172 4.02899 0 8.44727 0C12.8655 0 16.4473 3.58172 16.4473 8ZM2.04865 8C2.04865 11.5339 4.91341 14.3986 8.44727 14.3986C11.9811 14.3986 14.8459 11.5339 14.8459 8C14.8459 4.46614 11.9811 1.60138 8.44727 1.60138C4.91341 1.60138 2.04865 4.46614 2.04865 8Z" fill="url(#paint0_linear_2075_2712)"/>
<circle cx="7.88807" cy="7.96229" r="6.31776" fill="#59BCB0"/>
<path fill-rule="evenodd" clip-rule="evenodd" d="M8.20703 1.73541C4.91696 1.95499 2.31628 4.69326 2.31628 8.03896C2.31628 11.1928 4.6273 13.807 7.6483 14.2803C4.2382 14.2128 1.49456 11.4274 1.49456 8.00115C1.49456 4.5326 4.30638 1.72078 7.77493 1.72078C7.92017 1.72078 8.06426 1.72571 8.20703 1.73541Z" fill="#148577"/>
<path d="M15.7009 7.99988C15.7009 12.3356 12.1862 15.8503 7.85047 15.8503C3.51477 15.8503 0 12.3356 0 7.99988C0 3.66419 3.51477 0.149414 7.85047 0.149414C12.1862 0.149414 15.7009 3.66419 15.7009 7.99988ZM1.57145 7.99988C1.57145 11.4677 4.38266 14.2789 7.85047 14.2789C11.3183 14.2789 14.1295 11.4677 14.1295 7.99988C14.1295 4.53208 11.3183 1.72087 7.85047 1.72087C4.38266 1.72087 1.57145 4.53208 1.57145 7.99988Z" fill="url(#paint1_radial_2075_2712)"/>
<path d="M6.45966 4.62157L9.19523 4.57453C9.66276 4.56649 10.066 4.9014 10.1438 5.36247C10.2014 5.70369 9.94279 6.01656 9.59682 6.02413L6.76558 6.08605C6.15373 6.08605 5.43481 6.39115 5.92429 8.17599C6.30669 9.76251 7.20917 9.93031 8.12695 9.97608H10.5949C10.8047 9.97608 10.9848 10.1255 11.0234 10.3318C11.1239 10.8684 10.7126 11.3643 10.1667 11.3643H7.46921C5.57247 11.3185 5.11358 10.2812 4.77707 9.732C4.44055 9.18282 3.98166 7.85563 4.14992 6.28436C4.28453 5.02735 5.57247 4.62157 6.45966 4.62157Z" fill="white"/>
<path d="M6.80664 8.52353C6.948 7.74428 7.62657 7.17773 8.41853 7.17773H11.2926C11.1513 7.95698 10.4727 8.52353 9.68073 8.52353H6.80664Z" fill="white"/>
<defs>
<linearGradient id="paint0_linear_2075_2712" x1="8.44727" y1="-4.41186e-07" x2="15.8491" y2="10.8037" gradientUnits="userSpaceOnUse">
<stop offset="0.343396" stop-color="#2A9D8F"/>
<stop offset="1" stop-color="#1C9E8E"/>
</linearGradient>
<radialGradient id="paint1_radial_2075_2712" cx="0" cy="0" r="1" gradientUnits="userSpaceOnUse" gradientTransform="translate(7.85047 7.99988) rotate(90) scale(7.85047)">
<stop offset="0.771283" stop-color="#2A9D8F"/>
<stop offset="1" stop-color="#1A8C7E"/>
</radialGradient>
</defs>
</svg>
