<svg xmlns="http://www.w3.org/2000/svg" fill="none" viewBox="0 0 85.63 319.14">
<path d="M1.61669 155.854C1.61669 155.854 3.25878 151.459 2.9207 132.43C2.63092 113.449 4.36961 109.923 5.14236 106.253C5.86681 102.582 7.07423 90.0734 7.79868 75.3429C8.52313 60.6124 10.1652 60.6124 12.0488 57.0868C13.9807 53.5611 28.6629 50.1803 30.7396 49.2627C32.8164 48.3933 35.2795 46.4615 35.5693 44.8677C35.8591 43.2256 35.5693 35.5947 35.5693 35.5947C31.4158 31.7793 31.0294 25.5007 31.0294 25.5007C29.5805 25.5973 29.4356 23.1824 29.3873 22.4097C29.339 21.6369 28.3731 18.1113 28.4214 16.3726C28.4697 14.6339 30.643 15.2135 30.643 15.2135C30.643 1.35231 37.791 0 42.8138 0C47.8367 0 54.9846 1.35231 54.9846 15.2135C54.9846 15.2135 57.158 14.5856 57.2062 16.3726C57.2545 18.1113 56.2886 21.6369 56.2403 22.4097C56.192 23.1824 56.0471 25.5973 54.5982 25.5007C54.5982 25.5007 54.1636 31.7793 50.0583 35.5947C50.0583 35.5947 49.7686 43.2256 50.0583 44.8677C50.3481 46.5098 52.8595 48.3933 54.888 49.2627C56.9648 50.132 71.647 53.5128 73.5789 57.0868C75.5107 60.6124 77.1045 60.6124 77.829 75.3429C78.5534 90.0734 79.7608 102.582 80.4853 106.253C81.2097 109.923 82.9967 113.449 82.7069 132.43C82.4172 151.41 84.0109 155.854 84.0109 155.854C84.0109 155.854 86.6673 169.087 85.1701 172.178C83.7212 175.269 81.9342 177.491 81.0649 177.346C80.1955 177.201 80.6302 175.559 80.6302 175.559C80.6302 175.559 76.9596 177.925 76.0903 177.346C75.2209 176.766 74.9312 177.201 74.1584 176.138C73.434 175.124 74.738 174.061 74.738 174.061C74.738 174.061 73.8686 173.772 73.2891 173.047C72.7095 172.323 77.3943 169.666 77.3943 165.996C77.3943 162.325 76.6698 158.172 77.829 153.922C78.9881 149.672 72.5163 137.453 71.5021 124.461C70.4879 111.469 71.7919 111.662 70.7776 107.364C69.7634 103.114 65.3201 87.9484 65.3201 82.7806C65.3201 82.5874 65.3201 82.3943 65.3201 82.2011C65.3201 82.2011 64.161 89.3973 62.2291 91.6189C60.2973 93.8406 59.283 107.943 59.8626 109.73C60.4421 111.517 71.2123 135.472 71.0674 151.217C70.9225 166.962 63.8712 196.423 64.2576 201.542C64.5957 206.71 66.5275 222.31 66.6724 234.964C66.8173 247.617 58.1239 277.368 58.4137 290.457C58.7034 303.545 63.7263 311.949 62.2291 314.315C60.7802 316.682 56.0471 318.131 54.405 318.131C54.405 318.131 53.2459 319.58 51.1692 319C49.0924 318.42 48.5128 313.398 48.9475 307.94C49.3822 302.483 49.2373 295.286 48.2231 292.195C47.2088 289.104 51.8936 284.999 51.1692 280.121C50.4447 275.243 52.0385 271.428 50.01 258.484C47.9333 245.541 48.4162 232.452 49.7203 226.125C51.0243 219.799 48.0782 205.937 46.919 201.832C45.7599 197.727 42.8138 167.252 42.8138 167.252C42.8138 167.252 39.916 197.727 38.7086 201.832C37.5495 205.937 34.6034 219.799 35.9074 226.125C37.2114 232.452 37.6944 245.541 35.6176 258.484C33.5408 271.428 35.1829 275.243 34.4585 280.121C33.734 284.999 38.4188 289.104 37.4046 292.195C36.3903 295.286 36.2455 302.483 36.6801 307.94C37.1148 313.398 36.5353 318.372 34.4585 319C32.3817 319.58 31.2226 318.131 31.2226 318.131C29.5805 318.131 24.8957 316.682 23.3985 314.315C21.9496 311.949 26.9242 303.593 27.214 290.457C27.5038 277.368 18.8103 247.617 18.9552 234.964C19.1001 222.31 21.032 206.71 21.3701 201.542C21.7081 196.375 14.7051 166.962 14.5602 151.217C14.4153 135.472 25.1372 111.469 25.7651 109.73C26.3446 107.943 25.3304 93.8406 23.3985 91.6189C21.4667 89.3973 20.3075 82.2011 20.3075 82.2011C20.3075 82.3943 20.3075 82.5874 20.3075 82.7806C20.3075 87.9484 15.9125 103.114 14.85 107.364C13.8358 111.614 15.1398 111.469 14.1256 124.461C13.1113 137.404 6.63956 149.623 7.79868 153.922C8.9578 158.172 8.23334 162.325 8.23334 165.996C8.23334 169.666 12.9664 172.323 12.3386 173.047C11.759 173.772 10.8897 174.061 10.8897 174.061C10.8897 174.061 12.1937 175.076 11.4692 176.138C10.7448 177.152 10.455 176.718 9.53736 177.346C8.66802 177.925 4.99746 175.559 4.99746 175.559C4.99746 175.559 5.43214 177.201 4.5628 177.346C3.69345 177.491 1.90647 175.269 0.457572 172.178C-1.03963 169.087 1.61669 155.854 1.61669 155.854Z" fill="#8D4FD0"/>
</svg>