<svg width="18" height="17" viewBox="0 0 18 17" fill="none" xmlns="http://www.w3.org/2000/svg">
<path fill-rule="evenodd" clip-rule="evenodd" d="M16.6763 5.29083V12.0833C16.6763 14.6 15.1013 16.375 12.5846 16.375H5.3763C2.85964 16.375 1.29297 14.6 1.29297 12.0833V5.29083C1.29297 2.77417 2.86797 1 5.3763 1H12.5846C15.1013 1 16.6763 2.77417 16.6763 5.29083Z" stroke="#2A9D8F" stroke-linecap="round" stroke-linejoin="round"/>
<path d="M3.40234 12.4004L4.67568 11.0563C5.11818 10.5871 5.85568 10.5646 6.32568 11.0063C6.33984 11.0204 7.10651 11.7996 7.10651 11.7996C7.56901 12.2704 8.32484 12.2779 8.79568 11.8163C8.82651 11.7863 10.7407 9.4646 10.7407 9.4646C11.234 8.86543 12.1198 8.7796 12.7198 9.27377C12.7598 9.3071 14.5682 11.1629 14.5682 11.1629" stroke="#2A9D8F" stroke-linecap="round" stroke-linejoin="round"/>
<path fill-rule="evenodd" clip-rule="evenodd" d="M7.59521 6.31909C7.59521 7.12659 6.94104 7.78076 6.13354 7.78076C5.32604 7.78076 4.67188 7.12659 4.67188 6.31909C4.67188 5.51159 5.32604 4.85742 6.13354 4.85742C6.94104 4.85826 7.59521 5.51159 7.59521 6.31909Z" stroke="#2A9D8F" stroke-linecap="round" stroke-linejoin="round"/>
</svg>
