<svg width="25" height="17" viewBox="0 0 25 17" fill="none" xmlns="http://www.w3.org/2000/svg">
<path d="M7.85204 5.89065C7.85204 7.28919 6.71492 8.42533 5.31637 8.42533C3.91782 8.42533 2.78613 7.2887 2.78613 5.89065C2.78613 4.4921 3.91782 3.35547 5.31637 3.35547C6.71492 3.35547 7.85204 4.4921 7.85204 5.89065Z" fill="#4CAFF6"/>
<path d="M12.3553 7.65989C14.4706 7.65989 16.1853 5.94517 16.1853 3.82995C16.1853 1.71473 14.4706 0 12.3553 0C10.2401 0 8.52539 1.71473 8.52539 3.82995C8.52539 5.94517 10.2401 7.65989 12.3553 7.65989Z" fill="#4CAFF6"/>
<path d="M19.3916 3.35547C20.7901 3.35547 21.9267 4.4921 21.9267 5.89065C21.9267 7.28919 20.7901 8.42533 19.3916 8.42533C17.993 8.42533 16.8613 7.2887 16.8613 5.89065C16.8613 4.4921 17.993 3.35547 19.3916 3.35547Z" fill="#4CAFF6"/>
<path d="M24.7111 11.9294V13.6002C24.7111 13.8078 24.5826 13.9956 24.3899 14.0638C23.3427 14.4448 22.2599 14.7013 21.153 14.8357V14.8258V12.4839C21.1584 11.3324 20.729 10.2259 19.957 9.36998C20.4117 9.29685 20.8466 9.13327 21.2375 8.89062C22.769 9.25583 24.7012 10.0964 24.7111 11.9294Z" fill="#4CAFF6"/>
<path d="M20.1627 12.4836V14.8256C20.1627 15.2412 19.9008 15.6168 19.5108 15.7547C14.8858 17.4151 9.82429 17.4151 5.1992 15.7547C4.80879 15.6168 4.54688 15.2412 4.54688 14.8256V12.4836C4.55182 9.71175 7.48728 8.44663 9.79514 7.90698C11.3617 8.89536 13.3533 8.89041 14.9199 7.90698C17.2267 8.45553 20.1523 9.70533 20.1627 12.4836Z" fill="#4CAFF6"/>
<path d="M4.75408 9.36998C3.98314 10.2249 3.55814 11.3324 3.55814 12.4839V14.8258V14.8362C2.45611 14.7023 1.3689 14.4463 0.326163 14.0648C0.128488 13.9956 0 13.8078 0 13.6002V11.9294C0.00494187 10.0964 1.9471 9.25583 3.47413 8.89062C3.86454 9.13228 4.29942 9.29536 4.75408 9.36998Z" fill="#4CAFF6"/>
</svg>
