<svg width="32" height="39" viewBox="0 0 32 39" fill="none" xmlns="http://www.w3.org/2000/svg">
<path d="M13.8344 11.4882H17C18.2013 11.4576 19.2383 12.1628 19.0819 13.3562L18.0502 21.211C17.8716 22.5719 19.9155 22.9258 20.5954 21.211C21.0099 20.1604 23.0285 20.6107 22.5898 22.2485C22.2222 23.6173 20.1625 25.0956 18.8786 25.0956H17.6141C15.7272 25.0213 14.0972 23.3318 14.3969 21.211L15.2806 14.894L13.3683 14.3241C11.6836 13.8718 12.0238 11.4334 13.8344 11.4882ZM17.3618 4.60075C18.739 4.60075 19.855 5.70354 19.855 7.06122C19.855 8.42153 18.739 9.52432 17.3618 9.52432C15.9826 9.52432 14.8661 8.42153 14.8661 7.06122C14.8661 5.70354 15.9826 4.60075 17.3618 4.60075ZM5.29595 0C1.81537 0 -0.000488281 8.50633 -0.000488281 19.0723C-0.000488281 29.6357 1.81485 38.141 5.29595 38.141H29.9633C31.8914 38.141 32.0862 34.6989 30.0044 34.6989H10.6282C7.03756 34.6989 7.03756 29.819 10.6282 29.819H28.5693C30.4184 29.819 31.4443 27.4844 31.4443 25.3289L31.4495 4.66394C31.4495 2.07971 29.6368 0.000526855 27.3875 0.000526855L5.29595 0Z" fill="#8D4FD0"/>
</svg>
