<svg width="17" height="14" viewBox="0 0 17 14" fill="none" xmlns="http://www.w3.org/2000/svg">
<path d="M8.49724 14C8.09015 14.0004 7.69154 13.8837 7.34885 13.664C6.37662 13.0391 4.50684 11.7565 2.92523 10.1904C0.984279 8.26699 0 6.45554 0 4.8051C0 3.65826 0.339112 2.60748 0.980779 1.7667C1.58926 0.967246 2.44881 0.395524 3.42133 0.143382C4.39386 -0.108759 5.42291 -0.0266842 6.34318 0.376423C7.16685 0.731868 7.90146 1.33115 8.49724 2.12643C9.09301 1.3292 9.82763 0.729923 10.6513 0.376423C11.5716 -0.0266842 12.6006 -0.108759 13.5731 0.143382C14.5457 0.395524 15.4052 0.967246 16.0137 1.7667C16.6554 2.60748 16.9945 3.65826 16.9945 4.8051C16.9945 6.45554 16.0102 8.26621 14.0692 10.1889C12.4876 11.7549 10.6186 13.0375 9.64563 13.6624C9.3031 13.8827 8.90448 13.9999 8.49724 14ZM4.53679 0.974535C4.2292 0.974258 3.92293 1.0148 3.62601 1.09509C2.88075 1.29969 2.22304 1.74281 1.7535 2.35665C1.2425 3.02632 0.972224 3.87332 0.972224 4.80665C0.972224 6.18799 1.85928 7.76688 3.60928 9.49977C5.12595 11.0032 6.93312 12.2414 7.87424 12.8442C8.06006 12.9629 8.27596 13.026 8.49646 13.026C8.71696 13.026 8.93286 12.9629 9.11868 12.8442C10.0598 12.2399 11.8654 11.0017 13.3836 9.49977C15.1336 7.76688 16.0207 6.18799 16.0207 4.80665C16.0207 3.87332 15.7504 3.02787 15.2394 2.35665C14.7699 1.74281 14.1122 1.29969 13.3669 1.09509C12.0381 0.734201 10.171 1.11142 8.9149 3.25265C8.87208 3.32582 8.81086 3.38652 8.73731 3.42869C8.66377 3.47087 8.58046 3.49306 8.49568 3.49306C8.4109 3.49306 8.32759 3.47087 8.25405 3.42869C8.1805 3.38652 8.11928 3.32582 8.07646 3.25265C7.08946 1.5672 5.72212 0.974535 4.53679 0.974535Z" fill="#2A9D8F"/>
</svg>
