<svg width="27" height="27" viewBox="0 0 27 27" fill="none" xmlns="http://www.w3.org/2000/svg">
<path d="M15.1875 27H11.8125C11.025 27 10.125 26.325 10.125 24.975V22.6125C10.125 21.4875 9.5625 20.475 8.6625 19.6875C6.6375 18.1125 5.625 15.8625 5.625 13.3875C5.7375 9.1125 9.225 5.7375 13.3875 5.625C15.525 5.625 17.55 6.4125 19.0125 7.875C20.475 9.3375 21.375 11.3625 21.375 13.5C21.375 15.8625 20.3625 18.1125 18.45 19.575C17.4375 20.3625 16.875 21.6 16.875 22.725V25.3125C16.875 26.2125 16.0875 27 15.1875 27ZM13.5 6.75C9.9 6.75 6.8625 9.7875 6.75 13.3875C6.75 15.525 7.65 17.55 9.3375 18.7875C10.575 19.8 11.25 21.15 11.25 22.6125V24.975C11.25 25.2 11.25 25.875 11.8125 25.875H15.1875C15.525 25.875 15.75 25.65 15.75 25.3125V22.725C15.75 21.2625 16.5375 19.6875 17.775 18.675C19.35 17.4375 20.25 15.525 20.25 13.5C20.25 11.7 19.575 10.0125 18.225 8.6625C16.9875 7.425 15.3 6.75 13.5 6.75Z" fill="#4CAFF6"/>
<path d="M16.3125 23.625H10.6875C10.35 23.625 10.125 23.4 10.125 23.0625C10.125 22.725 10.35 22.5 10.6875 22.5H16.3125C16.65 22.5 16.875 22.725 16.875 23.0625C16.875 23.4 16.65 23.625 16.3125 23.625Z" fill="#4CAFF6"/>
<path d="M13.5 3.375C13.1625 3.375 12.9375 3.15 12.9375 2.8125V0.5625C12.9375 0.225 13.1625 0 13.5 0C13.8375 0 14.0625 0.225 14.0625 0.5625V2.8125C14.0625 3.15 13.8375 3.375 13.5 3.375Z" fill="#4CAFF6"/>
<path d="M21.0328 6.5229C20.9203 6.5229 20.6953 6.5229 20.5828 6.4104C20.3578 6.1854 20.3578 5.8479 20.5828 5.6229L22.1578 4.0479C22.3828 3.8229 22.7203 3.8229 22.9453 4.0479C23.1703 4.2729 23.1703 4.6104 22.9453 4.8354L21.3703 6.4104C21.3703 6.4104 21.1453 6.5229 21.0328 6.5229Z" fill="#4CAFF6"/>
<path d="M26.4375 14.0625H24.1875C23.85 14.0625 23.625 13.8375 23.625 13.5C23.625 13.1625 23.85 12.9375 24.1875 12.9375H26.4375C26.775 12.9375 27 13.1625 27 13.5C27 13.8375 26.775 14.0625 26.4375 14.0625Z" fill="#4CAFF6"/>
<path d="M22.6078 23.175C22.4953 23.175 22.2703 23.175 22.1578 23.0625L20.5828 21.4875C20.3578 21.2625 20.3578 20.925 20.5828 20.7C20.8078 20.475 21.1453 20.475 21.3703 20.7L22.9453 22.275C23.1703 22.5 23.1703 22.8375 22.9453 23.0625C22.9453 23.175 22.8328 23.175 22.6078 23.175Z" fill="#4CAFF6"/>
<path d="M4.39219 23.175C4.27969 23.175 4.05469 23.175 3.94219 23.0625C3.71719 22.8375 3.71719 22.5 3.94219 22.275L5.51719 20.7C5.74219 20.475 6.07969 20.475 6.30469 20.7C6.52969 20.925 6.52969 21.2625 6.30469 21.4875L4.72969 23.0625C4.61719 23.175 4.50469 23.175 4.39219 23.175Z" fill="#4CAFF6"/>
<path d="M2.8125 14.0625H0.5625C0.225 14.0625 0 13.8375 0 13.5C0 13.1625 0.225 12.9375 0.5625 12.9375H2.8125C3.15 12.9375 3.375 13.1625 3.375 13.5C3.375 13.8375 3.15 14.0625 2.8125 14.0625Z" fill="#4CAFF6"/>
<path d="M5.96719 6.52358C5.85469 6.52358 5.62969 6.52358 5.51719 6.41108L3.94219 4.72358C3.71719 4.49858 3.71719 4.16108 3.94219 3.93608C4.16719 3.71108 4.50469 3.71108 4.72969 3.93608L6.30469 5.51108C6.52969 5.73608 6.52969 6.07358 6.30469 6.29858C6.19219 6.41108 6.07969 6.52358 5.96719 6.52358Z" fill="#4CAFF6"/>
<path d="M18 14.0625C17.6625 14.0625 17.4375 13.8375 17.4375 13.5C17.4375 11.3625 15.6375 9.5625 13.5 9.5625C13.1625 9.5625 12.9375 9.3375 12.9375 9C12.9375 8.6625 13.1625 8.4375 13.5 8.4375C16.3125 8.4375 18.5625 10.6875 18.5625 13.5C18.5625 13.8375 18.3375 14.0625 18 14.0625Z" fill="#4CAFF6"/>
</svg>
