<svg width="7" height="11" viewBox="0 0 7 11" fill="none" xmlns="http://www.w3.org/2000/svg">
<path d="M5.52411 11C5.42026 11.0006 5.31732 10.9807 5.22118 10.9414C5.12504 10.9021 5.0376 10.8443 4.96387 10.7712L0.229455 6.03674C0.0824905 5.8889 0 5.68891 0 5.48045C0 5.27199 0.0824905 5.07199 0.229455 4.92415L4.96387 0.189737C5.11482 0.0604669 5.30899 -0.00708219 5.50758 0.000588473C5.70617 0.00825914 5.89455 0.0905843 6.03508 0.231113C6.17561 0.371642 6.25794 0.560024 6.26561 0.758614C6.27328 0.957204 6.20573 1.15137 6.07646 1.30232L1.90228 5.4765L6.07646 9.65068C6.18726 9.76057 6.26299 9.90086 6.29407 10.0538C6.32514 10.2067 6.31018 10.3654 6.25105 10.5099C6.19193 10.6543 6.09131 10.7779 5.96192 10.8652C5.83252 10.9524 5.68017 10.9993 5.52411 11Z" fill="#A5ADBC"/>
</svg>
