<svg width="78" height="69" viewBox="0 0 78 69" fill="none" xmlns="http://www.w3.org/2000/svg">
<path fill-rule="evenodd" clip-rule="evenodd" d="M0.969013 34.6171C0.762282 34.2553 0.762282 33.8212 0.969013 33.4594C3.33608 29.3558 17.5798 4.6928 19.9469 0.589191C20.1536 0.227412 20.5361 0.0103467 20.9496 0.0103467H39.1936C39.1936 0.0103467 16.2051 39.8268 11.0885 48.6852C10.8817 49.047 10.4993 49.2641 10.0859 49.2641C9.6724 49.2641 9.28995 49.047 9.08322 48.6852C6.99523 45.0674 2.26107 36.8602 0.958667 34.6171H0.969013ZM63.7326 10.8844C63.9393 10.5226 63.9393 10.0885 63.7326 9.72674C62.6886 7.91784 59.4946 2.38774 58.4506 0.578845C58.2439 0.217065 57.8614 0 57.4479 0H39.2039C39.2039 0 50.1917 19.0296 53.6027 24.9421C53.8095 25.3039 54.1919 25.521 54.6054 25.521C55.0189 25.521 55.4013 25.3039 55.608 24.9421C57.696 21.3243 62.4302 13.1171 63.7326 10.8741V10.8844Z" fill="white"/>
<path fill-rule="evenodd" clip-rule="evenodd" d="M77.4308 33.4692C77.6375 33.8309 77.6375 34.2651 77.4308 34.6268C75.0637 38.7305 60.8199 63.3935 58.4528 67.4971C58.2461 67.8589 57.8637 68.0759 57.4502 68.0759H39.2062C39.2062 68.0759 62.1947 28.2595 67.3113 19.4011C67.518 19.0393 67.9005 18.8223 68.3139 18.8223C68.7274 18.8223 69.1098 19.0393 69.3166 19.4011C71.4046 23.0189 76.1387 31.2261 77.4411 33.4692H77.4308ZM14.6775 57.2019C14.4708 57.5637 14.4708 57.9978 14.6775 58.3596C15.7215 60.1685 18.9155 65.6985 19.9595 67.5074C20.1662 67.8692 20.5487 68.0863 20.9622 68.0863H39.2062C39.2062 68.0863 28.2184 49.0567 24.8074 43.1338C24.6006 42.772 24.2182 42.555 23.8047 42.555C23.3912 42.555 23.0088 42.772 22.8021 43.1338C20.7141 46.7516 15.9799 54.9589 14.6775 57.2019Z" fill="white"/>
</svg>
