<svg width="25" height="25" viewBox="0 0 25 25" fill="none" xmlns="http://www.w3.org/2000/svg">
<path d="M15.3156 0.994628C20.7967 4.86374 27.1237 10.8775 24.3073 16.6523C21.4909 22.4271 19.0974 25.8621 12.3396 24.812C5.58193 23.762 -0.953647 18.3676 0.115423 11.856C1.18449 5.34444 9.83424 -2.87368 15.3156 0.994628Z" fill="#FF559C" fill-opacity="0.1"/>
<path d="M16.6868 9.87272V8.08355C16.6868 5.98939 14.9884 4.29105 12.8943 4.29105C10.8001 4.28189 9.0951 5.97189 9.08594 8.06689V8.08355V9.87272" stroke="#FF559C" stroke-width="0.75" stroke-linecap="round" stroke-linejoin="round"/>
<path fill-rule="evenodd" clip-rule="evenodd" d="M16.0695 19.7076H9.70199C7.95699 19.7076 6.54199 18.2935 6.54199 16.5476V12.9735C6.54199 11.2276 7.95699 9.81348 9.70199 9.81348H16.0695C17.8145 9.81348 19.2295 11.2276 19.2295 12.9735V16.5476C19.2295 18.2935 17.8145 19.7076 16.0695 19.7076Z" stroke="#FF559C" stroke-width="0.75" stroke-linecap="round" stroke-linejoin="round"/>
<path d="M12.8864 13.835V15.6858" stroke="#FF559C" stroke-width="0.75" stroke-linecap="round" stroke-linejoin="round"/>
</svg>
