<svg xmlns="http://www.w3.org/2000/svg" fill="none" viewBox="50 38 95.46 334.7">
<g filter="url(#filter0_d_656_30142)">
<path d="M50.206 161.446C51.2202 159.225 52.1379 153.961 51.51 150.531C50.8822 147.054 50.206 129.522 52.1379 124.886C54.0697 120.249 51.7515 111.701 56.9192 103.346C62.087 94.9419 73.8714 95.2799 73.8714 95.2799C73.8714 95.2799 84.9314 91.6577 86.4769 89.436C88.0224 87.2144 87.2496 77.5067 87.2496 77.5067C84.2552 75.2851 83.9171 68.7167 83.9171 68.7167C83.9171 68.7167 83.6756 69.8759 82.5165 69.1031C81.3574 68.3304 80.971 60.5546 81.3091 59.8784C81.5989 59.2023 82.9029 59.3955 82.9029 59.3955C82.9029 59.3955 81.0676 49.2531 84.2069 43.9888C87.3462 38.7727 94.8322 38 97.73 38C100.676 38 108.114 38.7727 111.253 43.9888C114.392 49.2048 112.557 59.3955 112.557 59.3955C112.557 59.3955 113.861 59.154 114.151 59.8784C114.441 60.5546 114.054 68.3304 112.943 69.1031C111.784 69.8759 111.543 68.7167 111.543 68.7167C111.543 68.7167 111.253 75.2368 108.21 77.5067C108.21 77.5067 107.438 87.2144 108.983 89.436C110.529 91.6577 121.589 95.2799 121.589 95.2799C121.589 95.2799 133.373 94.9902 138.541 103.346C143.709 111.749 141.39 120.298 143.322 124.886C145.254 129.522 144.53 147.054 143.95 150.531C143.322 154.009 144.24 159.225 145.254 161.446C146.268 163.668 143.177 200.229 143.66 205.252C144.143 210.275 145.737 223.701 145.109 224.86C144.481 226.019 140.424 236.306 136.174 236.934C136.174 236.934 133.083 239.156 132.021 238.48C130.958 237.804 132.262 236.258 132.262 236.258C132.262 236.258 131.393 236.403 130.862 235.872C130.33 235.341 134.918 230.849 134.918 230.849C134.918 230.849 132.6 231.863 131.828 230.946C131.055 230.028 137.768 226.502 138.927 223.846C140.086 221.19 138.541 219.548 138.541 219.548L136.609 220.465C136.609 220.465 134.774 226.551 133.47 226.599C132.166 226.695 131.296 226.695 132.407 219.499C132.407 219.499 130.862 214.187 132.117 211.82C133.325 209.453 134.725 208.826 134.725 206.266C134.725 203.706 130.958 190.473 129.702 183.18C128.495 175.887 130.765 161.64 129.558 158.838C128.35 156.086 126.853 149.517 126.805 144.832C126.708 140.148 125.501 133.917 124.342 132.372C123.182 130.826 124.873 141.307 122.265 148.02C119.705 154.733 121.492 166.324 122.699 171.347C123.955 176.37 128.012 204.431 128.398 214.67C128.785 224.908 125.839 262.87 126.225 268.327C126.611 273.785 129.219 281.512 129.219 297.209C129.219 312.905 126.611 314.209 124.39 320.777C122.168 327.298 119.947 344.346 120.14 347.486C120.14 347.486 121.492 349.707 121.54 351.011C121.589 352.315 121.54 353.957 121.975 355.551C122.458 357.145 127.143 368.543 125.742 370.185C124.342 371.779 116.179 371.972 113.33 371.731C113.33 371.731 112.654 373.035 109.804 372.6C106.955 372.117 107.341 362.12 108.21 356.903C109.08 351.687 106.617 350.383 107.341 347.051C108.114 343.718 109.563 342.27 109.708 340.821C109.852 339.372 111.012 322.371 109.031 314.113C107.051 305.854 107.341 293.345 109.273 287.791C111.205 282.237 108.355 279.194 106.279 272.481C104.202 265.767 103.139 249.54 103.139 242.392C103.139 235.244 100.773 230.221 99.6136 226.068C98.4545 221.914 98.5993 215.925 98.5993 215.925L97.6817 215.539L96.7641 215.925C96.7641 215.925 96.909 221.914 95.7498 226.068C94.5907 230.221 92.2242 235.244 92.2242 242.392C92.2242 249.54 91.1616 265.767 89.0849 272.481C87.0081 279.194 84.1586 282.237 86.0905 287.791C88.0224 293.345 88.3121 305.902 86.332 314.113C84.3518 322.323 85.4626 339.372 85.6558 340.821C85.8007 342.27 87.2496 343.767 88.0224 347.051C88.7951 350.383 86.332 351.687 87.153 356.903C88.0224 362.12 88.3604 372.165 85.5592 372.6C82.7097 373.083 82.0336 371.731 82.0336 371.731C79.184 371.972 71.0219 371.827 69.6213 370.185C68.2207 368.591 72.9538 357.193 73.3884 355.551C73.8714 353.957 73.7748 352.315 73.8231 351.011C73.8714 349.707 75.2237 347.486 75.2237 347.486C75.4652 344.346 73.2435 327.298 70.9736 320.777C68.752 314.257 66.1439 312.905 66.1439 297.209C66.1439 281.512 68.752 273.833 69.1383 268.327C69.5247 262.87 66.5786 224.908 66.965 214.67C67.3513 204.431 71.4083 176.322 72.664 171.347C73.9197 166.324 75.6584 154.733 73.0987 148.02C70.5389 141.307 72.181 130.875 71.0219 132.372C69.8628 133.917 68.6554 140.148 68.5588 144.832C68.4622 149.517 67.0133 156.086 65.8058 158.838C64.5501 161.591 66.8684 175.839 65.661 183.18C64.4535 190.473 60.6381 203.706 60.6381 206.266C60.6381 208.826 62.0387 209.405 63.2461 211.82C64.4535 214.187 62.9563 219.499 62.9563 219.499C64.0189 226.647 63.1978 226.647 61.8938 226.599C60.5898 226.502 58.7545 220.465 58.7545 220.465L56.8227 219.548C56.8227 219.548 55.2772 221.238 56.4363 223.846C57.5954 226.454 64.3087 229.98 63.5359 230.946C62.7632 231.863 60.4449 230.849 60.4449 230.849C60.4449 230.849 65.0814 235.292 64.5018 235.872C63.9706 236.403 63.1012 236.258 63.1012 236.258C63.1012 236.258 64.4052 237.804 63.3427 238.48C62.2802 239.156 59.1892 236.934 59.1892 236.934C54.9391 236.306 50.8822 226.019 50.2543 224.86C49.6264 223.701 51.2685 210.226 51.7032 205.252C52.2828 200.229 49.1918 163.668 50.206 161.446Z" fill="#4CAFF6"/>
</g>
<defs>
<filter id="filter0_d_656_30142" x="0" y="0" width="195.46" height="434.704" filterUnits="userSpaceOnUse" color-interpolation-filters="sRGB">
<feFlood flood-opacity="0" result="BackgroundImageFix"/>
<feColorMatrix in="SourceAlpha" type="matrix" values="0 0 0 0 0 0 0 0 0 0 0 0 0 0 0 0 0 0 127 0" result="hardAlpha"/>
<feOffset dy="12"/>
<feGaussianBlur stdDeviation="25"/>
<feComposite in2="hardAlpha" operator="out"/>
<feColorMatrix type="matrix" values="0 0 0 0 0.298039 0 0 0 0 0.686275 0 0 0 0 0.964706 0 0 0 0.25 0"/>
<feBlend mode="normal" in2="BackgroundImageFix" result="effect1_dropShadow_656_30142"/>
<feBlend mode="normal" in="SourceGraphic" in2="effect1_dropShadow_656_30142" result="shape"/>
</filter>
</defs>
</svg>