<svg width="15" height="18" viewBox="0 0 15 18" fill="none" xmlns="http://www.w3.org/2000/svg">
<path d="M6.34247 16.863L1.77922 11.7238C-1.03405 8.55611 -0.435955 3.63842 3.04187 1.24603C5.45641 -0.415345 8.64625 -0.415345 11.0608 1.24603C14.5386 3.66057 15.1367 8.55611 12.3234 11.7238L7.76019 16.863C7.38361 17.306 6.71905 17.306 6.34247 16.863Z" fill="#2A9D8F"/>
<path d="M7.04971 10.8592C9.17844 10.8592 10.9041 9.13352 10.9041 7.00479C10.9041 4.87607 9.17844 3.15039 7.04971 3.15039C4.92099 3.15039 3.19531 4.87607 3.19531 7.00479C3.19531 9.13352 4.92099 10.8592 7.04971 10.8592Z" fill="white"/>
<path d="M8.90019 6.10255L6.68749 8.39654C6.62111 8.46536 6.53397 8.5 6.44683 8.5C6.35969 8.5 6.27256 8.46536 6.20617 8.39654L5.09985 7.24954C4.96672 7.11157 4.96672 6.88849 5.09985 6.75052C5.23293 6.61249 5.44804 6.61249 5.58118 6.75052L6.44683 7.64801L8.41887 5.60353C8.55195 5.46549 8.76705 5.46549 8.90019 5.60353C9.03327 5.7415 9.03327 5.96451 8.90019 6.10255Z" fill="#2A9D8F"/>
</svg>
