<svg width="14" height="19" viewBox="0 0 14 19" fill="none" xmlns="http://www.w3.org/2000/svg">
<path d="M6.5757 13.1535C7.58064 13.1535 8.44065 12.7957 9.15616 12.0805C9.87155 11.3653 10.2293 10.5048 10.2293 9.49998V3.65395C10.2293 2.64909 9.87183 1.789 9.15616 1.07341C8.44065 0.357976 7.58064 0 6.5757 0C5.57088 0 4.71075 0.357976 3.9952 1.07341C3.27961 1.78888 2.92188 2.64909 2.92188 3.65395V9.49998C2.92188 10.5048 3.27977 11.3653 3.9952 12.0805C4.71063 12.7957 5.57088 13.1535 6.5757 13.1535Z" fill="#4CAFF6"/>
<path d="M12.9367 7.52364C12.7925 7.37899 12.6209 7.30664 12.4229 7.30664C12.2252 7.30664 12.054 7.37899 11.9091 7.52364C11.7647 7.66826 11.6923 7.83951 11.6923 8.03735V9.49897C11.6923 10.9073 11.1917 12.1118 10.1907 13.1128C9.18999 14.1138 7.98529 14.6143 6.57694 14.6143C5.16863 14.6143 3.96405 14.1138 2.96299 13.1128C1.96205 12.1121 1.46162 10.9073 1.46162 9.49897V8.03735C1.46162 7.83951 1.38927 7.66826 1.2447 7.52364C1.10004 7.37899 0.928954 7.30664 0.730909 7.30664C0.532865 7.30664 0.361575 7.37899 0.217001 7.52364C0.0723072 7.66826 0 7.83951 0 8.03735V9.49897C0 11.1813 0.561499 12.6448 1.68418 13.8892C2.8069 15.1337 4.19421 15.8473 5.84615 16.0299V17.5372H2.92312C2.72519 17.5372 2.55394 17.6097 2.40933 17.7543C2.26467 17.8989 2.19233 18.0702 2.19233 18.2681C2.19233 18.4657 2.26467 18.6374 2.40933 18.7819C2.55394 18.9264 2.72519 18.999 2.92312 18.999H10.2306C10.4285 18.999 10.5999 18.9265 10.7444 18.7819C10.8892 18.6374 10.9616 18.4658 10.9616 18.2681C10.9616 18.0702 10.8892 17.8989 10.7444 17.7543C10.6 17.6097 10.4285 17.5372 10.2306 17.5372H7.30789V16.0299C8.95956 15.8473 10.3467 15.1337 11.4696 13.8892C12.5924 12.6448 13.1541 11.1813 13.1541 9.49897V8.03735C13.1541 7.83955 13.0816 7.66842 12.9367 7.52364Z" fill="#4CAFF6"/>
</svg>
