<svg width="35" height="20" viewBox="0 0 35 20" fill="none" xmlns="http://www.w3.org/2000/svg">
<path d="M34.4887 10.1357C34.4887 13.4259 33.1291 16.5172 30.6605 18.8403C30.424 19.0628 30.0519 19.0513 29.8295 18.8151C29.6065 18.5788 29.6182 18.2068 29.8545 17.9844C32.0848 15.886 33.3131 13.0986 33.3131 10.136C33.3131 7.17319 32.0848 4.38576 29.8542 2.28711C29.6179 2.06467 29.6065 1.69266 29.8292 1.45641C30.0517 1.22016 30.4237 1.2087 30.6602 1.43114C33.1288 3.75399 34.4887 6.84526 34.4887 10.1357Z" fill="#FF559C"/>
<path d="M29.0205 10.1354C29.0205 12.2232 28.1586 14.184 26.5936 15.6568C26.357 15.8792 25.985 15.8677 25.7626 15.6315C25.5396 15.3949 25.5513 15.0232 25.7876 14.8008C27.1143 13.5525 27.8448 11.8958 27.8448 10.1357C27.8448 8.37495 27.114 6.71766 25.787 5.4694C25.5501 5.24667 25.5393 4.87495 25.7614 4.6387C25.9839 4.40245 26.3559 4.39099 26.5924 4.61343C28.1583 6.08589 29.0205 8.04702 29.0205 10.1354Z" fill="#FF559C"/>
<path d="M3.57628e-05 10.1357C3.57628e-05 13.4259 1.35966 16.5172 3.82826 18.8403C4.06481 19.0628 4.43682 19.0513 4.65926 18.8151C4.88229 18.5788 4.87054 18.2068 4.63428 17.9844C2.40399 15.886 1.17571 13.0986 1.17571 10.136C1.17571 7.17319 2.40399 4.38576 4.63458 2.28711C4.87083 2.06467 4.88229 1.69266 4.65955 1.45641C4.43711 1.22016 4.0651 1.2087 3.82856 1.43114C1.35996 3.75399 3.57628e-05 6.84526 3.57628e-05 10.1357Z" fill="#FF559C"/>
<path d="M5.46831 10.1354C5.46831 12.2232 6.33016 14.184 7.89518 15.6568C8.13173 15.8792 8.50374 15.8677 8.72618 15.6315C8.94921 15.3949 8.93745 15.0232 8.7012 14.8008C7.37449 13.5525 6.64398 11.8958 6.64398 10.1357C6.64398 8.37495 7.37478 6.71766 8.70179 5.4694C8.93863 5.24667 8.9495 4.87495 8.72735 4.6387C8.50491 4.40245 8.1329 4.39099 7.89636 4.61343C6.33045 6.08589 5.46831 8.04702 5.46831 10.1354Z" fill="#FF559C"/>
<path d="M18.1699 7.85174C18.7116 7.85174 19.1549 7.40851 19.1549 6.86679C19.1549 6.32506 18.7116 5.88184 18.1699 5.88184C17.6282 5.88184 17.1849 6.32506 17.1849 6.86679C17.1849 7.40851 17.6282 7.85174 18.1699 7.85174ZM16.594 13.7615L16.8895 12.5303L17.9237 13.5152V15.9776C17.9237 16.2238 18.1207 16.4701 18.4161 16.4701C18.7116 16.4701 18.9086 16.2238 18.9086 15.9776V13.2197C18.9086 12.9242 18.8101 12.678 18.6131 12.5303L17.8744 11.8408L18.1699 10.3634C18.7116 10.9543 19.4503 11.3976 20.3368 11.5453C20.6323 11.5946 20.8785 11.3483 20.8785 11.0528C20.8785 10.8066 20.6815 10.6096 20.4353 10.5604C19.6966 10.4126 19.0564 10.0186 18.7609 9.42766L18.2684 8.6397C18.0714 8.34422 17.7759 8.14723 17.4312 8.14723C17.2834 8.14723 17.1849 8.19647 17.0372 8.19647L15.0673 9.03368C14.6733 9.13218 14.4763 9.47691 14.4763 9.87089V11.0528C14.4763 11.3483 14.6733 11.5453 14.9688 11.5453C15.2643 11.5453 15.4613 11.3483 15.4613 11.0528V9.87089L16.3477 9.52616L15.5598 13.5152L13.5899 13.1212C13.3436 13.072 13.0481 13.2197 12.9989 13.5152C12.9989 13.7615 13.1466 14.0077 13.3929 14.1062L15.4613 14.5002C15.9538 14.5987 16.4955 14.2539 16.594 13.7615Z" fill="#FF559C"/>
<path d="M18.8353 1.66699H16.8353C16.559 1.66699 16.3353 1.89066 16.3353 2.16699C16.3353 2.44332 16.559 2.66699 16.8353 2.66699H18.8353C19.1117 2.66699 19.3353 2.44332 19.3353 2.16699C19.3353 1.89066 19.1117 1.66699 18.8353 1.66699Z" fill="#FF559C"/>
<path d="M21.0007 0H13.0007C11.8981 0 11.0007 0.897344 11.0007 2V18C11.0007 19.1027 11.8981 20 13.0007 20H21.0007C22.1034 20 23.0007 19.1027 23.0007 18V2C23.0007 0.897344 22.1034 0 21.0007 0ZM22.0007 18C22.0007 18.5523 21.5531 19 21.0007 19H13.0007C12.4484 19 12.0007 18.5523 12.0007 18V2C12.0007 1.44766 12.4484 1 13.0007 1H21.0007C21.5531 1 22.0007 1.44766 22.0007 2V18Z" fill="#FF559C"/>
<path d="M15.1606 2.66699C15.4368 2.66699 15.6606 2.44313 15.6606 2.16699C15.6606 1.89085 15.4368 1.66699 15.1606 1.66699C14.8845 1.66699 14.6606 1.89085 14.6606 2.16699C14.6606 2.44313 14.8845 2.66699 15.1606 2.66699Z" fill="#FF559C"/>
</svg>
