<svg width="87" height="83" viewBox="0 0 87 83" fill="none" xmlns="http://www.w3.org/2000/svg">
<path d="M53.2374 3.30217C72.29 16.1476 94.2826 36.1132 84.4929 55.2855C74.7031 74.4578 66.383 85.862 42.893 82.376C19.4029 78.8899 -3.3149 60.9803 0.401214 39.3619C4.11733 17.7435 34.1841 -9.54063 53.2374 3.30217Z" fill="#F7FAFF"/>
<path d="M28.5371 19C26.8527 19 25.4746 20.3781 25.4746 22.0625V64.9375C25.4746 66.6219 26.8527 68 28.5371 68H59.1621C60.8465 68 62.2246 66.6219 62.2246 64.9375V31.25L49.9746 19H28.5371Z" fill="#D9E3F1"/>
<path d="M51.6825 41.0348C51.2179 41.0348 50.8418 40.6529 50.8418 40.1823V38.8525C50.8418 38.3818 51.2179 38 51.6825 38C52.1466 38 52.5231 38.3818 52.5231 38.8525V40.1823C52.5231 40.6529 52.1466 41.0348 51.6825 41.0348Z" fill="#011C42"/>
<path d="M36.9715 41.0348C36.5074 41.0348 36.1309 40.6529 36.1309 40.1823V38.8525C36.1309 38.3818 36.5074 38 36.9715 38C37.4361 38 37.8122 38.3818 37.8122 38.8525V40.1823C37.8122 40.6529 37.4361 41.0348 36.9715 41.0348Z" fill="#011C42"/>
<path d="M52.3356 43.5497H51.0243C50.5601 43.5497 50.1836 43.1679 50.1836 42.6972C50.1836 42.2266 50.5601 41.8447 51.0243 41.8447H52.3356C52.7997 41.8447 53.1763 42.2266 53.1763 42.6972C53.1763 43.1679 52.7997 43.5497 52.3356 43.5497V43.5497Z" fill="white"/>
<path d="M37.6266 43.5497H36.3153C35.8512 43.5497 35.4746 43.1679 35.4746 42.6972C35.4746 42.2266 35.8512 41.8447 36.3153 41.8447H37.6266C38.0907 41.8447 38.4673 42.2266 38.4673 42.6972C38.4673 43.1679 38.0907 43.5497 37.6266 43.5497Z" fill="white"/>
<path d="M44.0184 40.6406C44.0184 40.6406 44.0185 40.6406 44.0184 40.6406C43.1016 40.6406 42.2396 40.991 41.5913 41.6271C41.3602 41.8538 41.3602 42.2215 41.5913 42.4483C41.7069 42.5617 41.8583 42.6184 42.0098 42.6184C42.1613 42.6184 42.3127 42.5617 42.4282 42.4483C42.853 42.0315 43.4177 41.802 44.0184 41.802C44.6191 41.802 45.1838 42.0316 45.6086 42.4483C45.8397 42.675 46.2144 42.675 46.4455 42.4483C46.6767 42.2216 46.6767 41.8539 46.4455 41.6271C45.7972 40.991 44.9353 40.6406 44.0184 40.6406Z" fill="#011C42"/>
<path d="M53.0371 31.25H62.2246L49.9746 19V28.1875C49.9746 29.8719 51.3527 31.25 53.0371 31.25Z" fill="#BACADE"/>
<path d="M62.2246 40.4375L53.0371 31.25H62.2246V40.4375Z" fill="#CFDEF1"/>
</svg>
