<svg width="25" height="25" viewBox="0 0 25 25" fill="none" xmlns="http://www.w3.org/2000/svg">
<path d="M24.25 12.5C24.25 18.9893 18.9893 24.25 12.5 24.25C6.01065 24.25 0.75 18.9893 0.75 12.5C0.75 6.01065 6.01065 0.75 12.5 0.75C18.9893 0.75 24.25 6.01065 24.25 12.5Z" fill="white" stroke="#B9BDC7" stroke-width="1.5"/>
<path d="M16.5333 11.5734L10.9861 7.7707C10.73 7.59496 10.4719 7.50195 10.2573 7.50195C9.84252 7.50195 9.58594 7.83529 9.58594 8.39326V16.6119C9.58594 17.1693 9.8422 17.502 10.256 17.502C10.4709 17.502 10.7249 17.4089 10.9816 17.2326L16.5314 13.4301C16.8883 13.1851 17.0859 12.8555 17.0859 12.5015C17.086 12.1478 16.8906 11.8182 16.5333 11.5734Z" fill="#B9BDC7"/>
</svg>
