<svg width="25" height="25" viewBox="0 0 25 25" fill="none" xmlns="http://www.w3.org/2000/svg">
<path d="M24.25 12.5C24.25 18.9893 18.9893 24.25 12.5 24.25C6.01065 24.25 0.75 18.9893 0.75 12.5C0.75 6.01065 6.01065 0.75 12.5 0.75C18.9893 0.75 24.25 6.01065 24.25 12.5Z" fill="#2A9D8F" stroke="#2A9D8F" stroke-width="1.5"/>
<path d="M16.5348 11.5734L10.9876 7.7707C10.7314 7.59496 10.4733 7.50195 10.2588 7.50195C9.84399 7.50195 9.5874 7.83529 9.5874 8.39326V16.6119C9.5874 17.1693 9.84366 17.502 10.2575 17.502C10.4723 17.502 10.7263 17.4089 10.9831 17.2326L16.5328 13.4301C16.8898 13.1851 17.0874 12.8555 17.0874 12.5015C17.0875 12.1478 16.8921 11.8182 16.5348 11.5734Z" fill="white"/>
</svg>
