<svg width="34" height="34" viewBox="0 0 34 34" fill="none" xmlns="http://www.w3.org/2000/svg">
<rect width="34" height="34" rx="10" fill="#F5F7FA"/>
<g clip-path="url(#clip0_2217_2229)">
<path d="M18.6382 18.6384C18.426 18.8661 18.17 19.0488 17.8857 19.1755C17.6013 19.3022 17.2943 19.3704 16.9831 19.3758C16.6718 19.3813 16.3626 19.3241 16.074 19.2075C15.7853 19.0909 15.5231 18.9174 15.303 18.6972C15.0828 18.4771 14.9093 18.2149 14.7927 17.9262C14.6761 17.6376 14.6189 17.3284 14.6244 17.0171C14.6298 16.7059 14.698 16.3989 14.8247 16.1145C14.9514 15.8302 15.1341 15.5742 15.3618 15.362M21.59 21.5902C20.2691 22.5971 18.6607 23.1549 17 23.182C11.5909 23.182 8.5 17.0002 8.5 17.0002C9.46119 15.2089 10.7943 13.6439 12.41 12.4102L21.59 21.5902ZM15.3773 11.0038C15.9092 10.8793 16.4537 10.8171 17 10.8184C22.4091 10.8184 25.5 17.0002 25.5 17.0002C25.0309 17.8777 24.4715 18.7039 23.8309 19.4652L15.3773 11.0038Z" stroke="#7F8391" stroke-width="2" stroke-linecap="round" stroke-linejoin="round"/>
<path d="M8.5 8.5L25.5 25.5" stroke="#7F8391" stroke-width="2" stroke-linecap="round" stroke-linejoin="round"/>
</g>
<defs>
<clipPath id="clip0_2217_2229">
<rect width="18.5455" height="18.5455" fill="white" transform="translate(7.72754 7.72754)"/>
</clipPath>
</defs>
</svg>
