<svg width="17" height="14" viewBox="0 0 17 14" fill="none" xmlns="http://www.w3.org/2000/svg">
<path d="M15.5906 1.7669C14.9982 0.967351 14.1613 0.395567 13.2145 0.143398C12.2677 -0.108771 11.2658 -0.0266871 10.3699 0.376464C9.56797 0.731948 8.85276 1.33129 8.27273 2.12666C7.69269 1.32935 6.97749 0.730003 6.17558 0.376464C5.27963 -0.0266871 4.27777 -0.108771 3.33094 0.143398C2.38411 0.395567 1.54727 0.967351 0.954866 1.7669C0.330152 2.60777 0 3.65866 0 4.80562C0 6.45625 0.958273 8.26711 2.84794 10.19C4.38776 11.7562 6.20739 13.0389 7.15468 13.6639C7.48845 13.8834 7.87644 14 8.27273 14C8.66901 14 9.057 13.8834 9.39078 13.6639C10.3373 13.0389 12.1577 11.7562 13.6975 10.19C15.5872 8.26789 16.5455 6.45625 16.5455 4.80562C16.5455 3.65866 16.2153 2.60777 15.5906 1.7669Z" fill="#FF559C"/>
</svg>
