<svg width="24" height="24" viewBox="0 0 24 24" fill="none" xmlns="http://www.w3.org/2000/svg">
<path d="M22.0841 11.0841C21.5767 11.0841 21.1682 11.4927 21.1682 12C21.1682 17.0555 17.0555 21.1682 12 21.1682C6.94449 21.1682 2.83184 17.0555 2.83184 12C2.83184 6.94449 6.94449 2.83184 12 2.83184C14.7612 2.83184 17.3204 4.04857 19.0535 6.14082H15.8882C15.3808 6.14082 14.9722 6.54939 14.9722 7.05673C14.9722 7.56408 15.3808 7.97265 15.8882 7.97265H21.0335C21.5408 7.97265 21.9494 7.56408 21.9494 7.05673V1.91592C21.9494 1.40857 21.5408 1 21.0335 1C20.5261 1 20.1176 1.40857 20.1176 1.91592V4.5649C18.0478 2.30653 15.1339 1 12 1C5.93428 1 1 5.93428 1 12C1 18.0657 5.93428 23 12 23C18.0657 23 23 18.0657 23 12C23 11.4927 22.5914 11.0841 22.0841 11.0841Z" fill="#2A9D8F" stroke="#2A9D8F" stroke-width="0.3"/>
</svg>
