<svg width="21" height="21" viewBox="0 0 21 21" fill="none" xmlns="http://www.w3.org/2000/svg">
<g id="Iconly/Light/Add User">
<g id="Add User">
<path id="Stroke 1" fill-rule="evenodd" clip-rule="evenodd" d="M8.33136 13.8134C4.37714 13.8134 1 14.411 1 16.8058C1 19.2005 4.35656 19.8198 8.33136 19.8198C12.2866 19.8198 15.6627 19.2211 15.6627 16.8274C15.6627 14.4336 12.3072 13.8134 8.33136 13.8134Z" fill="#B21E91" stroke="#B21E91" stroke-width="1.5" stroke-linecap="round" stroke-linejoin="round"/>
<path id="Stroke 3" fill-rule="evenodd" clip-rule="evenodd" d="M8.33178 10.398C10.9271 10.398 13.0308 8.29433 13.0308 5.69899C13.0308 3.10364 10.9271 1 8.33178 1C5.73746 1 3.63382 3.10364 3.63382 5.69899C3.62456 8.28507 5.71277 10.3887 8.29989 10.398H8.33178Z" fill="#B21E91" stroke="#B21E91" stroke-width="1.5" stroke-linecap="round" stroke-linejoin="round"/>
<path id="Stroke 5" d="M16.4672 7.69295L19.384 10.6098" stroke="#B21E91" stroke-width="1.5" stroke-linecap="round" stroke-linejoin="round"/>
<path id="Stroke 7" d="M19.4129 7.66348L16.4379 10.6385" stroke="#B21E91" stroke-width="1.5" stroke-linecap="round" stroke-linejoin="round"/>
</g>
</g>
</svg>
