<svg width="22" height="19" viewBox="0 0 22 19" fill="none" xmlns="http://www.w3.org/2000/svg">
<path d="M9.10889 0.911696L0.244467 16.2642C0.0843442 16.5415 2.96353e-05 16.856 7.81086e-09 17.1761C-2.96197e-05 17.4963 0.0842268 17.8108 0.244298 18.0881C0.40437 18.3654 0.634615 18.5956 0.911887 18.7557C1.18916 18.9158 1.50369 19 1.82385 19H19.5513C19.8714 19 20.186 18.9158 20.4632 18.7557C20.7405 18.5956 20.9707 18.3654 21.1308 18.0881C21.2909 17.8108 21.3751 17.4963 21.3751 17.1761C21.3751 16.856 21.2908 16.5415 21.1306 16.2642L12.2672 0.911696C12.1071 0.634504 11.8769 0.404323 11.5997 0.244287C11.3225 0.0842517 11.0081 0 10.688 0C10.368 0 10.0535 0.0842517 9.77632 0.244287C9.49912 0.404323 9.26894 0.634504 9.10889 0.911696Z" fill="#FF5151"/>
<path d="M10.804 5.64648H10.5728C10.0035 5.64648 9.54199 6.10799 9.54199 6.67728V11.6043C9.54199 12.1736 10.0035 12.6351 10.5728 12.6351H10.804C11.3733 12.6351 11.8348 12.1736 11.8348 11.6043V6.67728C11.8348 6.10799 11.3733 5.64648 10.804 5.64648Z" fill="#FFF7ED"/>
<path d="M10.6884 16.5428C11.3216 16.5428 11.8348 16.0296 11.8348 15.3964C11.8348 14.7633 11.3216 14.25 10.6884 14.25C10.0553 14.25 9.54199 14.7633 9.54199 15.3964C9.54199 16.0296 10.0553 16.5428 10.6884 16.5428Z" fill="#FFF7ED"/>
</svg>
