<svg width="41" height="18" viewBox="0 0 41 18" fill="none" xmlns="http://www.w3.org/2000/svg">
<path d="M40.4884 8.86426C40.4884 12.1545 39.1287 15.2457 36.6601 17.5689C36.4236 17.7913 36.0516 17.7798 35.8291 17.5436C35.6061 17.3073 35.6179 16.9353 35.8541 16.7129C38.0844 14.6145 39.3127 11.8271 39.3127 8.86455C39.3127 5.9017 38.0844 3.11428 35.8538 1.01563C35.6176 0.793188 35.6061 0.421179 35.8288 0.184925C36.0513 -0.0513268 36.4233 -0.0627861 36.6598 0.159655C39.1284 2.48251 40.4884 5.57377 40.4884 8.86426Z" fill="#FF559C"/>
<path d="M35.0202 8.8639C35.0202 10.9517 34.1584 12.9125 32.5933 14.3853C32.3568 14.6077 31.9848 14.5963 31.7623 14.36C31.5393 14.1235 31.5511 13.7517 31.7873 13.5293C33.114 12.281 33.8445 10.6243 33.8445 8.8642C33.8445 7.10347 33.1137 5.44618 31.7867 4.19792C31.5499 3.97518 31.539 3.60347 31.7612 3.36722C31.9836 3.13096 32.3556 3.1195 32.5922 3.34194C34.1581 4.81441 35.0202 6.77554 35.0202 8.8639Z" fill="#FF559C"/>
<path d="M-8.63075e-05 8.86426C-8.63075e-05 12.1545 1.35954 15.2457 3.82814 17.5689C4.06469 17.7913 4.4367 17.7798 4.65914 17.5436C4.88217 17.3073 4.87041 16.9353 4.63416 16.7129C2.40387 14.6145 1.17559 11.8271 1.17559 8.86455C1.17559 5.9017 2.40387 3.11428 4.63446 1.01563C4.87071 0.793188 4.88217 0.421179 4.65943 0.184925C4.43699 -0.0513268 4.06498 -0.0627861 3.82844 0.159655C1.35983 2.48251 -8.63075e-05 5.57377 -8.63075e-05 8.86426Z" fill="#FF559C"/>
<path d="M5.46806 8.8639C5.46806 10.9517 6.32991 12.9125 7.89494 14.3853C8.13148 14.6077 8.50349 14.5963 8.72593 14.36C8.94896 14.1235 8.93721 13.7517 8.70096 13.5293C7.37424 12.281 6.64374 10.6243 6.64374 8.8642C6.64374 7.10347 7.37453 5.44618 8.70154 4.19792C8.93838 3.97518 8.94926 3.60347 8.72711 3.36722C8.50467 3.13096 8.13266 3.1195 7.89611 3.34194C6.33021 4.81441 5.46806 6.77554 5.46806 8.8639Z" fill="#FF559C"/>
<path d="M14.369 16.7288C12.5163 16.7288 11.0005 15.213 11.0005 13.3603C11.0005 11.5075 12.5163 9.9917 14.369 9.9917C16.2217 9.9917 17.7376 11.5075 17.7376 13.3603C17.7376 15.213 16.2217 16.7288 14.369 16.7288ZM14.369 11.676C13.4427 11.676 12.6848 12.4339 12.6848 13.3603C12.6848 14.2866 13.4427 15.0445 14.369 15.0445C15.2954 15.0445 16.0533 14.2866 16.0533 13.3603C16.0533 12.4339 15.2954 11.676 14.369 11.676Z" fill="#FF559C"/>
<path d="M26.1532 16.7288C24.3005 16.7288 22.7847 15.213 22.7847 13.3603C22.7847 11.5075 24.3005 9.9917 26.1532 9.9917C28.0059 9.9917 29.5218 11.5075 29.5218 13.3603C29.5218 15.213 28.0059 16.7288 26.1532 16.7288ZM26.1532 11.676C25.2269 11.676 24.4689 12.4339 24.4689 13.3603C24.4689 14.2866 25.2269 15.0445 26.1532 15.0445C27.0796 15.0445 27.8375 14.2866 27.8375 13.3603C27.8375 12.4339 27.0796 11.676 26.1532 11.676Z" fill="#FF559C"/>
<path d="M20.265 15.0455C19.7598 15.0455 19.4229 14.7086 19.4229 14.2033V11.1716L17.1491 8.89784C16.9807 8.72942 16.8965 8.47677 16.8965 8.22413C16.8965 7.97149 17.0649 7.80306 17.2333 7.63464L21.444 4.26608C21.6125 4.09766 21.8651 4.09766 22.1177 4.09766C22.3704 4.09766 22.5388 4.26608 22.7072 4.43451L24.1389 6.62407H26.16C26.6653 6.62407 27.0021 6.96093 27.0021 7.46621C27.0021 7.97149 26.6653 8.30835 26.16 8.30835H23.6336C23.3809 8.30835 23.1283 8.13992 22.9599 7.97149L21.7809 6.203L19.0018 8.39256L20.8545 10.2453C21.023 10.4137 21.1072 10.5821 21.1072 10.8348V14.2033C21.1072 14.7086 20.7703 15.0455 20.265 15.0455Z" fill="#FF559C"/>
<path d="M24.4689 4.09707C25.3991 4.09707 26.1532 3.34299 26.1532 2.41279C26.1532 1.48259 25.3991 0.728516 24.4689 0.728516C23.5387 0.728516 22.7847 1.48259 22.7847 2.41279C22.7847 3.34299 23.5387 4.09707 24.4689 4.09707Z" fill="#FF559C"/>
</svg>
