<svg width="40" height="40" viewBox="0 0 40 40" fill="none" xmlns="http://www.w3.org/2000/svg">
<circle opacity="0.1" cx="20" cy="20" r="20" fill="#14C664"/>
<path d="M18.9902 26.3799L19.1719 26.5517L18.9902 26.3799C18.7555 26.628 18.451 26.75 18.149 26.75C17.8471 26.75 17.5425 26.628 17.3078 26.3799L12.606 21.4095L12.606 21.4095C12.1313 20.908 12.1313 20.0922 12.606 19.5908L12.606 19.5907C13.073 19.0969 13.8212 19.0968 14.2884 19.5907L17.9674 23.4798L18.149 23.6718L18.3307 23.4798L26.7118 14.6204L26.7119 14.6204C27.1788 14.1266 27.927 14.1265 28.3942 14.6204C28.8686 15.1219 28.8686 15.9375 28.3942 16.4393L18.9902 26.3799Z" fill="#5CBE54" stroke="#DEF2EB" stroke-width="0.5"/>
</svg>
