<svg width="26" height="26" viewBox="0 0 26 26" fill="none" xmlns="http://www.w3.org/2000/svg">
<circle cx="13" cy="13" r="12.25" stroke="#FF8C41" stroke-width="1.5"/>
<path d="M8.39508 12.4302C8.16236 12.4308 7.93457 12.4974 7.73808 12.6221C7.54158 12.7468 7.38441 12.9246 7.28475 13.1349C7.18509 13.3452 7.147 13.5794 7.17491 13.8105C7.20281 14.0415 7.29556 14.2599 7.44242 14.4405L10.5732 18.2757C10.6848 18.4143 10.8279 18.5243 10.9906 18.5965C11.1532 18.6687 11.3308 18.701 11.5085 18.6908C11.8885 18.6704 12.2315 18.4671 12.4503 18.1329L18.9537 7.65916C18.9548 7.65742 18.9559 7.65568 18.957 7.65397C19.018 7.56028 18.9982 7.37461 18.8723 7.25796C18.8377 7.22593 18.7969 7.20132 18.7524 7.18565C18.708 7.16998 18.6608 7.16358 18.6137 7.16684C18.5667 7.17011 18.5208 7.18296 18.4789 7.20462C18.437 7.22629 18.4 7.25629 18.3702 7.29279C18.3679 7.29566 18.3655 7.29849 18.363 7.30127L11.8042 14.7117C11.7793 14.7399 11.7489 14.7629 11.715 14.7793C11.6811 14.7956 11.6443 14.8051 11.6067 14.8072C11.5691 14.8092 11.5315 14.8037 11.496 14.7911C11.4605 14.7785 11.4279 14.7589 11.4001 14.7336L9.22333 12.7527C8.99725 12.5455 8.70177 12.4304 8.39508 12.4302V12.4302Z" fill="#FF8C41"/>
</svg>
