<svg width="15" height="20" viewBox="0 0 15 20" fill="none" xmlns="http://www.w3.org/2000/svg">
<path d="M9.7288 4.20537C10.6731 4.20537 11.4457 3.43275 11.4457 2.48843C11.4457 1.54411 10.6731 0.771484 9.7288 0.771484C8.78448 0.771484 8.01185 1.54411 8.01185 2.48843C8.01185 3.43275 8.78448 4.20537 9.7288 4.20537ZM6.98169 14.507L7.49677 12.3609L9.29956 14.0778V18.3702C9.29956 18.7994 9.64295 19.2286 10.158 19.2286C10.6731 19.2286 11.0165 18.7994 11.0165 18.3702V13.5627C11.0165 13.0476 10.8448 12.6184 10.5014 12.3609L9.21371 11.159L9.7288 8.58358C10.6731 9.61374 11.9608 10.3864 13.5061 10.6439C14.0212 10.7298 14.4504 10.3005 14.4504 9.78544C14.4504 9.3562 14.107 9.01281 13.6778 8.92696C12.3901 8.66942 11.274 7.98265 10.759 6.95248L9.90049 5.57893C9.5571 5.06384 9.04202 4.72045 8.44109 4.72045C8.18355 4.72045 8.01185 4.8063 7.75431 4.8063L4.32043 6.2657C3.63365 6.4374 3.29026 7.03833 3.29026 7.7251V9.78544C3.29026 10.3005 3.63365 10.6439 4.14873 10.6439C4.66381 10.6439 5.0072 10.3005 5.0072 9.78544V7.7251L6.55245 7.12417L5.1789 14.0778L1.74501 13.391C1.31577 13.3052 0.800691 13.5627 0.714844 14.0778C0.714844 14.507 0.972385 14.9363 1.40162 15.108L5.0072 15.7947C5.86567 15.9664 6.80999 15.3655 6.98169 14.507Z" fill="white"/>
</svg>
