<svg width="41" height="24" viewBox="0 0 41 24" fill="none" xmlns="http://www.w3.org/2000/svg">
<path d="M23.323 4.46512C24.5509 4.46512 25.5555 3.46047 25.5555 2.23256C25.5555 1.00465 24.5509 0 23.323 0C22.0951 0 21.0904 1.00465 21.0904 2.23256C21.0904 3.46047 22.0951 4.46512 23.323 4.46512ZM19.7509 17.8605L20.4207 15.0698L22.7648 17.3023V22.8837C22.7648 23.4419 23.2114 24 23.8811 24C24.5509 24 24.9974 23.4419 24.9974 22.8837V16.6326C24.9974 15.9628 24.7741 15.4047 24.3276 15.0698L22.6532 13.507L23.323 10.1581C24.5509 11.4977 26.2253 12.5023 28.2346 12.8372C28.9044 12.9488 29.4625 12.3907 29.4625 11.7209C29.4625 11.1628 29.016 10.7163 28.4579 10.6047C26.7834 10.2698 25.3323 9.37674 24.6625 8.03721L23.5462 6.25116C23.0997 5.5814 22.43 5.13488 21.6486 5.13488C21.3137 5.13488 21.0904 5.24651 20.7555 5.24651L16.2904 7.14419C15.3974 7.36744 14.9509 8.14884 14.9509 9.04186V11.7209C14.9509 12.3907 15.3974 12.8372 16.0672 12.8372C16.7369 12.8372 17.1834 12.3907 17.1834 11.7209V9.04186L19.1927 8.26046L17.4067 17.3023L12.9416 16.4093C12.3834 16.2977 11.7137 16.6326 11.6021 17.3023C11.6021 17.8605 11.9369 18.4186 12.4951 18.6419L17.1834 19.5349C18.2997 19.7581 19.5276 18.9767 19.7509 17.8605Z" fill="#FF559C"/>
<path d="M40.4886 12.1357C40.4886 15.4259 39.129 18.5172 36.6604 20.8403C36.4238 21.0628 36.0518 21.0513 35.8294 20.8151C35.6064 20.5788 35.6181 20.2068 35.8544 19.9844C38.0847 17.886 39.3129 15.0986 39.3129 12.136C39.3129 9.17319 38.0847 6.38576 35.8541 4.28711C35.6178 4.06467 35.6064 3.69266 35.8291 3.45641C36.0515 3.22016 36.4235 3.2087 36.6601 3.43114C39.1287 5.75399 40.4886 8.84526 40.4886 12.1357Z" fill="#FF559C"/>
<path d="M35.0202 12.1354C35.0202 14.2232 34.1584 16.184 32.5933 17.6568C32.3568 17.8792 31.9848 17.8677 31.7623 17.6315C31.5393 17.3949 31.5511 17.0232 31.7873 16.8008C33.114 15.5525 33.8445 13.8958 33.8445 12.1357C33.8445 10.375 33.1137 8.71766 31.7867 7.4694C31.5499 7.24667 31.539 6.87495 31.7612 6.6387C31.9836 6.40245 32.3556 6.39099 32.5922 6.61343C34.1581 8.08589 35.0202 10.047 35.0202 12.1354Z" fill="#FF559C"/>
<path d="M-8.63075e-05 12.1357C-8.63075e-05 15.4259 1.35954 18.5172 3.82814 20.8403C4.06469 21.0628 4.4367 21.0513 4.65914 20.8151C4.88217 20.5788 4.87041 20.2068 4.63416 19.9844C2.40387 17.886 1.17559 15.0986 1.17559 12.136C1.17559 9.17319 2.40387 6.38576 4.63446 4.28711C4.87071 4.06467 4.88217 3.69266 4.65943 3.45641C4.43699 3.22016 4.06498 3.2087 3.82844 3.43114C1.35983 5.75399 -8.63075e-05 8.84526 -8.63075e-05 12.1357Z" fill="#FF559C"/>
<path d="M5.46831 12.1354C5.46831 14.2232 6.33016 16.184 7.89518 17.6568C8.13173 17.8792 8.50374 17.8677 8.72618 17.6315C8.94921 17.3949 8.93745 17.0232 8.7012 16.8008C7.37449 15.5525 6.64398 13.8958 6.64398 12.1357C6.64398 10.375 7.37478 8.71766 8.70179 7.4694C8.93863 7.24667 8.9495 6.87495 8.72735 6.6387C8.50491 6.40245 8.1329 6.39099 7.89636 6.61343C6.33045 8.08589 5.46831 10.047 5.46831 12.1354Z" fill="#FF559C"/>
</svg>
