<svg width="41" height="24" viewBox="0 0 41 24" fill="none" xmlns="http://www.w3.org/2000/svg">
<path d="M23.3225 4.46512C24.5504 4.46512 25.555 3.46047 25.555 2.23256C25.555 1.00465 24.5504 0 23.3225 0C22.0946 0 21.0899 1.00465 21.0899 2.23256C21.0899 3.46047 22.0946 4.46512 23.3225 4.46512ZM19.7504 17.8605L20.4202 15.0698L22.7644 17.3023V22.8837C22.7644 23.4419 23.2109 24 23.8806 24C24.5504 24 24.9969 23.4419 24.9969 22.8837V16.6326C24.9969 15.9628 24.7737 15.4047 24.3271 15.0698L22.6527 13.507L23.3225 10.1581C24.5504 11.4977 26.2248 12.5023 28.2341 12.8372C28.9039 12.9488 29.462 12.3907 29.462 11.7209C29.462 11.1628 29.0155 10.7163 28.4574 10.6047C26.783 10.2698 25.3318 9.37674 24.662 8.03721L23.5457 6.25116C23.0992 5.5814 22.4295 5.13488 21.6481 5.13488C21.3132 5.13488 21.0899 5.24651 20.755 5.24651L16.2899 7.14419C15.3969 7.36744 14.9504 8.14884 14.9504 9.04186V11.7209C14.9504 12.3907 15.3969 12.8372 16.0667 12.8372C16.7364 12.8372 17.183 12.3907 17.183 11.7209V9.04186L19.1923 8.26046L17.4062 17.3023L12.9411 16.4093C12.383 16.2977 11.7132 16.6326 11.6016 17.3023C11.6016 17.8605 11.9364 18.4186 12.4946 18.6419L17.183 19.5349C18.2992 19.7581 19.5271 18.9767 19.7504 17.8605Z" fill="#FF559C"/>
<path d="M40.4884 12.1357C40.4884 15.4259 39.1287 18.5172 36.6601 20.8403C36.4236 21.0628 36.0516 21.0513 35.8291 20.8151C35.6061 20.5788 35.6179 20.2068 35.8541 19.9844C38.0844 17.886 39.3127 15.0986 39.3127 12.136C39.3127 9.17319 38.0844 6.38576 35.8538 4.28711C35.6176 4.06467 35.6061 3.69266 35.8288 3.45641C36.0513 3.22016 36.4233 3.2087 36.6598 3.43114C39.1284 5.75399 40.4884 8.84526 40.4884 12.1357Z" fill="#FF559C"/>
<path d="M35.0202 12.1354C35.0202 14.2232 34.1584 16.184 32.5933 17.6568C32.3568 17.8792 31.9848 17.8677 31.7623 17.6315C31.5393 17.3949 31.5511 17.0232 31.7873 16.8008C33.114 15.5525 33.8445 13.8958 33.8445 12.1357C33.8445 10.375 33.1137 8.71766 31.7867 7.4694C31.5499 7.24667 31.539 6.87495 31.7612 6.6387C31.9836 6.40245 32.3556 6.39099 32.5922 6.61343C34.1581 8.08589 35.0202 10.047 35.0202 12.1354Z" fill="#FF559C"/>
<path d="M-8.63075e-05 12.1357C-8.63075e-05 15.4259 1.35954 18.5172 3.82814 20.8403C4.06469 21.0628 4.4367 21.0513 4.65914 20.8151C4.88217 20.5788 4.87041 20.2068 4.63416 19.9844C2.40387 17.886 1.17559 15.0986 1.17559 12.136C1.17559 9.17319 2.40387 6.38576 4.63446 4.28711C4.87071 4.06467 4.88217 3.69266 4.65943 3.45641C4.43699 3.22016 4.06498 3.2087 3.82844 3.43114C1.35983 5.75399 -8.63075e-05 8.84526 -8.63075e-05 12.1357Z" fill="#FF559C"/>
<path d="M5.46806 12.1354C5.46806 14.2232 6.32991 16.184 7.89494 17.6568C8.13148 17.8792 8.50349 17.8677 8.72593 17.6315C8.94896 17.3949 8.93721 17.0232 8.70096 16.8008C7.37424 15.5525 6.64374 13.8958 6.64374 12.1357C6.64374 10.375 7.37453 8.71766 8.70154 7.4694C8.93838 7.24667 8.94926 6.87495 8.72711 6.6387C8.50467 6.40245 8.13266 6.39099 7.89611 6.61343C6.33021 8.08589 5.46806 10.047 5.46806 12.1354Z" fill="#FF559C"/>
</svg>
