<svg width="31" height="18" viewBox="0 0 31 18" fill="none" xmlns="http://www.w3.org/2000/svg">
<path d="M17.488 3.34884C18.4089 3.34884 19.1624 2.59535 19.1624 1.67442C19.1624 0.753488 18.4089 0 17.488 0C16.567 0 15.8135 0.753488 15.8135 1.67442C15.8135 2.59535 16.567 3.34884 17.488 3.34884ZM14.8089 13.3953L15.3112 11.3023L17.0694 12.9767V17.1628C17.0694 17.5814 17.4042 18 17.9066 18C18.4089 18 18.7438 17.5814 18.7438 17.1628V12.4744C18.7438 11.9721 18.5763 11.5535 18.2415 11.3023L16.9856 10.1302L17.488 7.6186C18.4089 8.62325 19.6647 9.37674 21.1717 9.62791C21.674 9.71163 22.0926 9.29302 22.0926 8.7907C22.0926 8.37209 21.7577 8.03721 21.3391 7.95349C20.0833 7.70233 18.9949 7.03256 18.4926 6.02791L17.6554 4.68837C17.3205 4.18605 16.8182 3.85116 16.2321 3.85116C15.981 3.85116 15.8135 3.93488 15.5624 3.93488L12.2135 5.35814C11.5438 5.52558 11.2089 6.11163 11.2089 6.78139V8.7907C11.2089 9.29302 11.5438 9.62791 12.0461 9.62791C12.5484 9.62791 12.8833 9.29302 12.8833 8.7907V6.78139L14.3903 6.19535L13.0508 12.9767L9.70192 12.307C9.28331 12.2233 8.78099 12.4744 8.69727 12.9767C8.69727 13.3953 8.94843 13.814 9.36703 13.9814L12.8833 14.6512C13.7205 14.8186 14.6415 14.2326 14.8089 13.3953Z" fill="#FF559C"/>
<path d="M30.3626 9.10181C30.3626 11.5695 29.3429 13.8879 27.4914 15.6303C27.314 15.7971 27.035 15.7885 26.8682 15.6113C26.7009 15.4341 26.7097 15.1551 26.8869 14.9883C28.5596 13.4145 29.4809 11.3239 29.4809 9.10203C29.4809 6.87989 28.5596 4.78932 26.8867 3.21534C26.7095 3.04851 26.7009 2.7695 26.868 2.59231C27.0348 2.41512 27.3138 2.40652 27.4912 2.57336C29.3427 4.3155 30.3626 6.63394 30.3626 9.10181Z" fill="#FF559C"/>
<path d="M26.2642 9.10276C26.2642 10.6686 25.6178 12.1392 24.444 13.2438C24.2666 13.4106 23.9876 13.402 23.8208 13.2248C23.6535 13.0474 23.6623 12.7686 23.8395 12.6018C24.8346 11.6656 25.3824 10.4231 25.3824 9.10298C25.3824 7.78244 24.8343 6.53947 23.8391 5.60327C23.6614 5.43622 23.6533 5.15744 23.8199 4.98025C23.9867 4.80306 24.2657 4.79446 24.4432 4.96129C25.6176 6.06564 26.2642 7.53649 26.2642 9.10276Z" fill="#FF559C"/>
<path d="M0.000667572 9.10181C0.000667572 11.5695 1.02039 13.8879 2.87184 15.6303C3.04925 15.7971 3.32826 15.7885 3.49509 15.6113C3.66236 15.4341 3.65354 15.1551 3.47635 14.9883C1.80363 13.4145 0.882426 11.3239 0.882426 9.10203C0.882426 6.87989 1.80363 4.78932 3.47657 3.21534C3.65376 3.04851 3.66236 2.7695 3.49531 2.59231C3.32848 2.41512 3.04947 2.40652 2.87206 2.57336C1.02061 4.3155 0.000667572 6.63394 0.000667572 9.10181Z" fill="#FF559C"/>
<path d="M4.09909 9.10276C4.09909 10.6686 4.74548 12.1392 5.91925 13.2438C6.09666 13.4106 6.37567 13.402 6.5425 13.2248C6.70977 13.0474 6.70095 12.7686 6.52376 12.6018C5.52873 11.6656 4.98085 10.4231 4.98085 9.10298C4.98085 7.78244 5.52895 6.53947 6.5242 5.60327C6.70183 5.43622 6.70999 5.15744 6.54338 4.98025C6.37655 4.80306 6.09754 4.79446 5.92013 4.96129C4.7457 6.06564 4.09909 7.53649 4.09909 9.10276Z" fill="#FF559C"/>
</svg>
