<svg width="16" height="16" viewBox="0 0 16 16" fill="none" xmlns="http://www.w3.org/2000/svg">
<path d="M16 8C16 12.4182 12.4182 16 8 16C3.58178 16 0 12.4182 0 8C0 3.58178 3.58178 0 8 0C12.4182 0 16 3.58178 16 8Z" fill="#FFCC4D"/>
<path d="M10.4373 12.835C10.4324 12.8154 9.92843 10.8888 7.99954 10.8888C6.07065 10.8888 5.56666 12.8154 5.56177 12.835C5.53821 12.9297 5.58132 13.0266 5.66488 13.0768C5.74843 13.1266 5.85732 13.115 5.92977 13.0501C5.93377 13.0466 6.37999 12.6666 7.99954 12.6666C9.5951 12.6666 10.0515 13.0354 10.0689 13.0501C10.1111 13.0901 10.1662 13.111 10.2218 13.111C10.2591 13.111 10.2969 13.1017 10.3311 13.0826C10.4182 13.0328 10.4618 12.9319 10.4373 12.835ZM6.97866 7.82122C6.97288 7.82522 6.41777 8.22211 5.33288 8.22211C4.24754 8.22211 3.69288 7.82523 3.68843 7.82211C3.60221 7.75723 3.48132 7.76345 3.40221 7.83856C3.32354 7.91278 3.30977 8.03322 3.37021 8.12345C3.39732 8.16345 4.04354 9.111 5.33288 9.111C6.62177 9.111 7.26843 8.16345 7.29554 8.123C7.3551 8.03323 7.34177 7.91411 7.26399 7.83945C7.18577 7.76434 7.06443 7.75767 6.97866 7.82122ZM12.5973 7.83989C12.5195 7.76478 12.3987 7.75722 12.3115 7.82122C12.3062 7.82522 11.7507 8.22211 10.6662 8.22211C9.58132 8.22211 9.02621 7.82523 9.02177 7.82211C8.93599 7.75723 8.81466 7.76345 8.73554 7.83856C8.65688 7.91278 8.64354 8.03322 8.70354 8.12345C8.73065 8.16345 9.37688 9.111 10.6662 9.111C11.9551 9.111 12.6018 8.16345 12.6289 8.123C12.6889 8.03367 12.6751 7.91456 12.5973 7.83989ZM13.7778 7.111C13.6422 7.111 13.5093 7.04967 13.4218 6.93322C12.248 5.36834 10.728 5.33367 10.6635 5.33322C10.4191 5.33056 10.2218 5.13056 10.2231 4.88656C10.2244 4.64167 10.4218 4.44434 10.6662 4.44434C10.748 4.44434 12.6827 4.46656 14.1329 6.39989C14.2804 6.59634 14.2404 6.875 14.044 7.02211C13.964 7.08211 13.8707 7.111 13.7778 7.111ZM2.22132 7.111C2.12888 7.111 2.0351 7.08211 1.9551 7.02211C1.75866 6.875 1.7191 6.59634 1.86621 6.39989C3.31599 4.46656 5.2511 4.44434 5.33288 4.44434C5.57821 4.44434 5.77732 4.64345 5.77732 4.88878C5.77732 5.13367 5.57954 5.33234 5.33466 5.33322C5.26532 5.33411 3.74843 5.37145 2.57688 6.93322C2.49021 7.04967 2.35643 7.111 2.22132 7.111Z" fill="#664500"/>
<path d="M10.2227 10.2217C12.9831 10.2217 16.0004 11.9995 16.0004 14.2217C16.0004 15.9995 14.6671 15.9995 14.6671 15.9995C11.1115 15.9995 14.2227 11.9995 10.2227 10.2217Z" fill="#5DADEC"/>
</svg>
