<svg width="16" height="17" viewBox="0 0 16 17" fill="none" xmlns="http://www.w3.org/2000/svg">
<path d="M15.0765 1.04423C14.7014 0.637803 14.1462 0.486388 13.6284 0.645772L1.556 4.35145C1.00977 4.51163 0.622615 4.97146 0.518323 5.5556C0.411779 6.1501 0.783931 6.90479 1.27013 7.22037L5.04493 9.6693C5.43208 9.92033 5.93179 9.85738 6.25217 9.51629L10.5747 4.92523C10.7923 4.68616 11.1524 4.68616 11.37 4.92523C11.5876 5.15634 11.5876 5.53089 11.37 5.76997L7.03999 10.3618C6.71886 10.7021 6.65884 11.2321 6.89518 11.6433L9.20163 15.6677C9.47174 16.1459 9.93693 16.4168 10.4471 16.4168C10.5072 16.4168 10.5747 16.4168 10.6347 16.4089C11.22 16.3292 11.6851 15.9068 11.8577 15.3091L15.4367 2.58229C15.5942 2.04038 15.4517 1.45066 15.0765 1.04423Z" fill="#FF8C41"/>
</svg>
