<svg width="35" height="18" viewBox="0 0 35 18" fill="none" xmlns="http://www.w3.org/2000/svg">
<path d="M34.4887 8.86426C34.4887 12.1545 33.1291 15.2457 30.6605 17.5689C30.424 17.7913 30.0519 17.7798 29.8295 17.5436C29.6065 17.3073 29.6182 16.9353 29.8545 16.7129C32.0848 14.6145 33.3131 11.8271 33.3131 8.86455C33.3131 5.9017 32.0848 3.11428 29.8542 1.01563C29.6179 0.793188 29.6065 0.421179 29.8292 0.184925C30.0517 -0.0513268 30.4237 -0.0627861 30.6602 0.159655C33.1288 2.48251 34.4887 5.57377 34.4887 8.86426Z" fill="#A6B0C0"/>
<path d="M29.0205 8.8639C29.0205 10.9517 28.1586 12.9125 26.5936 14.3853C26.357 14.6077 25.985 14.5963 25.7626 14.36C25.5396 14.1235 25.5513 13.7517 25.7876 13.5293C27.1143 12.281 27.8448 10.6243 27.8448 8.8642C27.8448 7.10347 27.114 5.44618 25.787 4.19792C25.5501 3.97518 25.5393 3.60347 25.7614 3.36722C25.9839 3.13096 26.3559 3.1195 26.5924 3.34194C28.1583 4.81441 29.0205 6.77554 29.0205 8.8639Z" fill="#A6B0C0"/>
<path d="M3.57628e-05 8.86426C3.57628e-05 12.1545 1.35966 15.2457 3.82826 17.5689C4.06481 17.7913 4.43682 17.7798 4.65926 17.5436C4.88229 17.3073 4.87054 16.9353 4.63428 16.7129C2.40399 14.6145 1.17571 11.8271 1.17571 8.86455C1.17571 5.9017 2.40399 3.11428 4.63458 1.01563C4.87083 0.793188 4.88229 0.421179 4.65955 0.184925C4.43711 -0.0513268 4.0651 -0.0627861 3.82856 0.159655C1.35996 2.48251 3.57628e-05 5.57377 3.57628e-05 8.86426Z" fill="#A6B0C0"/>
<path d="M5.46831 8.8639C5.46831 10.9517 6.33016 12.9125 7.89518 14.3853C8.13173 14.6077 8.50374 14.5963 8.72618 14.36C8.94921 14.1235 8.93745 13.7517 8.7012 13.5293C7.37449 12.281 6.64398 10.6243 6.64398 8.8642C6.64398 7.10347 7.37478 5.44618 8.70179 4.19792C8.93863 3.97518 8.9495 3.60347 8.72735 3.36722C8.50491 3.13096 8.1329 3.1195 7.89636 3.34194C6.33045 4.81441 5.46831 6.77554 5.46831 8.8639Z" fill="#A6B0C0"/>
<circle cx="17.0007" cy="8.72852" r="5.4" stroke="#A6B0C0" stroke-width="1.2"/>
</svg>
