<svg width="20" height="23" viewBox="0 0 20 23" fill="none" xmlns="http://www.w3.org/2000/svg">
<path d="M15.8404 15.1256C14.8343 15.1256 13.9278 15.5601 13.2986 16.2512L7.63956 12.7463C7.79065 12.3596 7.87444 11.9395 7.87444 11.5C7.87444 11.0604 7.79065 10.6403 7.63956 10.2537L13.2986 6.7486C13.9278 7.43977 14.8343 7.87444 15.8404 7.87444C17.7358 7.87444 19.2777 6.33251 19.2777 4.43714C19.2777 2.54177 17.7358 1 15.8404 1C13.9451 1 12.4031 2.54193 12.4031 4.4373C12.4031 4.87678 12.4871 5.29687 12.638 5.68363L6.97915 9.18855C6.34998 8.49737 5.44347 8.0627 4.4373 8.0627C2.54193 8.0627 1 9.60479 1 11.5C1 13.3954 2.54193 14.9373 4.4373 14.9373C5.44347 14.9373 6.34998 14.5028 6.97915 13.8115L12.638 17.3164C12.4871 17.7031 12.4031 18.1232 12.4031 18.5629C12.4031 20.4581 13.9451 22 15.8404 22C17.7358 22 19.2777 20.4581 19.2777 18.5629C19.2777 16.6675 17.7358 15.1256 15.8404 15.1256ZM13.6565 4.4373C13.6565 3.23311 14.6363 2.25338 15.8404 2.25338C17.0446 2.25338 18.0244 3.23311 18.0244 4.4373C18.0244 5.64149 17.0446 6.62122 15.8404 6.62122C14.6363 6.62122 13.6565 5.64149 13.6565 4.4373ZM4.4373 13.6839C3.23295 13.6839 2.25322 12.7042 2.25322 11.5C2.25322 10.2958 3.23295 9.31608 4.4373 9.31608C5.64149 9.31608 6.62106 10.2958 6.62106 11.5C6.62106 12.7042 5.64149 13.6839 4.4373 13.6839ZM13.6565 18.5627C13.6565 17.3585 14.6363 16.3788 15.8404 16.3788C17.0446 16.3788 18.0244 17.3585 18.0244 18.5627C18.0244 19.7669 17.0446 20.7466 15.8404 20.7466C14.6363 20.7466 13.6565 19.7669 13.6565 18.5627Z" fill="#8D4FD0" stroke="#8D4FD0" stroke-width="0.2"/>
</svg>
