<svg width="15" height="17" viewBox="0 0 15 17" fill="none" xmlns="http://www.w3.org/2000/svg">
<path d="M13.5709 13.1132C13.4937 12.8963 13.2773 12.75 13.0333 12.75H11.8999V7.96875C11.8999 5.62534 9.86625 3.71875 7.36663 3.71875C4.867 3.71875 2.83331 5.62534 2.83331 7.96875V12.75H1.69998C1.45593 12.75 1.23957 12.8963 1.16236 13.1132L0.0290308 16.3007C-0.0285211 16.4625 0.000520426 16.641 0.107053 16.7795C0.213586 16.918 0.384577 17 0.566654 17H14.1666C14.3487 17 14.5197 16.918 14.6262 16.7795C14.7327 16.641 14.7618 16.4625 14.7042 16.3006L13.5709 13.1132ZM3.96664 7.96875C3.96664 6.21104 5.49178 4.78125 7.36663 4.78125C9.24147 4.78125 10.7666 6.21108 10.7666 7.96875V12.75H3.96664V7.96875ZM1.35272 15.9375L2.10837 13.8125H3.39998H11.3333H12.6249L13.3805 15.9375H1.35272Z" fill="#FF8D41"/>
<path d="M7.36647 2.65625C7.67941 2.65625 7.93313 2.41838 7.93313 2.125V0.53125C7.93313 0.237867 7.67941 0 7.36647 0C7.05353 0 6.7998 0.237867 6.7998 0.53125V2.125C6.7998 2.41838 7.05353 2.65625 7.36647 2.65625Z" fill="#FF8D41"/>
<path d="M11.7747 4.36832C11.9197 4.36832 12.0646 4.31642 12.1753 4.21266L13.3773 3.08582C13.5986 2.8783 13.5986 2.54211 13.3773 2.33459C13.1559 2.12708 12.7973 2.12708 12.576 2.33459L11.374 3.46144C11.1527 3.66896 11.1527 4.00514 11.374 4.21266C11.4847 4.31642 11.6297 4.36832 11.7747 4.36832Z" fill="#FF8D41"/>
<path d="M2.55838 4.21266C2.66905 4.31642 2.81405 4.36832 2.95904 4.36832C3.10404 4.36832 3.24903 4.31642 3.35971 4.21266C3.58106 4.00514 3.58106 3.66896 3.35971 3.46144L2.15774 2.33459C1.93639 2.12708 1.5778 2.12708 1.35644 2.33459C1.13509 2.54211 1.13509 2.8783 1.35644 3.08582L2.55838 4.21266Z" fill="#FF8D41"/>
<path d="M5.10059 7.96875V12.2188H7.36724V5.84375C6.11538 5.84375 5.10059 6.79512 5.10059 7.96875Z" fill="#FF8D41"/>
</svg>
