<svg width="35" height="18" viewBox="0 0 35 18" fill="none" xmlns="http://www.w3.org/2000/svg">
<path d="M34.4887 9.13575C34.4887 12.4259 33.1291 15.5172 30.6605 17.8403C30.424 18.0628 30.0519 18.0513 29.8295 17.8151C29.6065 17.5788 29.6182 17.2068 29.8545 16.9844C32.0848 14.886 33.3131 12.0986 33.3131 9.13604C33.3131 6.17319 32.0848 3.38576 29.8542 1.28711C29.6179 1.06467 29.6065 0.692663 29.8292 0.456409C30.0517 0.220158 30.4237 0.208698 30.6602 0.431139C33.1288 2.75399 34.4887 5.84526 34.4887 9.13575Z" fill="#FF559C"/>
<path d="M29.0205 9.13539C29.0205 11.2232 28.1586 13.184 26.5936 14.6568C26.357 14.8792 25.985 14.8677 25.7626 14.6315C25.5396 14.3949 25.5513 14.0232 25.7876 13.8008C27.1143 12.5525 27.8448 10.8958 27.8448 9.13568C27.8448 7.37495 27.114 5.71766 25.787 4.4694C25.5501 4.24667 25.5393 3.87495 25.7614 3.6387C25.9839 3.40245 26.3559 3.39099 26.5924 3.61343C28.1583 5.08589 29.0205 7.04702 29.0205 9.13539Z" fill="#FF559C"/>
<path d="M3.57628e-05 9.13575C3.57628e-05 12.4259 1.35966 15.5172 3.82826 17.8403C4.06481 18.0628 4.43682 18.0513 4.65926 17.8151C4.88229 17.5788 4.87054 17.2068 4.63428 16.9844C2.40399 14.886 1.17571 12.0986 1.17571 9.13604C1.17571 6.17319 2.40399 3.38576 4.63458 1.28711C4.87083 1.06467 4.88229 0.692663 4.65955 0.456409C4.43711 0.220158 4.0651 0.208698 3.82856 0.431139C1.35996 2.75399 3.57628e-05 5.84526 3.57628e-05 9.13575Z" fill="#FF559C"/>
<path d="M5.46831 9.13539C5.46831 11.2232 6.33016 13.184 7.89518 14.6568C8.13173 14.8792 8.50374 14.8677 8.72618 14.6315C8.94921 14.3949 8.93745 14.0232 8.7012 13.8008C7.37449 12.5525 6.64398 10.8958 6.64398 9.13568C6.64398 7.37495 7.37478 5.71766 8.70179 4.4694C8.93863 4.24667 8.9495 3.87495 8.72735 3.6387C8.50491 3.40245 8.1329 3.39099 7.89636 3.61343C6.33045 5.08589 5.46831 7.04702 5.46831 9.13539Z" fill="#FF559C"/>
<rect x="11.8257" y="2.7" width="10.35" height="12.6" rx="1.05" stroke="#FF559C" stroke-width="0.9"/>
<rect x="14.1882" width="5.625" height="1.125" rx="0.5625" fill="#FF559C"/>
<rect x="14.1882" y="16.875" width="5.625" height="1.125" rx="0.5625" fill="#FF559C"/>
<rect x="11.8248" y="2.7" width="10.35" height="12.6" rx="1.05" stroke="#FF559C" stroke-width="0.9"/>
<circle cx="16.9998" cy="9" r="2.875" stroke="#FF559C"/>
<rect x="14.1873" width="5.625" height="1.125" rx="0.5625" fill="#FF559C"/>
<rect x="14.1873" y="16.875" width="5.625" height="1.125" rx="0.5625" fill="#FF559C"/>
</svg>
