<svg width="20" height="16" viewBox="0 0 20 16" fill="none" xmlns="http://www.w3.org/2000/svg">
<path d="M9.72095 13.7744C9.72095 14.1167 9.52318 14.4277 9.21367 14.5728C9.09401 14.6294 8.96578 14.6568 8.83838 14.6568C8.63664 14.6568 8.43678 14.5874 8.27535 14.4536L3.45152 10.4563H0.882356C0.395128 10.4568 0 10.0614 0 9.5742V6.05877C0 5.57133 0.395128 5.1762 0.882356 5.1762H3.45173L8.27556 1.17898C8.53911 0.960529 8.90459 0.913957 9.21388 1.06015C9.52318 1.20529 9.72116 1.51646 9.72116 1.85855L9.72095 13.7744ZM13.1119 12.3956C13.0904 12.3971 13.0697 12.3979 13.0484 12.3979C12.8154 12.3979 12.5906 12.3058 12.4246 12.1396L12.3066 12.0212C11.9971 11.7123 11.9608 11.223 12.2214 10.8717C12.8822 9.98081 13.2309 8.9247 13.2309 7.8168C13.2309 6.62515 12.835 5.50743 12.0857 4.58435C11.8004 4.23349 11.8267 3.72392 12.1464 3.40439L12.2642 3.2864C12.4405 3.11013 12.6767 3.01407 12.9323 3.02931C13.1812 3.04184 13.4137 3.159 13.5716 3.35197C14.611 4.62382 15.16 6.16799 15.16 7.81701C15.16 9.35283 14.6745 10.8147 13.7556 12.044C13.6021 12.2488 13.3673 12.3775 13.1119 12.3956ZM16.76 15.1225C16.6004 15.3111 16.3696 15.4243 16.1226 15.4347C16.1105 15.4351 16.0981 15.4355 16.0856 15.4355C15.8519 15.4355 15.6276 15.3432 15.4616 15.1772L15.3457 15.0613C15.0218 14.7376 14.9998 14.2199 15.2943 13.8694C16.7174 12.177 17.5013 10.0276 17.5013 7.8168C17.5013 5.51724 16.662 3.30352 15.1385 1.5835C14.8296 1.23432 14.8453 0.705742 15.174 0.375772L15.2897 0.259865C15.4614 0.0873619 15.6844 -0.00766097 15.9403 0.000483851C16.1831 0.00737562 16.4129 0.11472 16.5743 0.296412C18.4159 2.36979 19.4302 5.04088 19.4302 7.8168C19.4306 10.4877 18.4823 13.0823 16.76 15.1225Z" fill="#8D4FD0"/>
</svg>
