<svg width="26" height="26" viewBox="0 0 26 26" fill="none" xmlns="http://www.w3.org/2000/svg">
<circle cx="13" cy="13" r="12.5" stroke="#4CAFF6"/>
<path d="M11.825 10.1318C11.6869 10.1318 11.575 10.2437 11.575 10.3818C11.575 10.5199 11.6869 10.6318 11.825 10.6318V10.1318ZM13 10.3818V10.6318C13.0459 10.6318 13.0909 10.6192 13.1301 10.5953L13 10.3818ZM13.9158 9.82379L13.7857 9.61028L13.7857 9.6103L13.9158 9.82379ZM14.7421 10.1264L14.5049 10.2054L14.5049 10.2055L14.7421 10.1264ZM16.0375 14.0127L15.8004 14.0918C15.8089 14.1173 15.8214 14.1412 15.8375 14.1627L16.0375 14.0127ZM17.86 16.4427L17.66 16.5927L17.86 16.4427ZM17.05 18.0627V17.8127V18.0627ZM14.8394 18.0627V17.8127H14.8393L14.8394 18.0627ZM13.1919 17.345L13.375 17.1748L13.375 17.1748L13.1919 17.345ZM8.38755 12.1739L8.20422 12.3439L8.20439 12.3441L8.38755 12.1739ZM8.52648 9.7456L8.36382 9.55576L8.36374 9.55582L8.52648 9.7456ZM10.4519 8.09579L10.2893 7.90592L10.2893 7.90594L10.4519 8.09579ZM11.528 8.59079H11.778V8.59074L11.528 8.59079ZM11.528 10.3818H11.278C11.278 10.5199 11.3899 10.6318 11.528 10.6318V10.3818ZM11.825 10.6318H13V10.1318H11.825V10.6318ZM13.1301 10.5953L14.0459 10.0373L13.7857 9.6103L12.87 10.1683L13.1301 10.5953ZM14.0459 10.0373C14.086 10.0128 14.1311 9.99777 14.1778 9.99317L14.1289 9.49557C14.0073 9.50753 13.89 9.54674 13.7857 9.61028L14.0459 10.0373ZM14.1778 9.99317C14.2246 9.98857 14.2718 9.99457 14.3159 10.0107L14.4879 9.54123C14.3732 9.49922 14.2505 9.48362 14.1289 9.49557L14.1778 9.99317ZM14.3159 10.0107C14.36 10.0269 14.3999 10.0528 14.4326 10.0865L14.7914 9.73819C14.7063 9.65056 14.6025 9.58323 14.4879 9.54123L14.3159 10.0107ZM14.4326 10.0865C14.4654 10.1202 14.4901 10.1608 14.5049 10.2054L14.9793 10.0474C14.9407 9.93152 14.8765 9.82583 14.7914 9.73819L14.4326 10.0865ZM14.5049 10.2055L15.8004 14.0918L16.2747 13.9337L14.9793 10.0474L14.5049 10.2055ZM15.8375 14.1627L17.66 16.5927L18.06 16.2927L16.2375 13.8627L15.8375 14.1627ZM17.66 16.5927C17.745 16.706 17.7967 16.8407 17.8095 16.9817L18.3074 16.9368C18.2864 16.7033 18.2007 16.4803 18.06 16.2927L17.66 16.5927ZM17.8095 16.9817C17.8222 17.1228 17.7954 17.2646 17.732 17.3912L18.1793 17.6148C18.2841 17.4051 18.3285 17.1704 18.3074 16.9368L17.8095 16.9817ZM17.732 17.3912C17.6687 17.5179 17.5714 17.6244 17.4509 17.6988L17.7138 18.1242C17.9132 18.0009 18.0744 17.8245 18.1793 17.6148L17.732 17.3912ZM17.4509 17.6988C17.3305 17.7733 17.1917 17.8127 17.05 17.8127V18.3127C17.2845 18.3127 17.5143 18.2474 17.7138 18.1242L17.4509 17.6988ZM17.05 17.8127H14.8394V18.3127H17.05V17.8127ZM14.8393 17.8127C14.5644 17.8129 14.2925 17.7563 14.0406 17.6466L13.8409 18.105C14.1559 18.2422 14.4959 18.3129 14.8396 18.3127L14.8393 17.8127ZM14.0406 17.6466C13.7886 17.5368 13.5621 17.3762 13.375 17.1748L13.0087 17.5151C13.2425 17.7669 13.5259 17.9677 13.8409 18.105L14.0406 17.6466ZM13.375 17.1748L8.5707 12.0037L8.20439 12.3441L13.0087 17.5151L13.375 17.1748ZM8.57087 12.0039C8.43934 11.8621 8.33779 11.6951 8.27232 11.5131L7.80182 11.6823C7.89007 11.9276 8.02693 12.1527 8.20422 12.3439L8.57087 12.0039ZM8.27232 11.5131C8.20685 11.331 8.1788 11.1376 8.18985 10.9445L7.69066 10.9159C7.67577 11.1762 7.71358 11.4369 7.80182 11.6823L8.27232 11.5131ZM8.18985 10.9445C8.2009 10.7513 8.25082 10.5624 8.33663 10.389L7.8885 10.1672C7.77285 10.4009 7.70556 10.6556 7.69066 10.9159L8.18985 10.9445ZM8.33663 10.389C8.42244 10.2156 8.54237 10.0613 8.68923 9.93537L8.36374 9.55582C8.1658 9.72557 8.00416 9.93352 7.8885 10.1672L8.33663 10.389ZM8.68915 9.93544L10.6146 8.28563L10.2893 7.90594L8.36382 9.55576L8.68915 9.93544ZM10.6146 8.28565C10.6729 8.23565 10.7444 8.20344 10.8205 8.19282L10.7514 7.69761C10.5806 7.72144 10.4203 7.79373 10.2893 7.90592L10.6146 8.28565ZM10.8205 8.19282C10.8966 8.1822 10.9742 8.19363 11.044 8.22575L11.253 7.7715C11.0963 7.69943 10.9223 7.67379 10.7514 7.69761L10.8205 8.19282ZM11.044 8.22575C11.1138 8.25787 11.173 8.30933 11.2145 8.37403L11.6354 8.10425C11.5424 7.95905 11.4097 7.84358 11.253 7.7715L11.044 8.22575ZM11.2145 8.37403C11.2559 8.43874 11.278 8.51398 11.278 8.59083L11.778 8.59074C11.778 8.41828 11.7285 8.24945 11.6354 8.10425L11.2145 8.37403ZM11.278 8.59079V10.3818H11.778V8.59079H11.278ZM11.528 10.6318H13V10.1318H11.528V10.6318Z" fill="#4CAFF6"/>
<path d="M7.9375 15.8438C7.79943 15.8438 7.6875 15.9557 7.6875 16.0938C7.6875 16.2318 7.79943 16.3438 7.9375 16.3438V15.8438ZM7.9375 16.3438H9.0625V15.8438H7.9375V16.3438Z" fill="#4CAFF6"/>
<path d="M7.9375 17.8125C7.79943 17.8125 7.6875 17.9244 7.6875 18.0625C7.6875 18.2006 7.79943 18.3125 7.9375 18.3125V17.8125ZM10.75 17.8125H7.9375V18.3125H10.75V17.8125Z" fill="#4CAFF6"/>
<path d="M14.9814 16.3753V16.1253L14.9807 16.1253L14.9814 16.3753ZM13.7473 15.8386L13.9306 15.6686L13.9305 15.6685L13.7473 15.8386ZM8.48886 9.8084C8.39491 9.70722 8.23673 9.70137 8.13555 9.79532C8.03437 9.88927 8.02852 10.0475 8.12247 10.1486L8.48886 9.8084ZM17.8074 16.1253H14.9814V16.6253H17.8074V16.1253ZM14.9807 16.1253C14.7836 16.1258 14.5886 16.0855 14.4078 16.0069L14.2085 16.4655C14.4525 16.5716 14.716 16.626 14.9821 16.6253L14.9807 16.1253ZM14.4078 16.0069C14.2271 15.9283 14.0646 15.8132 13.9306 15.6686L13.564 16.0086C13.745 16.2038 13.9644 16.3593 14.2085 16.4655L14.4078 16.0069ZM13.9305 15.6685L8.48886 9.8084L8.12247 10.1486L13.5641 16.0088L13.9305 15.6685Z" fill="#4CAFF6"/>
<path d="M13.5203 13.316C13.3843 13.3396 13.2931 13.469 13.3167 13.605C13.3402 13.7411 13.4696 13.8323 13.6056 13.8087L13.5203 13.316ZM13.6056 13.8087L15.8022 13.4285L15.7169 12.9358L13.5203 13.316L13.6056 13.8087Z" fill="#4CAFF6"/>
<path d="M12.9574 11.9098C12.8213 11.9334 12.7301 12.0627 12.7537 12.1988C12.7772 12.3348 12.9066 12.4261 13.0426 12.4025L12.9574 11.9098ZM13.0426 12.4025L15.3286 12.0071L15.2434 11.5144L12.9574 11.9098L13.0426 12.4025Z" fill="#4CAFF6"/>
</svg>
