<svg width="220" height="214" viewBox="0 0 220 214" fill="none" xmlns="http://www.w3.org/2000/svg">
<path d="M220 107C220 166.094 172.094 214 113 214C53.9055 214 6 166.094 6 107C6 47.9055 53.9055 0 113 0C172.094 0 220 47.9055 220 107ZM27.4185 107C27.4185 154.265 65.7347 192.581 113 192.581C160.265 192.581 198.581 154.265 198.581 107C198.581 59.7347 160.265 21.4185 113 21.4185C65.7347 21.4185 27.4185 59.7347 27.4185 107Z" fill="#DB558D"/>
<circle cx="105.5" cy="106.5" r="84.5" fill="#FF559C"/>
<path fill-rule="evenodd" clip-rule="evenodd" d="M109.742 23.2088C65.7599 26.1688 31.0008 62.7831 31.0008 107.516C31.0008 149.714 61.9327 184.688 102.36 191C56.7252 190.126 20.0008 152.859 20.0008 107.016C20.0008 60.6238 57.6088 23.0157 104.001 23.0157C105.93 23.0157 107.845 23.0808 109.742 23.2088Z" fill="#F84791"/>
<path d="M210 107C210 164.99 162.99 212 105 212C47.0101 212 0 164.99 0 107C0 49.0101 47.0101 2 105 2C162.99 2 210 49.0101 210 107ZM21.0182 107C21.0182 153.382 58.6181 190.982 105 190.982C151.382 190.982 188.982 153.382 188.982 107C188.982 60.6181 151.382 23.0182 105 23.0182C58.6181 23.0182 21.0182 60.6181 21.0182 107Z" fill="#FF93C0"/>
<path d="M146 127L106.5 61H132.5L159 107L146 127Z" fill="white"/>
<path d="M78 152L53 106L65 85.5L104.5 152H78Z" fill="white"/>
<path d="M84 91.5L72 74L79.5 61H102L84 91.5Z" fill="white"/>
<path d="M127 121.5L139 139L132.5 152L109 152L127 121.5Z" fill="white"/>
</svg>
