<svg width="25" height="24" viewBox="0 0 25 24" fill="none" xmlns="http://www.w3.org/2000/svg">
<path d="M4.49271 21.1891C5.73434 19.6016 8.11043 16.2468 8.11043 14.7132C8.11043 12.7479 6.49078 11.1548 4.49271 11.1548C2.49465 11.1548 0.875 12.7479 0.875 14.7132C0.875 16.248 3.25109 19.6021 4.49271 21.1891ZM4.49271 12.7363C5.38066 12.7363 6.10059 13.4444 6.10059 14.3178C6.10059 15.1912 5.38066 15.8993 4.49271 15.8993C3.60477 15.8993 2.88484 15.1912 2.88484 14.3178C2.88484 13.4444 3.60477 12.7363 4.49271 12.7363Z" fill="#8D4FD0"/>
<path d="M20.9753 7.37462C21.8524 6.31377 23.3871 4.25116 23.3871 3.24727C23.3871 1.93719 22.3072 0.875 20.9753 0.875C19.6434 0.875 18.5635 1.93719 18.5635 3.24727C18.5635 4.25039 20.0977 6.31377 20.9753 7.37462ZM20.9753 1.66576C21.6412 1.66576 22.1812 2.19685 22.1812 2.85189C22.1812 3.50693 21.6412 4.03803 20.9753 4.03803C20.3093 4.03803 19.7694 3.50693 19.7694 2.85189C19.7694 2.19685 20.3093 1.66576 20.9753 1.66576Z" fill="#8D4FD0"/>
<path d="M20.5729 9.96849H20.9748C21.1968 9.96849 21.3768 9.79146 21.3768 9.57311C21.3768 9.35477 21.1968 9.17773 20.9748 9.17773H20.5729C20.3509 9.17773 20.1709 9.35477 20.1709 9.57311C20.1709 9.79146 20.3509 9.96849 20.5729 9.96849Z" fill="#8D4FD0"/>
<path d="M15.3475 12.341H16.1603C16.3823 12.341 16.5622 12.164 16.5622 11.9457C16.5622 11.7273 16.3823 11.5503 16.1603 11.5503H15.341C15.2348 11.5505 15.133 11.5924 15.0582 11.6665C14.9834 11.7406 14.9416 11.8412 14.9424 11.9457C14.9438 12.1646 15.1249 12.3412 15.3475 12.341Z" fill="#8D4FD0"/>
<path d="M19.8535 11.9457C19.8535 12.164 20.0335 12.341 20.2555 12.341H21.0743C21.2963 12.341 21.4763 12.164 21.4763 11.9457C21.4763 11.7273 21.2963 11.5503 21.0743 11.5503H20.2555C20.0335 11.5503 19.8535 11.7273 19.8535 11.9457Z" fill="#8D4FD0"/>
<path d="M18.1158 9.96849H18.9349C19.1569 9.96849 19.3369 9.79146 19.3369 9.57311C19.3369 9.35477 19.1569 9.17773 18.9349 9.17773H18.1158C17.8937 9.17773 17.7139 9.35477 17.7139 9.57311C17.7139 9.79146 17.8937 9.96849 18.1158 9.96849Z" fill="#8D4FD0"/>
<path d="M7.39309 23.0161H6.57384C6.35186 23.0161 6.17188 23.1931 6.17188 23.4115C6.17188 23.6298 6.35186 23.8069 6.57384 23.8069H7.39309C7.61507 23.8069 7.79506 23.6298 7.79506 23.4115C7.79506 23.1931 7.61507 23.0161 7.39309 23.0161Z" fill="#8D4FD0"/>
<path d="M14.1656 11.3999C14.1937 11.3999 14.2216 11.397 14.2488 11.3912C14.4659 11.3462 14.6049 11.1369 14.5595 10.9234C14.5482 10.8694 14.5425 10.8145 14.5423 10.7593C14.5421 10.6342 14.5721 10.5111 14.6298 10.3995C14.7305 10.2049 14.6518 9.96684 14.4538 9.8678C14.2559 9.76877 14.0139 9.84618 13.9132 10.041C13.7466 10.3628 13.6971 10.7313 13.7729 11.0848C13.8116 11.2678 13.9754 11.3995 14.1656 11.3999Z" fill="#8D4FD0"/>
<path d="M17.7985 12.341H18.6177C18.8397 12.341 19.0197 12.164 19.0197 11.9457C19.0197 11.7273 18.8397 11.5503 18.6177 11.5503H17.7985C17.5765 11.5503 17.3965 11.7273 17.3965 11.9457C17.3965 12.164 17.5765 12.341 17.7985 12.341Z" fill="#8D4FD0"/>
<path d="M15.6578 9.96849H16.4771C16.6991 9.96849 16.879 9.79146 16.879 9.57311C16.879 9.35477 16.6991 9.17773 16.4771 9.17773H15.6578C15.4358 9.17773 15.2559 9.35477 15.2559 9.57311C15.2559 9.79146 15.4358 9.96849 15.6578 9.96849Z" fill="#8D4FD0"/>
<path d="M11.6866 16.839C11.7184 16.8471 11.7514 16.851 11.7842 16.851C11.9687 16.8506 12.1292 16.727 12.1738 16.5512C12.2258 16.3479 12.3238 16.1587 12.4604 15.9977C12.5569 15.8899 12.5864 15.7394 12.5377 15.6042C12.489 15.4689 12.3695 15.3702 12.2256 15.3463C12.0819 15.3225 11.9361 15.3772 11.845 15.4892C11.6297 15.7419 11.4755 16.0392 11.394 16.3591C11.3679 16.4608 11.3842 16.5687 11.4391 16.6587C11.4939 16.7488 11.583 16.8137 11.6866 16.839Z" fill="#8D4FD0"/>
<path d="M19.6264 22.9994C19.5401 23.0106 19.4531 23.0162 19.366 23.016H18.86C18.6378 23.016 18.458 23.193 18.458 23.4114C18.458 23.6297 18.6378 23.8068 18.86 23.8068H19.366C19.4869 23.8068 19.6078 23.799 19.7277 23.7838C19.9479 23.7558 20.1034 23.5575 20.0751 23.3409C20.0466 23.1243 19.8451 22.9714 19.6249 22.9994H19.6264Z" fill="#8D4FD0"/>
<path d="M20.1872 18.39C19.9212 18.3109 19.6447 18.2709 19.3667 18.2715H19.2613C19.0394 18.2715 18.8594 18.4485 18.8594 18.6669C18.8594 18.8852 19.0394 19.0622 19.2613 19.0622H19.3667C19.5654 19.0622 19.763 19.091 19.9532 19.1476C19.9911 19.1592 20.0305 19.1649 20.0702 19.1649C20.2694 19.1651 20.4388 19.0217 20.4682 18.8279C20.4975 18.6339 20.3779 18.4481 20.1872 18.3914V18.39Z" fill="#8D4FD0"/>
<path d="M19.3292 15.5041C19.5512 15.5041 19.7312 15.3271 19.7312 15.1088C19.7312 14.8904 19.5512 14.7134 19.3292 14.7134H18.5104C18.2884 14.7134 18.1084 14.8904 18.1084 15.1088C18.1084 15.3271 18.2884 15.5041 18.5104 15.5041H19.3292Z" fill="#8D4FD0"/>
<path d="M21.7322 21.6517C21.53 21.5621 21.2921 21.6505 21.2009 21.8494C21.1072 22.0538 20.9787 22.2411 20.8211 22.403C20.7178 22.5044 20.6786 22.6527 20.7184 22.7905C20.7583 22.9285 20.8709 23.0345 21.0126 23.0674C21.1546 23.1004 21.3035 23.0552 21.4019 22.9494C21.6229 22.7227 21.803 22.4604 21.9342 22.1741C22.0248 21.975 21.9345 21.7412 21.7322 21.6517Z" fill="#8D4FD0"/>
<path d="M23.8368 13.5968C23.7345 13.5671 23.6244 13.5785 23.5306 13.6287C23.437 13.6788 23.3673 13.7636 23.3371 13.8642C23.278 14.058 23.1701 14.2341 23.0232 14.3758C22.8645 14.5287 22.8617 14.7791 23.0172 14.9353C23.1726 15.0914 23.4272 15.0939 23.586 14.9412C23.8309 14.7051 24.0107 14.4117 24.1084 14.0883C24.1389 13.9877 24.1271 13.8794 24.0763 13.7872C24.0252 13.6951 23.9391 13.6265 23.8368 13.5968Z" fill="#8D4FD0"/>
<path d="M23.3793 12.8667C23.5381 12.8669 23.6819 12.775 23.7467 12.6326C23.8113 12.4901 23.7848 12.3235 23.6788 12.2072C23.4493 11.9563 23.1589 11.7669 22.8346 11.6568C22.6246 11.5858 22.3959 11.6958 22.3237 11.9024C22.2515 12.109 22.3634 12.3339 22.5734 12.4049C22.7681 12.4708 22.9424 12.5845 23.0798 12.7354C23.1561 12.819 23.265 12.8667 23.3793 12.8667Z" fill="#8D4FD0"/>
<path d="M17.6241 18.2715H16.8053C16.5833 18.2715 16.4033 18.4485 16.4033 18.6669C16.4033 18.8852 16.5833 19.0622 16.8053 19.0622H17.6241C17.8461 19.0622 18.0261 18.8852 18.0261 18.6669C18.0261 18.4485 17.8461 18.2715 17.6241 18.2715Z" fill="#8D4FD0"/>
<path d="M21.7857 14.7134H20.9664C20.7444 14.7134 20.5645 14.8904 20.5645 15.1088C20.5645 15.3271 20.7444 15.5041 20.9664 15.5041H21.7857C22.0077 15.5041 22.1876 15.3271 22.1876 15.1088C22.1876 14.8904 22.0077 14.7134 21.7857 14.7134Z" fill="#8D4FD0"/>
<path d="M9.85168 23.0161H9.03283C8.81084 23.0161 8.63086 23.1931 8.63086 23.4115C8.63086 23.6298 8.81084 23.8069 9.03283 23.8069H9.85168C10.0737 23.8069 10.2536 23.6298 10.2536 23.4115C10.2536 23.1931 10.0737 23.0161 9.85168 23.0161Z" fill="#8D4FD0"/>
<path d="M21.694 19.4855C21.5686 19.305 21.3181 19.2587 21.1344 19.3821C20.9509 19.5054 20.9038 19.7518 21.0292 19.9325C21.1576 20.1174 21.2528 20.3226 21.3105 20.5392C21.3419 20.6808 21.4494 20.7941 21.5909 20.8346C21.7323 20.8752 21.8848 20.8364 21.9886 20.7335C22.0922 20.6307 22.1305 20.4804 22.0883 20.3416C22.0078 20.0361 21.8746 19.7466 21.694 19.4855Z" fill="#8D4FD0"/>
<path d="M12.9159 18.1298C12.725 18.0362 12.5579 17.9018 12.4266 17.7364C12.2904 17.5638 12.0378 17.5327 11.8625 17.6667C11.6871 17.8005 11.6555 18.049 11.7915 18.2216C11.9974 18.4814 12.26 18.6924 12.5601 18.8388C12.7581 18.9297 12.9939 18.8482 13.0906 18.6553C13.1874 18.4627 13.1097 18.2291 12.9159 18.1298Z" fill="#8D4FD0"/>
<path d="M12.307 23.0161H11.4869C11.2649 23.0161 11.085 23.1931 11.085 23.4115C11.085 23.6298 11.2649 23.8069 11.4869 23.8069H12.307C12.5289 23.8069 12.7089 23.6298 12.7089 23.4115C12.7089 23.1931 12.5289 23.0161 12.307 23.0161Z" fill="#8D4FD0"/>
<path d="M17.2228 23.0161H16.4039C16.1819 23.0161 16.002 23.1931 16.002 23.4115C16.002 23.6298 16.1819 23.8069 16.4039 23.8069H17.2228C17.4448 23.8069 17.6247 23.6298 17.6247 23.4115C17.6247 23.1931 17.4448 23.0161 17.2228 23.0161Z" fill="#8D4FD0"/>
<path d="M14.4142 15.5041C14.6362 15.5041 14.8161 15.3271 14.8161 15.1088C14.8161 14.8904 14.6362 14.7134 14.4142 14.7134H13.5953C13.3733 14.7134 13.1934 14.8904 13.1934 15.1088C13.1934 15.3271 13.3733 15.5041 13.5953 15.5041H14.4142Z" fill="#8D4FD0"/>
<path d="M16.8751 15.5041C17.0971 15.5041 17.2771 15.3271 17.2771 15.1088C17.2771 14.8904 17.0971 14.7134 16.8751 14.7134H16.0543C15.8323 14.7134 15.6523 14.8904 15.6523 15.1088C15.6523 15.3271 15.8323 15.5041 16.0543 15.5041H16.8751Z" fill="#8D4FD0"/>
<path d="M15.1654 18.2715H14.3463C14.1243 18.2715 13.9443 18.4485 13.9443 18.6669C13.9443 18.8852 14.1243 19.0622 14.3463 19.0622H15.1654C15.3875 19.0622 15.5673 18.8852 15.5673 18.6669C15.5673 18.4485 15.3875 18.2715 15.1654 18.2715Z" fill="#8D4FD0"/>
<path d="M14.7661 23.0161H13.9469C13.7249 23.0161 13.5449 23.1931 13.5449 23.4115C13.5449 23.6298 13.7249 23.8069 13.9469 23.8069H14.7661C14.9881 23.8069 15.1681 23.6298 15.1681 23.4115C15.1681 23.1931 14.9881 23.0161 14.7661 23.0161Z" fill="#8D4FD0"/>
<path d="M4.89476 23.0161H4.49279C4.2708 23.0161 4.09082 23.1931 4.09082 23.4115C4.09082 23.6298 4.2708 23.8069 4.49279 23.8069H4.89476C5.11674 23.8069 5.29673 23.6298 5.29673 23.4115C5.29673 23.1931 5.11674 23.0161 4.89476 23.0161Z" fill="#8D4FD0"/>
</svg>
