<svg width="22" height="18" viewBox="0 0 22 18" fill="none" xmlns="http://www.w3.org/2000/svg">
<path d="M20.5913 2.27172C19.8089 1.24374 18.7036 0.508586 17.4531 0.184369C16.2025 -0.139849 14.8793 -0.0343119 13.696 0.484025C12.6369 0.941075 11.6923 1.71166 10.9262 2.73427C10.1601 1.70916 9.21552 0.938575 8.1564 0.484025C6.97307 -0.0343119 5.64986 -0.139849 4.39934 0.184369C3.14881 0.508586 2.04356 1.24374 1.26114 2.27172C0.436048 3.35284 0 4.70399 0 6.17865C0 8.30089 1.26564 10.6291 3.76142 13.1014C5.79514 15.1151 8.19841 16.7643 9.44954 17.5679C9.89038 17.8501 10.4028 18 10.9262 18C11.4496 18 11.962 17.8501 12.4029 17.5679C13.653 16.7643 16.0573 15.1151 18.091 13.1014C20.5868 10.6301 21.8524 8.30089 21.8524 6.17865C21.8524 4.70399 21.4164 3.35284 20.5913 2.27172Z" fill="#C5CCDA"/>
</svg>
