<svg width="16" height="18" viewBox="0 0 16 18" fill="none" xmlns="http://www.w3.org/2000/svg">
<path d="M7.9993 9.28187C10.5528 9.28187 12.6402 7.19448 12.6402 4.64094C12.6402 2.0874 10.5528 0 7.9993 0C5.44576 0 3.3584 2.0874 3.3584 4.64094C3.3584 7.19448 5.44579 9.28187 7.9993 9.28187Z" fill="#FF8D41"/>
<path d="M15.9658 12.9905C15.8442 12.6865 15.6821 12.4027 15.4997 12.1393C14.5674 10.7612 13.1286 9.84921 11.5073 9.62628C11.3047 9.60603 11.0817 9.64653 10.9196 9.76814C10.0684 10.3964 9.05512 10.7206 8.00126 10.7206C6.94739 10.7206 5.93411 10.3964 5.08293 9.76814C4.92078 9.64653 4.69785 9.58574 4.49521 9.62628C2.87392 9.84921 1.41478 10.7612 0.502813 12.1393C0.32042 12.4027 0.158276 12.7068 0.0367065 12.9905C-0.0240782 13.1121 -0.00382961 13.2539 0.0569551 13.3755C0.2191 13.6593 0.421741 13.943 0.604134 14.1862C0.887848 14.5713 1.19185 14.9158 1.53639 15.24C1.8201 15.5237 2.14435 15.7872 2.46864 16.0506C4.06964 17.2464 5.99493 17.8746 7.98101 17.8746C9.96708 17.8746 11.8924 17.2463 13.4934 16.0506C13.8176 15.8075 14.1419 15.5237 14.4256 15.24C14.7499 14.9158 15.0741 14.5712 15.3579 14.1862C15.5605 13.9227 15.743 13.6593 15.9051 13.3755C16.0063 13.2539 16.0266 13.112 15.9658 12.9905Z" fill="#FF8D41"/>
</svg>
