<svg width="27" height="22" viewBox="0 0 27 22" fill="none" xmlns="http://www.w3.org/2000/svg">
<path d="M13.0406 14.2582C12.5905 14.2582 12.2257 13.8933 12.2257 13.4433V7.73876C12.2257 7.28871 12.5905 6.92383 13.0406 6.92383C13.4907 6.92383 13.8556 7.28871 13.8556 7.73876V13.4433C13.8556 13.8934 13.4907 14.2582 13.0406 14.2582Z" fill="#FF4D57"/>
<path d="M25.7364 18.3496L15.591 1.44081C14.4399 -0.478409 11.6439 -0.482127 10.4905 1.44081L0.345105 18.3496C-0.614324 19.9487 0.539975 22 2.41197 22H23.6695C25.5418 22 26.6956 19.9484 25.7364 18.3496ZM23.6695 20.3701H2.41203C1.8048 20.3701 1.43248 19.7044 1.74276 19.188L11.8882 2.27917C12.4086 1.41162 13.6722 1.4106 14.1934 2.27917L24.3388 19.188C24.6487 19.7039 24.2772 20.3701 23.6695 20.3701Z" fill="#FF4D57"/>
<path d="M13.0456 17.518C13.7208 17.518 14.268 16.9708 14.268 16.2956C14.268 15.6205 13.7208 15.0732 13.0456 15.0732C12.3705 15.0732 11.8232 15.6205 11.8232 16.2956C11.8232 16.9708 12.3705 17.518 13.0456 17.518Z" fill="#FF4D57"/>
</svg>
