<svg width="33" height="33" viewBox="0 0 33 33" fill="none" xmlns="http://www.w3.org/2000/svg">
<path d="M0 7.78627C0 6.35286 1.16201 5.19085 2.59542 5.19085H12.9771C14.4105 5.19085 15.5725 6.35286 15.5725 7.78627C15.5725 9.21968 14.4105 10.3817 12.9771 10.3817H2.59542C1.16201 10.3817 0 9.21968 0 7.78627Z" fill="#4CAFF6"/>
<path d="M17.3893 2.59542C17.3893 1.16201 18.5513 0 19.9847 0H30.3664C31.7998 0 32.9618 1.16201 32.9618 2.59542C32.9618 4.02883 31.7998 5.19084 30.3664 5.19084H19.9847C18.5513 5.19084 17.3893 4.02883 17.3893 2.59542Z" fill="#4CAFF6"/>
<path d="M0 30.3664C0 28.933 1.16201 27.771 2.59542 27.771H25.1756C26.609 27.771 27.771 28.933 27.771 30.3664C27.771 31.7998 26.609 32.9618 25.1756 32.9618H2.59542C1.16201 32.9618 0 31.7998 0 30.3664Z" fill="#4CAFF6"/>
<path d="M2.59542 5.19085C4.02883 5.19085 5.19084 6.35286 5.19084 7.78627L5.19084 30.3664C5.19084 31.7998 4.02883 32.9618 2.59542 32.9618C1.16201 32.9618 0 31.7998 0 30.3664V7.78627C0 6.35286 1.16201 5.19085 2.59542 5.19085Z" fill="#4CAFF6"/>
<path d="M32.1266 0.797071C33.1402 1.81064 33.1402 3.45397 32.1266 4.46755L17.4447 19.1495C16.4311 20.163 14.7878 20.163 13.7742 19.1495C12.7606 18.1359 12.7606 16.4926 13.7742 15.479L28.4561 0.797071C29.4697 -0.216503 31.113 -0.216503 32.1266 0.797071Z" fill="#4CAFF6"/>
<path d="M25.1756 17.3893C26.609 17.3893 27.771 18.5513 27.771 19.9847V30.3664C27.771 31.7998 26.609 32.9618 25.1756 32.9618C23.7422 32.9618 22.5802 31.7998 22.5802 30.3664L22.5802 19.9847C22.5802 18.5513 23.7422 17.3893 25.1756 17.3893Z" fill="#4CAFF6"/>
<path d="M30.3664 0C31.7998 0 32.9618 1.16201 32.9618 2.59542V12.9771C32.9618 14.4105 31.7998 15.5725 30.3664 15.5725C28.933 15.5725 27.771 14.4105 27.771 12.9771L27.771 2.59542C27.771 1.16201 28.933 -6.26564e-08 30.3664 0Z" fill="#4CAFF6"/>
</svg>
