<svg width="91" height="71" viewBox="0 0 91 71" fill="none" xmlns="http://www.w3.org/2000/svg">
<g opacity="0.5">
<path opacity="0.9" d="M2.07378 18.847C2.66789 18.847 3.14951 18.3649 3.14951 17.7702C3.14951 17.1755 2.66789 16.6934 2.07378 16.6934C1.47967 16.6934 0.998047 17.1755 0.998047 17.7702C0.998047 18.3649 1.47967 18.847 2.07378 18.847Z" fill="#8D4FD0"/>
<path opacity="0.9" d="M89.1564 60.0722C89.8482 60.0722 90.409 59.5108 90.409 58.8183C90.409 58.1258 89.8482 57.5645 89.1564 57.5645C88.4646 57.5645 87.9038 58.1258 87.9038 58.8183C87.9038 59.5108 88.4646 60.0722 89.1564 60.0722Z" fill="#8D4FD0"/>
<path opacity="0.9" d="M5.87367 14.5433C6.14854 14.5433 6.37136 14.3202 6.37136 14.0451C6.37136 13.7699 6.14854 13.5469 5.87367 13.5469C5.5988 13.5469 5.37598 13.7699 5.37598 14.0451C5.37598 14.3202 5.5988 14.5433 5.87367 14.5433Z" fill="#8D4FD0"/>
<g opacity="0.8">
<path opacity="0.5" d="M11.7659 63.572C12.3434 63.572 12.8116 63.1033 12.8116 62.5252C12.8116 61.9471 12.3434 61.4785 11.7659 61.4785C11.1884 61.4785 10.7202 61.9471 10.7202 62.5252C10.7202 63.1033 11.1884 63.572 11.7659 63.572Z" stroke="#8D4FD0" stroke-width="0.8"/>
</g>
<path opacity="0.5" d="M85.1975 15.4963C85.9346 15.4963 86.5322 14.8981 86.5322 14.1602C86.5322 13.4224 85.9346 12.8242 85.1975 12.8242C84.4604 12.8242 83.8628 13.4224 83.8628 14.1602C83.8628 14.8981 84.4604 15.4963 85.1975 15.4963Z" stroke="#8D4FD0" stroke-width="0.8"/>
</g>
<path opacity="0.09" d="M53.911 2.79235C70.3422 13.6546 89.3088 30.5377 80.866 46.75C72.4232 62.9623 65.2479 72.6058 44.9898 69.658C24.7318 66.7102 5.13973 51.5656 8.34455 33.2849C11.5494 15.0041 37.4793 -8.06766 53.911 2.79235Z" fill="#8D4FD0"/>
<path d="M66.1033 28.4614C60.6469 23.005 53.3923 20 45.6759 20C37.9594 20 30.7048 23.005 25.2485 28.4614C24.912 28.7978 24.912 29.3435 25.2485 29.68C25.585 30.0164 26.1305 30.0164 26.4671 29.68C31.598 24.549 38.4198 21.7234 45.6759 21.7234C52.9319 21.7234 59.7537 24.549 64.8847 29.68C65.0529 29.8482 65.2734 29.9324 65.4939 29.9324C65.7144 29.9324 65.9349 29.8482 66.1033 29.68C66.4397 29.3435 66.4397 28.7978 66.1033 28.4614Z" fill="#8D4FD0" stroke="#8D4FD0" stroke-width="0.6"/>
<path d="M59.1554 35.3925C55.5532 31.7904 50.7639 29.8066 45.6697 29.8066C40.5755 29.8066 35.7863 31.7904 32.184 35.3925C31.8475 35.729 31.8475 36.2747 32.184 36.6111C32.3523 36.7793 32.5727 36.8635 32.7933 36.8635C33.0138 36.8635 33.2343 36.7793 33.4027 36.6111C36.6793 33.3345 41.0359 31.5299 45.6698 31.5299C50.3037 31.5299 54.6603 33.3344 57.9369 36.6111C58.2734 36.9475 58.8189 36.9475 59.1555 36.6111C59.4919 36.2747 59.4919 35.7291 59.1554 35.3925Z" fill="#8D4FD0" stroke="#8D4FD0" stroke-width="0.6"/>
<path d="M52.2098 40.9224C50.4618 39.1745 48.1378 38.2119 45.6659 38.2119C43.1939 38.2119 40.87 39.1745 39.122 40.9224C38.7855 41.2589 38.7855 41.8045 39.122 42.141C39.4586 42.4774 40.004 42.4774 40.3406 42.141C41.763 40.7186 43.6542 39.9352 45.6659 39.9352C47.6775 39.9352 49.5687 40.7186 50.9912 42.141C51.1594 42.3092 51.3799 42.3934 51.6005 42.3934C51.8211 42.3934 52.0415 42.3093 52.2099 42.141C52.5462 41.8045 52.5462 41.259 52.2098 40.9224Z" fill="#8D4FD0" stroke="#8D4FD0" stroke-width="0.6"/>
<path d="M46.1818 50.473C47.4402 50.473 48.4604 49.4529 48.4604 48.1945C48.4604 46.9361 47.4402 45.916 46.1818 45.916C44.9234 45.916 43.9033 46.9361 43.9033 48.1945C43.9033 49.4529 44.9234 50.473 46.1818 50.473Z" fill="#8D4FD0"/>
</svg>
