<svg width="253" height="164" viewBox="0 0 253 164" fill="none" xmlns="http://www.w3.org/2000/svg">
<path d="M9.78033 103.01C4.36397 103.01 0.00195312 107.434 0.00195312 112.851V139.447H6.45195V122.733H29.9366V116.231H6.50366V112.84C6.50366 111.021 8.0128 109.502 9.83203 109.502H36.4383V103H9.78033V103.01Z" fill="#011C42"/>
<path d="M48.0994 139.446V103.01H41.5977V139.446H48.0994Z" fill="#011C42"/>
<path d="M83.2393 103.01V126.195L59.8064 108.157L53.3047 103.165V139.446H59.8064V116.427L83.2393 134.454L89.7411 139.446V103.061L83.2393 103.01Z" fill="#011C42"/>
<path d="M124.9 103.01V121.233C124.9 127.693 119.638 132.944 113.188 132.944C106.738 132.944 101.467 127.683 101.467 121.233V103.01H94.9648V121.233C94.9648 131.28 103.131 139.446 113.188 139.446C123.246 139.446 131.401 131.28 131.401 121.233V103.01H124.9Z" fill="#011C42"/>
<path d="M136.613 103.01V109.511H151.56V139.446H158.062V109.511H172.998V103.01H136.613Z" fill="#011C42"/>
<path d="M212.72 113.057V112.851C212.72 107.434 208.296 103.021 202.89 103.021H188.099C182.682 103.021 178.32 107.445 178.32 112.851V113.057C178.32 115.145 178.941 117.068 180.036 118.629C180.398 119.197 180.822 119.724 181.287 120.19C183.054 121.905 185.453 122.949 188.109 122.949H201.237C203.996 122.949 206.291 125.192 206.291 127.952C206.291 130.712 203.996 132.945 201.237 132.945H189.835C187.075 132.945 184.832 130.702 184.832 127.952H178.331C178.331 134.299 183.478 139.447 189.835 139.447H201.237C207.593 139.447 212.741 134.299 212.741 127.952C212.741 125.192 211.749 122.639 210.147 120.655C209.992 120.5 209.888 120.345 209.733 120.19C207.655 117.905 204.637 116.448 201.247 116.448H188.119C186.3 116.448 184.791 114.939 184.791 113.109V112.902C184.791 111.083 186.3 109.574 188.119 109.574H202.911C204.73 109.574 206.239 111.083 206.239 112.913V113.119L212.741 113.068L212.72 113.057Z" fill="#011C42"/>
<path d="M252.392 113.057V112.851C252.392 107.434 247.968 103.021 242.562 103.021H227.771C222.354 103.021 217.992 107.445 217.992 112.851V113.057C217.992 115.145 218.612 117.068 219.708 118.629C220.07 119.197 220.494 119.724 220.959 120.19C222.726 121.905 225.124 122.949 227.781 122.949H240.908C243.668 122.949 245.963 125.192 245.963 127.952C245.963 130.712 243.668 132.945 240.908 132.945H229.507C226.747 132.945 224.504 130.702 224.504 127.952H218.003C218.003 134.299 223.15 139.447 229.507 139.447H240.908C247.265 139.447 252.413 134.299 252.413 127.952C252.413 125.192 251.421 122.639 249.808 120.655C249.653 120.5 249.55 120.345 249.395 120.19C247.317 117.905 244.299 116.448 240.908 116.448H227.781C225.962 116.448 224.453 114.939 224.453 113.109V112.902C224.453 111.083 225.962 109.574 227.781 109.574H242.573C244.392 109.574 245.901 111.083 245.901 112.913V113.119L252.403 113.068L252.392 113.057Z" fill="#011C42"/>
<path d="M1.92454 156.131C0.859872 156.131 0.00195312 157 0.00195312 158.064V163.295H1.27336V160.008H5.8938V158.726H1.28368V158.064C1.28368 157.703 1.58345 157.403 1.94523 157.403H7.17553V156.121H1.93488L1.92454 156.131Z" fill="#011C42"/>
<path d="M14.4575 163.296V156.133H13.1758V163.296H14.4575Z" fill="#011C42"/>
<path d="M20.4707 156.133V157.404H23.4063V163.296H24.688V157.404H27.634V156.133H20.4707Z" fill="#011C42"/>
<path d="M39.5378 156.133V160.691L34.9277 157.135L33.6562 156.154V163.296H34.9277V158.769L39.5378 162.314L40.8195 163.296V156.133H39.5378Z" fill="#011C42"/>
<path d="M48.7702 157.403H54.0005V156.121H48.7702C47.7056 156.121 46.8477 156.989 46.8477 158.054V161.351C46.8477 162.416 47.7056 163.284 48.7702 163.284H54.0005V162.003H48.7702C48.4085 162.003 48.1087 161.703 48.1087 161.351V159.997H52.7188V158.716H48.1087V158.044C48.1087 157.682 48.4085 157.382 48.7702 157.382V157.403Z" fill="#011C42"/>
<path d="M66.8095 158.107V158.066C66.8095 157.001 65.9413 156.133 64.8766 156.133H61.9617C60.897 156.133 60.0391 157.001 60.0391 158.066V158.107C60.0391 158.521 60.1631 158.893 60.3802 159.203C60.4525 159.317 60.5352 159.42 60.6283 159.513C60.9797 159.854 61.4449 160.05 61.972 160.05H64.5562C65.104 160.05 65.5485 160.495 65.5485 161.032C65.5485 161.57 65.0937 162.014 64.5562 162.014H62.3131C61.7653 162.014 61.3311 161.57 61.3311 161.032H60.0494C60.0494 162.283 61.0624 163.296 62.3131 163.296H64.5562C65.8069 163.296 66.8198 162.283 66.8198 161.032C66.8198 160.484 66.6235 159.988 66.3134 159.596C66.2824 159.565 66.2617 159.534 66.2307 159.503C65.8172 159.058 65.228 158.769 64.5562 158.769H61.972C61.6102 158.769 61.3208 158.469 61.3208 158.107V158.066C61.3208 157.704 61.6206 157.415 61.972 157.415H64.8869C65.2487 157.415 65.5381 157.714 65.5381 158.076V158.117H66.8198L66.8095 158.107Z" fill="#011C42"/>
<path d="M79.5941 158.107V158.066C79.5941 157.001 78.7258 156.133 77.6612 156.133H74.7566C73.6919 156.133 72.834 157.001 72.834 158.066V158.107C72.834 158.521 72.958 158.893 73.1751 159.203C73.2475 159.317 73.3301 159.42 73.4232 159.513C73.7746 159.854 74.2398 160.05 74.7669 160.05H77.3511C77.8886 160.05 78.3434 160.495 78.3434 161.032C78.3434 161.57 77.8886 162.014 77.3511 162.014H75.108C74.5602 162.014 74.1261 161.57 74.1261 161.032H72.8443C72.8443 162.283 73.8573 163.296 75.108 163.296H77.3511C78.6018 163.296 79.6148 162.283 79.6148 161.032C79.6148 160.484 79.4184 159.988 79.1083 159.596C79.0773 159.565 79.0566 159.534 79.0256 159.503C78.6121 159.058 78.0229 158.769 77.3614 158.769H74.7773C74.4155 158.769 74.1157 158.469 74.1157 158.107V158.066C74.1157 157.704 74.4155 157.415 74.7773 157.415H77.6818C78.0436 157.415 78.3434 157.714 78.3434 158.076V158.117H79.6251L79.5941 158.107Z" fill="#011C42"/>
<path d="M90.5996 156.133V157.404H93.5352V163.296H94.8169V157.404H97.7628V156.133H90.5996Z" fill="#011C42"/>
<path d="M109.671 156.133V158.727H105.061V156.133H103.779V163.296H105.061V160.009H109.671V163.296H110.953V156.133H109.671Z" fill="#011C42"/>
<path d="M123.211 162.014L120.214 156.133L117.216 162.014L116.555 163.296H117.991L118.643 162.014L120.214 158.944L121.785 162.014L122.436 163.296H123.873L123.211 162.014Z" fill="#011C42"/>
<path d="M129.479 156.133V157.404H132.424V163.296H133.696V157.404H136.642V156.133H129.479Z" fill="#011C42"/>
<path d="M149.583 156.133C148.518 156.133 147.66 157.001 147.66 158.066V163.296H148.932V159.999H153.552V158.717H148.942V158.056C148.942 157.694 149.242 157.394 149.593 157.394H154.823V156.112H149.583V156.133Z" fill="#011C42"/>
<path d="M162.122 163.296V156.133H160.84V163.296H162.122Z" fill="#011C42"/>
<path d="M168.129 155.544V156.815H171.075V162.707H172.357V156.815H175.292V155.544H168.129Z" fill="#011C42"/>
<path d="M188.097 157.518V157.477C188.097 156.412 187.228 155.544 186.164 155.544H183.249C182.184 155.544 181.326 156.412 181.326 157.477V157.518C181.326 157.932 181.45 158.304 181.667 158.614C181.74 158.728 181.822 158.831 181.915 158.924C182.267 159.265 182.732 159.461 183.259 159.461H185.843C186.391 159.461 186.836 159.906 186.836 160.443C186.836 160.981 186.381 161.425 185.843 161.425H183.6C183.052 161.425 182.618 160.981 182.618 160.443H181.337C181.337 161.694 182.35 162.707 183.6 162.707H185.843C187.094 162.707 188.107 161.694 188.107 160.443C188.107 159.896 187.911 159.4 187.6 159.007C187.569 158.976 187.549 158.945 187.518 158.914C187.104 158.469 186.515 158.18 185.854 158.18H183.269C182.908 158.18 182.618 157.88 182.618 157.518V157.477C182.618 157.115 182.918 156.826 183.269 156.826H186.184C186.546 156.826 186.836 157.125 186.836 157.487V157.529H188.117L188.097 157.518Z" fill="#011C42"/>
<path d="M203.861 159.401C204.058 159.38 204.244 159.329 204.42 159.246C205.081 158.936 205.546 158.264 205.546 157.489C205.546 156.951 205.329 156.476 204.978 156.124C204.626 155.773 204.151 155.556 203.613 155.556H199.086V162.729H200.368V159.432H201.649C202.115 159.432 202.507 159.68 202.735 160.052L202.766 160.114L203.448 161.458L204.099 162.74H205.536L204.885 161.458L203.861 159.411V159.401ZM200.368 158.16V156.837H203.613C203.841 156.837 203.996 156.941 204.079 157.023C204.151 157.096 204.275 157.261 204.275 157.499C204.275 157.757 204.12 157.995 203.882 158.098C203.799 158.14 203.706 158.16 203.613 158.16H200.368Z" fill="#011C42"/>
<path d="M212.842 162.707V155.544H211.57V162.707H212.842Z" fill="#011C42"/>
<path d="M222.446 156.816H226.033V155.534H222.446C220.472 155.534 218.859 157.136 218.859 159.121C218.859 161.106 220.462 162.708 222.446 162.708H226.033V158.78H222.446V160.062H224.751V161.436H222.446C221.175 161.436 220.141 160.403 220.141 159.131C220.141 157.86 221.175 156.826 222.446 156.826V156.816Z" fill="#011C42"/>
<path d="M237.943 155.544V158.138H233.333V155.544H232.051V162.707H233.333V159.42H237.943V162.707H239.214V155.544H237.943Z" fill="#011C42"/>
<path d="M245.23 155.544V156.815H248.176V162.707H249.448V156.815H252.394V155.544H245.23Z" fill="#011C42"/>
<path fill-rule="evenodd" clip-rule="evenodd" d="M87.9695 34.6171C87.7628 34.2553 87.7628 33.8212 87.9695 33.4594C90.3366 29.3558 104.58 4.6928 106.947 0.589191C107.154 0.227412 107.537 0.0103467 107.95 0.0103467H126.194C126.194 0.0103467 103.206 39.8268 98.089 48.6852C97.8822 49.047 97.4998 49.2641 97.0864 49.2641C96.6729 49.2641 96.2904 49.047 96.0837 48.6852C93.9957 45.0674 89.2616 36.8602 87.9592 34.6171H87.9695ZM150.733 10.8844C150.94 10.5226 150.94 10.0885 150.733 9.72674C149.689 7.91784 146.495 2.38774 145.451 0.578845C145.244 0.217065 144.862 0 144.448 0H126.204C126.204 0 137.192 19.0296 140.603 24.9421C140.81 25.3039 141.192 25.521 141.606 25.521C142.019 25.521 142.402 25.3039 142.609 24.9421C144.697 21.3243 149.431 13.1171 150.733 10.8741V10.8844Z" fill="#FF559C"/>
<path fill-rule="evenodd" clip-rule="evenodd" d="M164.432 33.4692C164.638 33.8309 164.638 34.2651 164.432 34.6268C162.065 38.7305 147.821 63.3935 145.454 67.4971C145.247 67.8589 144.865 68.0759 144.451 68.0759H126.207C126.207 68.0759 149.196 28.2595 154.312 19.4011C154.519 19.0393 154.901 18.8223 155.315 18.8223C155.728 18.8223 156.111 19.0393 156.318 19.4011C158.406 23.0189 163.14 31.2261 164.442 33.4692H164.432ZM101.678 57.2019C101.472 57.5637 101.472 57.9978 101.678 58.3596C102.722 60.1685 105.916 65.6985 106.96 67.5074C107.167 67.8692 107.55 68.0863 107.963 68.0863H126.207C126.207 68.0863 115.219 49.0567 111.808 43.1338C111.602 42.772 111.219 42.555 110.806 42.555C110.392 42.555 110.01 42.772 109.803 43.1338C107.715 46.7516 102.981 54.9589 101.678 57.2019Z" fill="#4CAFF6"/>
</svg>
