<svg width="251" height="199" viewBox="0 0 251 199" fill="none" xmlns="http://www.w3.org/2000/svg">
<path d="M145.833 27.7122C129.742 27.1549 114.417 21.9556 99.7826 16.2687C85.1484 10.5818 70.6534 4.28299 54.9476 1.27038C44.8459 -0.667542 33.2922 -0.943678 25.1546 4.46956C17.3204 9.69374 14.7894 18.6868 13.4294 27.038C12.405 33.3219 11.8034 39.9367 14.6079 45.8202C16.5571 49.905 20.013 53.338 22.4048 57.2512C30.7264 70.8639 24.8438 87.6509 15.8286 100.943C11.602 107.177 6.69158 113.132 3.4271 119.762C0.162629 126.392 -1.34654 134.014 1.51019 140.796C4.33957 147.512 11.0848 152.548 18.392 156.093C33.2325 163.294 50.7135 165.354 67.7718 166.523C105.521 169.106 143.469 167.989 181.317 166.867C195.325 166.454 209.392 166.033 223.171 163.867C230.824 162.663 238.723 160.752 244.28 156.14C251.331 150.286 253.079 140.375 248.352 133.037C240.426 120.722 218.517 117.665 212.97 104.453C209.922 97.1788 213.052 89.0788 217.485 82.3347C226.993 67.8637 242.927 55.1689 243.765 38.6307C244.342 27.2718 236.682 15.8956 224.837 10.5197C212.423 4.88501 195.206 5.59401 186.051 14.9204C176.616 24.513 160.042 28.2072 145.833 27.7122Z" fill="#F3EBFB"/>
<path opacity="0.1" d="M131.855 68.2077C131.855 68.2077 134.03 58.9808 127.307 58.9484C127.307 58.9484 126.191 58.5305 125.487 59.4858C125.487 59.4858 125.967 59.5878 125.642 60.4983C125.529 60.8202 125.454 61.1542 125.418 61.4934C125.37 61.9558 125.473 62.4213 125.714 62.8193C125.714 62.8193 126.343 65.6304 130.438 67.3917C130.438 67.3917 131.243 68.3072 131.487 68.3171L131.089 66.628C131.089 66.628 129.861 66.9688 128.991 66.3792C128.991 66.3792 131.037 66.6802 131.039 66.3792C131.039 66.317 130.791 65.4936 130.791 65.4936C130.791 65.4936 128.655 66.0757 127.337 65.1279C127.337 65.1279 129.726 65.8145 130.699 65.1801L130.251 63.9562C130.251 63.9562 128.013 64.6851 126.482 63.6626C126.482 63.6626 129.005 64.2945 130.134 63.6975L129.525 62.5581C129.525 62.5581 127.337 63.2248 126.062 62.3665C126.062 62.3665 129.045 62.7994 129.368 62.3068C129.368 62.3068 128.747 61.2943 128.451 61.1053C128.451 61.1053 126.87 61.5481 126.174 60.9834C126.174 60.9834 128.2 61.0605 128.247 60.8466C128.247 60.8466 127.086 59.7445 126.201 59.4957C127.026 59.6836 127.788 60.0832 128.411 60.655C128.402 60.1336 128.241 59.6262 127.949 59.1947C127.949 59.1947 128.854 59.4932 128.695 60.9361C128.695 60.9361 129.565 61.8317 129.592 62.0357C129.592 62.0357 129.953 60.6451 129.722 59.7221C129.722 59.7221 130.467 60.6276 129.764 62.3317L130.4 63.4636C130.4 63.4636 130.977 61.6476 130.83 60.8117C130.83 60.8117 131.449 61.8516 130.537 63.7621L130.997 64.9538C130.997 64.9538 131.611 63.4263 131.651 62.4661C131.651 62.4661 132.016 63.5557 131.114 65.3045L131.328 66.1354C131.328 66.1354 131.755 65.0135 131.85 64.6801C131.944 64.3468 132.041 64.3443 132.041 64.3443C132.037 65.1011 131.823 65.8419 131.422 66.4837C131.422 66.4837 131.748 68.2201 131.855 68.2077Z" fill="#D3B1F8"/>
<path opacity="0.1" d="M111.167 71.3526C111.167 71.3526 103.579 65.6732 100.866 71.8253C100.866 71.8253 100.038 72.6836 100.633 73.711C100.633 73.711 100.916 73.3105 101.627 73.9747C101.879 74.2091 102.158 74.4129 102.458 74.5817C102.864 74.8079 103.332 74.8953 103.793 74.8304C103.793 74.8304 106.617 75.3752 109.869 72.3129C109.869 72.3129 111.03 71.9397 111.14 71.7208L109.427 71.4198C109.427 71.4198 109.248 72.6811 108.365 73.2458C108.365 73.2458 109.456 71.4895 109.173 71.3626C109.116 71.3352 108.261 71.2382 108.261 71.2382C108.261 71.2382 107.942 73.4324 106.55 74.2608C106.55 74.2608 108.134 72.3427 107.937 71.1984L106.637 71.1287C106.637 71.1287 106.416 73.4647 104.864 74.4697C104.864 74.4697 106.448 72.4074 106.356 71.1337L105.068 71.2382C105.068 71.2382 104.807 73.5095 103.512 74.3354C103.512 74.3354 105.1 71.7681 104.775 71.2805C104.775 71.2805 103.599 71.4472 103.308 71.6412C103.308 71.6412 103.082 73.2682 102.286 73.6811C102.286 73.6811 103.169 71.8527 102.99 71.7258C102.99 71.7258 101.515 72.3502 100.936 73.0617C101.437 72.3805 102.107 71.842 102.88 71.4994C102.399 71.2994 101.871 71.2441 101.359 71.3402C101.359 71.3402 101.99 70.6287 103.238 71.3526C103.238 71.3526 104.407 70.9123 104.606 70.967C104.606 70.967 103.474 70.0789 102.537 69.9247C102.537 69.9247 103.666 69.6013 104.946 70.9198L106.237 70.7879C106.237 70.7879 104.802 69.5441 103.979 69.3351C103.979 69.3351 105.18 69.1834 106.565 70.7805L107.838 70.8377C107.838 70.8377 106.687 69.6635 105.819 69.2406C105.819 69.2406 106.96 69.3401 108.203 70.8651L109.051 71.0019C109.051 71.0019 108.193 70.161 107.925 69.9421C107.656 69.7232 107.694 69.6312 107.694 69.6312C108.385 69.9376 108.978 70.4302 109.407 71.0541C109.407 71.0541 111.135 71.4546 111.167 71.3526Z" fill="#D3B1F8"/>
<path opacity="0.3" d="M128.874 7.37915C128.874 7.37915 121.286 1.69723 118.573 7.85181C118.573 7.85181 117.745 8.71007 118.34 9.73749C118.34 9.73749 118.623 9.33697 119.334 10.0012C119.587 10.2344 119.867 10.4373 120.167 10.6057C120.573 10.8321 121.042 10.9195 121.502 10.8545C121.502 10.8545 124.327 11.3993 127.579 8.33442C127.579 8.33442 128.74 7.96376 128.847 7.74235L127.134 7.44631C127.134 7.44631 126.957 8.70758 126.072 9.27229C126.072 9.27229 127.166 7.51597 126.882 7.3891C126.825 7.36173 125.97 7.26471 125.97 7.26471C125.97 7.26471 125.642 9.46384 124.25 10.2873C124.25 10.2873 125.831 8.36925 125.637 7.22491L124.337 7.15525C124.337 7.15525 124.113 9.4912 122.564 10.4937C122.564 10.4937 124.148 8.43144 124.056 7.15774L122.77 7.26222C122.77 7.26222 122.507 9.53598 121.211 10.3619C121.211 10.3619 122.803 7.79459 122.477 7.307C122.477 7.307 121.301 7.47368 121.01 7.66772C121.01 7.66772 120.784 9.29468 119.988 9.70764C119.988 9.70764 120.871 7.87917 120.692 7.74981C120.692 7.74981 119.217 8.37671 118.638 9.0882C119.138 8.40624 119.809 7.86756 120.582 7.52592C120.101 7.32443 119.571 7.26906 119.058 7.36671C119.058 7.36671 119.692 6.65522 120.94 7.37915C120.94 7.37915 122.109 6.93633 122.308 6.99355C122.308 6.99355 121.177 6.10544 120.239 5.94872C120.239 5.94872 121.365 5.6278 122.646 6.9438L123.936 6.81195C123.936 6.81195 122.504 5.5681 121.679 5.35664C121.679 5.35664 122.88 5.20738 124.267 6.80448L125.54 6.85921C125.54 6.85921 124.389 5.68502 123.519 5.2646C123.519 5.2646 124.662 5.36411 125.905 6.88907L126.751 7.02589C126.751 7.02589 125.89 6.195 125.622 5.98106C125.353 5.76711 125.391 5.67258 125.391 5.67258C126.083 5.97871 126.676 6.4714 127.104 7.09555C127.104 7.09555 128.832 7.47368 128.874 7.37915Z" fill="#D3B1F8"/>
<path opacity="0.3" d="M169.187 15.2535C169.187 15.2535 166.153 6.27041 160.432 9.80046C160.432 9.80046 159.264 10.0492 159.172 11.2209C159.172 11.2209 159.632 11.0518 159.836 11.9971C159.911 12.3334 160.026 12.6598 160.176 12.9698C160.382 13.387 160.717 13.7265 161.131 13.9375C161.131 13.9375 163.15 15.9899 167.566 15.3107C167.566 15.3107 168.732 15.664 168.945 15.5421L167.702 14.3206C167.702 14.3206 166.842 15.2585 165.793 15.2212C165.793 15.2212 167.69 14.3952 167.533 14.1291C167.501 14.0768 166.852 13.5121 166.852 13.5121C166.852 13.5121 165.345 15.1366 163.729 15.0296C163.729 15.0296 166.119 14.348 166.606 13.2882L165.576 12.4946C165.576 12.4946 164.07 14.2908 162.223 14.236C162.223 14.236 164.709 13.4375 165.338 12.3329L164.219 11.6886C164.219 11.6886 162.727 13.4126 161.181 13.3579C161.181 13.3579 163.946 12.1464 163.953 11.5593C163.953 11.5593 162.891 11.0294 162.541 11.0244C162.541 11.0244 161.432 12.2359 160.552 12.1265C160.552 12.1265 162.312 11.1189 162.237 10.9125C162.237 10.9125 160.671 10.5915 159.788 10.8503C160.587 10.5722 161.444 10.5078 162.275 10.6637C161.991 10.2256 161.586 9.8798 161.109 9.66861C161.109 9.66861 162.034 9.44223 162.653 10.7458C162.653 10.7458 163.866 11.0468 163.995 11.2035C163.995 11.2035 163.568 9.8328 162.884 9.17107C162.884 9.17107 163.995 9.54671 164.299 11.3652L165.437 11.9871C165.437 11.9871 164.967 10.1438 164.4 9.49945C164.4 9.49945 165.477 10.0567 165.711 12.1588L166.73 12.9275C166.73 12.9275 166.447 11.3055 165.969 10.4647C165.969 10.4647 166.854 11.1961 167.014 13.1589L167.633 13.7509C167.633 13.7509 167.404 12.5718 167.309 12.2384C167.215 11.9051 167.292 11.8827 167.292 11.8827C167.687 12.528 167.896 13.2702 167.896 14.0271C167.896 14.0271 169.1 15.3182 169.187 15.2535Z" fill="#D3B1F8"/>
<path opacity="0.3" d="M172.866 129.736C172.866 129.736 163.443 128.686 164.221 135.375C164.221 135.375 163.941 136.535 164.967 137.117C164.967 137.117 165.01 136.619 165.962 136.843C166.298 136.916 166.642 136.95 166.986 136.945C167.451 136.937 167.901 136.777 168.267 136.49C168.267 136.49 170.979 135.527 172.245 131.236C172.245 131.236 173.055 130.328 173.038 130.081L171.409 130.684C171.409 130.684 171.907 131.86 171.409 132.796C171.409 132.796 171.462 130.728 171.161 130.761C171.099 130.761 170.313 131.119 170.313 131.119C170.313 131.119 171.148 133.171 170.368 134.602C170.368 134.602 170.76 132.144 170.012 131.258L168.856 131.855C168.856 131.855 169.85 133.982 169.017 135.634C169.017 135.634 169.341 133.052 168.612 132.004L167.556 132.751C167.556 132.751 168.48 134.843 167.782 136.214C167.782 136.214 167.854 133.194 167.324 132.937C167.324 132.937 166.394 133.684 166.243 133.992C166.243 133.992 166.872 135.51 166.397 136.268C166.397 136.268 166.23 134.246 166.012 134.226C166.012 134.226 165.057 135.512 164.918 136.42C165.004 135.578 165.309 134.774 165.803 134.087C165.287 134.158 164.803 134.378 164.41 134.721C164.41 134.721 164.594 133.788 166.036 133.778C166.036 133.778 166.82 132.806 167.031 132.753C167.031 132.753 165.606 132.562 164.719 132.903C164.719 132.903 165.527 132.052 167.302 132.547L168.349 131.778C168.349 131.778 166.457 131.395 165.656 131.644C165.656 131.644 166.616 130.897 168.62 131.582L169.746 130.982C169.746 130.982 168.157 130.554 167.195 130.631C167.195 130.631 168.232 130.134 170.074 130.823L170.875 130.512C170.875 130.512 169.709 130.221 169.366 130.166C169.022 130.111 169.01 130.017 169.01 130.017C169.762 129.931 170.522 130.055 171.208 130.375C171.208 130.375 172.884 129.84 172.866 129.736Z" fill="#D3B1F8"/>
<path opacity="0.3" d="M210.503 34.0714C210.503 34.0714 202.915 28.392 200.202 34.5441C200.202 34.5441 199.374 35.4023 199.969 36.4297C199.969 36.4297 200.252 36.0292 200.963 36.6934C201.215 36.9279 201.494 37.1316 201.793 37.3004C202.2 37.5265 202.668 37.6138 203.129 37.5492C203.129 37.5492 205.953 38.094 209.208 35.0317C209.208 35.0317 210.366 34.6585 210.476 34.4396L208.767 34.1311C208.767 34.1311 208.588 35.3924 207.706 35.9571C207.706 35.9571 208.797 34.2008 208.514 34.0739C208.457 34.0465 207.604 33.9495 207.604 33.9495C207.604 33.9495 207.283 36.1437 205.891 36.9721C205.891 36.9721 207.475 35.054 207.278 33.9097L205.978 33.84C205.978 33.84 205.757 36.176 204.205 37.181C204.205 37.181 205.791 35.1187 205.697 33.845L204.409 33.9495C204.409 33.9495 204.16 36.2208 202.853 37.0467C202.853 37.0467 204.444 34.4794 204.116 33.9918C204.116 33.9918 202.94 34.1585 202.649 34.3525C202.649 34.3525 202.425 35.9795 201.629 36.3924C201.629 36.3924 202.51 34.564 202.331 34.4371C202.331 34.4371 200.856 35.0615 200.277 35.773C200.778 35.0918 201.448 34.5532 202.221 34.2107C201.74 34.0107 201.211 33.9554 200.7 34.0515C200.7 34.0515 201.334 33.34 202.582 34.0639C202.582 34.0639 203.748 33.6236 203.947 33.6783C203.947 33.6783 202.815 32.7902 201.878 32.636C201.878 32.636 203.007 32.3126 204.287 33.6311L205.578 33.4992C205.578 33.4992 204.145 32.2554 203.32 32.0464C203.32 32.0464 204.521 31.8947 205.906 33.4918L207.181 33.549C207.181 33.549 206.028 32.3748 205.16 31.9519C205.16 31.9519 206.304 32.0514 207.544 33.5763L208.392 33.7132C208.392 33.7132 207.534 32.8723 207.266 32.6534C206.997 32.4345 207.037 32.3623 207.037 32.3623C207.728 32.6693 208.32 33.1619 208.748 33.7853C208.748 33.7853 210.471 34.1734 210.503 34.0714Z" fill="#D3B1F8"/>
<path opacity="0.3" d="M216.366 75.0734C216.366 75.0734 213.751 65.961 207.868 69.2323C207.868 69.2323 206.69 69.4139 206.543 70.5931C206.543 70.5931 207.01 70.4463 207.172 71.3991C207.232 71.7414 207.332 72.0754 207.47 72.3942C207.655 72.8229 207.974 73.1793 208.38 73.4092C208.38 73.4092 210.305 75.5486 214.745 75.0709C214.745 75.0709 215.894 75.4739 216.113 75.3645L214.937 74.0858C214.937 74.0858 214.034 74.9864 212.99 74.9018C212.99 74.9018 214.919 74.1555 214.77 73.8893C214.74 73.8346 214.119 73.24 214.119 73.24C214.119 73.24 212.542 74.7973 210.931 74.6157C210.931 74.6157 213.35 74.0435 213.882 73.0136L212.888 72.1728C212.888 72.1728 211.302 73.8992 209.459 73.7649C209.459 73.7649 211.966 73.0758 212.657 72.0036L211.568 71.3095C211.568 71.3095 209.989 72.9639 208.457 72.8395C208.457 72.8395 211.274 71.7523 211.309 71.1677C211.309 71.1677 210.27 70.5906 209.919 70.5707C209.919 70.5707 208.758 71.73 207.876 71.5807C207.876 71.5807 209.681 70.6528 209.616 70.4438C209.616 70.4438 208.065 70.0533 207.172 70.2697C207.98 70.0298 208.837 70.005 209.658 70.1975C209.395 69.7474 209.006 69.3842 208.539 69.1527C208.539 69.1527 209.474 68.9661 210.031 70.297C210.031 70.297 211.227 70.6503 211.351 70.8145C211.351 70.8145 210.986 69.4239 210.332 68.7348C210.332 68.7348 211.426 69.1577 211.647 70.9886L212.756 71.6628C212.756 71.6628 212.368 69.797 211.831 69.1403C211.831 69.1403 212.88 69.7448 213.022 71.8543L214.017 72.6678C214.017 72.6678 213.805 71.0359 213.368 70.1801C213.368 70.1801 214.221 70.9513 214.29 72.9166L214.882 73.5385C214.882 73.5385 214.708 72.3494 214.633 72.0111C214.559 71.6727 214.633 71.6255 214.633 71.6255C215.001 72.2872 215.178 73.0383 215.143 73.7947C215.143 73.7947 216.277 75.1331 216.366 75.0734Z" fill="#D3B1F8"/>
<path opacity="0.1" d="M158.079 95.6076C158.079 95.6076 153 87.6022 148.283 92.3935C148.283 92.3935 147.204 92.891 147.393 94.0727C147.393 94.0727 147.804 93.799 148.226 94.6697C148.378 94.9783 148.567 95.2673 148.788 95.5305C149.085 95.8897 149.491 96.1414 149.944 96.2469C149.944 96.2469 152.393 97.7595 156.52 96.0479C156.52 96.0479 157.736 96.1126 157.915 95.9459L156.423 95.0504C156.423 95.0504 155.809 96.1698 154.783 96.3813C154.783 96.3813 156.428 95.1374 156.207 94.9086C156.165 94.8638 155.399 94.4707 155.399 94.4707C155.399 94.4707 154.323 96.4062 152.726 96.6873C152.726 96.6873 154.887 95.4559 155.111 94.3165L153.92 93.7916C153.92 93.7916 152.883 95.8937 151.078 96.2793C151.078 96.2793 153.291 94.9135 153.651 93.6896L152.408 93.3314C152.408 93.3314 151.359 95.3638 149.855 95.6748C149.855 95.6748 152.251 93.8389 152.12 93.2667C152.12 93.2667 150.961 93.0055 150.628 93.0851C150.628 93.0851 149.84 94.5254 148.95 94.6299C148.95 94.6299 150.422 93.2319 150.3 93.0478C150.3 93.0478 148.701 93.11 147.905 93.5702C148.615 93.1101 149.433 92.8442 150.277 92.799C149.899 92.441 149.425 92.2014 148.912 92.1099C148.912 92.1099 149.755 91.6696 150.653 92.789C150.653 92.789 151.896 92.789 152.068 92.9134C152.068 92.9134 151.322 91.6696 150.504 91.2044C150.504 91.2044 151.672 91.3039 152.398 92.998L153.654 93.3314C153.654 93.3314 152.756 91.6522 152.058 91.172C152.058 91.172 153.234 91.4556 153.962 93.4433L155.136 93.9408C155.136 93.9408 154.474 92.4358 153.81 91.7318C153.81 91.7318 154.845 92.2293 155.464 94.0976L156.21 94.5279C156.21 94.5279 155.712 93.4358 155.536 93.1348C155.359 92.8338 155.429 92.7642 155.429 92.7642C155.967 93.2959 156.347 93.9669 156.525 94.7021C156.525 94.7021 158.012 95.6922 158.079 95.6076Z" fill="#D3B1F8"/>
<path d="M191.464 54.7034C191.464 54.7034 186.633 46.5462 181.767 51.1883C181.767 51.1883 180.673 51.6609 180.827 52.8401C180.827 52.8401 181.243 52.5764 181.64 53.4596C181.783 53.7735 181.962 54.0692 182.175 54.3402C182.46 54.7071 182.859 54.9694 183.309 55.0865C183.309 55.0865 185.708 56.6737 189.887 55.0865C189.887 55.0865 191.101 55.1885 191.285 55.0268L189.825 54.0865C189.825 54.0865 189.179 55.1835 188.144 55.3651C188.144 55.3651 189.828 54.1636 189.616 53.9372C189.572 53.8899 188.821 53.472 188.821 53.472C188.821 53.472 187.684 55.3751 186.086 55.6064C186.086 55.6064 188.284 54.4422 188.54 53.3128L187.366 52.7605C187.366 52.7605 186.265 54.8328 184.447 55.1636C184.447 55.1636 186.702 53.8675 187.1 52.656L185.872 52.258C185.872 52.258 184.758 54.2482 183.247 54.5218C183.247 54.5218 185.698 52.7605 185.584 52.1858C185.584 52.1858 184.435 51.8873 184.092 51.957C184.092 51.957 183.259 53.3725 182.366 53.4496C182.366 53.4496 183.881 52.1013 183.766 51.9122C183.766 51.9122 182.165 51.9246 181.357 52.36C182.081 51.9231 182.906 51.683 183.751 51.6634C183.384 51.2936 182.916 51.0394 182.406 50.932C182.406 50.932 183.264 50.5166 184.147 51.6634C184.147 51.6634 185.39 51.7057 185.556 51.8326C185.556 51.8326 184.853 50.5887 184.047 50.0763C184.047 50.0763 185.211 50.2106 185.884 51.9271L187.128 52.3003C187.128 52.3003 186.285 50.5937 185.599 50.0912C185.599 50.0912 186.767 50.4121 187.433 52.4197L188.589 52.9595C188.589 52.9595 187.975 51.4346 187.346 50.7206C187.346 50.7206 188.363 51.2505 188.928 53.1361L189.656 53.5889C189.656 53.5889 189.189 52.4819 189.025 52.1759C188.861 51.8699 188.93 51.8027 188.93 51.8027C189.451 52.3508 189.81 53.0329 189.967 53.773C189.967 53.773 191.392 54.7855 191.464 54.7034Z" fill="#D3B1F8"/>
<path d="M160.903 71.8572C160.903 71.8572 161.151 62.3791 154.57 63.715C154.57 63.715 153.392 63.5334 152.895 64.613C152.895 64.613 153.392 64.613 153.253 65.5708C153.207 65.9123 153.202 66.258 153.238 66.6007C153.283 67.0655 153.479 67.5026 153.797 67.8446C153.797 67.8446 154.983 70.4666 159.361 71.3572C159.361 71.3572 160.333 72.0911 160.577 72.0513L159.831 70.479C159.831 70.479 158.7 71.0612 157.728 70.6656C157.728 70.6656 159.791 70.5437 159.734 70.2402C159.734 70.178 159.307 69.4218 159.307 69.4218C159.307 69.4218 157.333 70.4293 155.853 69.7675C155.853 69.7675 158.339 69.9541 159.153 69.1357L158.459 68.0336C158.459 68.0336 156.425 69.1979 154.71 68.5113C154.71 68.5113 157.308 68.6157 158.292 67.8023L157.464 66.8072C157.464 66.8072 155.458 67.9067 154.036 67.3246C154.036 67.3246 157.049 67.143 157.268 66.5932C157.268 66.5932 156.452 65.73 156.124 65.5982C156.124 65.5982 154.667 66.3445 153.872 65.9415C153.872 65.9415 155.861 65.6081 155.873 65.3867C155.873 65.3867 154.513 64.5434 153.596 64.4812C154.442 64.4963 155.269 64.733 155.995 65.1678C155.882 64.6593 155.622 64.195 155.249 63.8319C155.249 63.8319 156.196 63.9389 156.326 65.3743C156.326 65.3743 157.362 66.0758 157.429 66.2698C157.429 66.2698 157.502 64.8344 157.086 63.9787C157.086 63.9787 158.001 64.7125 157.658 66.5236L158.511 67.5037C158.511 67.5037 158.705 65.6081 158.394 64.8195C158.394 64.8195 159.21 65.7126 158.707 67.7674L159.396 68.8396C159.396 68.8396 159.69 67.2201 159.533 66.2674C159.533 66.2674 160.11 67.2624 159.583 69.1556L159.961 69.9268C159.961 69.9268 160.152 68.7401 160.177 68.3943C160.202 68.0485 160.296 68.0262 160.296 68.0262C160.446 68.7683 160.386 69.5374 160.125 70.2477C160.125 70.2477 160.793 71.8896 160.903 71.8572Z" fill="#D3B1F8"/>
<path d="M205.13 194.543C210.651 194.543 215.127 193.786 215.127 192.852C215.127 191.918 210.651 191.16 205.13 191.16C199.609 191.16 195.133 191.918 195.133 192.852C195.133 193.786 199.609 194.543 205.13 194.543Z" fill="#E9DAFA"/>
<path d="M209.275 190.082C209.731 189.711 210.064 189.209 210.227 188.644C210.352 188.072 210.108 187.388 209.563 187.179C208.952 186.945 208.298 187.368 207.801 187.796C207.303 188.224 206.739 188.714 206.09 188.624C206.423 188.321 206.673 187.937 206.814 187.51C206.955 187.082 206.983 186.625 206.896 186.184C206.868 186.001 206.79 185.829 206.672 185.686C206.331 185.323 205.717 185.48 205.309 185.766C204.017 186.676 203.656 188.433 203.649 190.015C203.519 189.445 203.629 188.85 203.626 188.273C203.624 187.696 203.462 187.029 202.967 186.726C202.664 186.557 202.321 186.471 201.973 186.477C201.391 186.457 200.742 186.514 200.347 186.94C199.85 187.467 199.981 188.355 200.409 188.93C200.837 189.505 201.491 189.875 202.092 190.278C202.574 190.566 202.985 190.958 203.296 191.425C203.331 191.49 203.36 191.559 203.383 191.629H207.027C207.843 191.218 208.6 190.697 209.275 190.082Z" fill="#E9DAFA"/>
<path d="M68.3739 198.999C92.8681 198.999 112.724 196.594 112.724 193.628C112.724 190.662 92.8681 188.257 68.3739 188.257C43.8798 188.257 24.0234 190.662 24.0234 193.628C24.0234 196.594 43.8798 198.999 68.3739 198.999Z" fill="#D3B1F8"/>
<path d="M68.3739 198.999C92.8681 198.999 112.724 196.594 112.724 193.628C112.724 190.662 92.8681 188.257 68.3739 188.257C43.8798 188.257 24.0234 190.662 24.0234 193.628C24.0234 196.594 43.8798 198.999 68.3739 198.999Z" fill="#EFE9F7"/>
<path d="M172.352 193.628C172.352 195.108 162.456 196.307 150.244 196.307C138.033 196.307 128.137 195.108 128.137 193.628C128.137 192.147 138.033 190.948 150.244 190.948C162.456 190.948 172.352 192.147 172.352 193.628Z" fill="#F5EEFD"/>
<path d="M77.2106 16.6781C77.2106 16.6781 73.7787 13.9926 69.8618 15.3384C65.9388 16.6781 62.9428 23.2116 61.8991 28.5215C60.8554 33.8315 56.7544 37.8568 57.7367 44.0844C58.7189 50.3119 65.8222 51.2846 74.3988 52.2022C82.9754 53.1199 87.629 52.0799 91.6687 46.4641C95.7084 40.8482 93.9955 34.015 91.6073 27.971C89.2191 21.9269 85.2347 16.3111 81.9318 15.2772C78.6227 14.2373 77.2167 16.6781 77.2167 16.6781H77.2106Z" fill="#4C5B63"/>
<path d="M63.043 48.6309C64.0375 49.0713 64.8418 49.2426 64.8418 49.2426L63.043 48.6309Z" fill="#4C5B63"/>
<path d="M63.043 48.6309C64.0375 49.0713 64.8418 49.2426 64.8418 49.2426" stroke="#485861" stroke-linecap="round" stroke-linejoin="round"/>
<path d="M76.3673 21.0293C76.3673 21.0293 74.6114 25.2748 71.1059 29.765C67.6003 34.2614 59.8279 38.5008 59.3306 43.2479C59.171 44.7528 59.6683 45.909 60.4234 46.7777" fill="#4C5B63"/>
<path d="M76.3673 21.0293C76.3673 21.0293 74.6114 25.2748 71.1059 29.765C67.6003 34.2614 59.8279 38.5008 59.3306 43.2479C59.171 44.7528 59.6683 45.909 60.4234 46.7777" stroke="#485861" stroke-linecap="round" stroke-linejoin="round"/>
<path d="M90.6145 43.5918C90.3751 44.1546 90.0559 44.7113 89.6445 45.2496L90.6145 43.5918Z" fill="#4C5B63"/>
<path d="M90.6145 43.5918C90.3751 44.1546 90.0559 44.7113 89.6445 45.2496" stroke="#485861" stroke-linecap="round" stroke-linejoin="round"/>
<path d="M87.6445 31.7656C87.6445 31.7656 91.5983 36.3109 91.2115 41.1498L87.6445 31.7656Z" fill="#4C5B63"/>
<path d="M87.6445 31.7656C87.6445 31.7656 91.5983 36.3109 91.2115 41.1498" stroke="#485861" stroke-linecap="round" stroke-linejoin="round"/>
<path d="M75.6196 18.5337C75.6196 18.5337 70.8616 17.7874 67.3499 21.7821C67.2149 21.9412 67.0798 22.1002 66.957 22.2593" fill="#4C5B63"/>
<path d="M75.6196 18.5337C75.6196 18.5337 70.8616 17.7874 67.3499 21.7821C67.2149 21.9412 67.0798 22.1002 66.957 22.2593" stroke="#485861" stroke-linecap="round" stroke-linejoin="round"/>
<path d="M52.9676 133.835L52.2064 145.605C52.2064 145.605 48.9402 161.394 47.8966 167.903C46.8529 174.412 44.9804 184.316 44.6304 184.316C44.2805 184.316 38.6569 187.711 36.8458 190.476C35.0408 193.247 37.3308 194.422 39.8356 193.523C42.3343 192.624 45.7417 190.128 46.8529 187.154C47.9641 184.175 48.5228 183.068 48.5903 182.585C48.6578 182.101 60.5436 150.315 61.7223 146.926C62.9011 143.531 65.4059 133.559 65.4059 133.559L71.2444 113.824C71.2444 113.824 77.5004 134.11 77.5679 135.015C77.6355 135.915 84.0327 187.778 84.3089 189.718C84.5852 191.657 84.5177 193.039 85.6964 193.455C86.8752 193.871 89.6563 193.871 91.1174 193.871C92.5786 193.871 97.6497 194.636 100.148 194.012C102.647 193.388 102.93 192.972 101.192 191.724C99.4546 190.476 89.8036 189.681 88.895 186.047C88.8275 185.772 88.7538 132.385 88.7538 132.385C88.7538 132.385 87.9188 114.73 86.5314 109.744H54.4288L52.9676 133.841V133.835Z" fill="#D9B8BC"/>
<path d="M39.8373 193.523C42.336 192.624 45.7433 190.128 46.8545 187.155C46.9344 186.935 47.0142 186.733 47.0878 186.531C45.6697 188.036 43.3797 190.128 43.3797 190.128C43.3797 190.128 43.1709 188.953 42.4772 188.189C41.7835 187.424 40.881 187.705 40.881 187.705L43.3122 185.014C41.4458 186.152 38.1551 188.476 36.8536 190.47C35.0486 193.242 37.3386 194.416 39.8434 193.517L39.8373 193.523Z" fill="#A185BE" stroke="#A185BE" stroke-linecap="round" stroke-linejoin="round"/>
<path d="M101.191 191.726C100 190.875 95.1071 190.227 91.841 188.74C91.7059 188.856 91.5954 188.997 91.5279 189.162C91.2516 189.854 91.0429 190.961 91.0429 190.961L84.2773 189.523C84.2896 189.603 84.2958 189.676 84.3019 189.713C84.5782 191.652 84.5106 193.035 85.6894 193.451C86.8681 193.867 89.6493 193.867 91.1104 193.867C92.5716 193.867 97.6427 194.631 100.141 194.007C102.64 193.383 102.922 192.967 101.185 191.719L101.191 191.726Z" fill="#A185BE" stroke="#A185BE" stroke-linecap="round" stroke-linejoin="round"/>
<path d="M62.3264 81.0664C62.3264 81.0664 59.1401 82.5285 55.2846 89.429C51.0669 96.9596 51.7913 101.15 51.7299 110.241C51.6686 119.337 51.4844 134.411 51.4844 134.411C51.4844 134.411 63.1245 137.524 71.5109 137.035C79.9033 136.546 90.4998 134.655 90.4998 134.655C90.4998 134.655 88.2344 103.897 86.0918 95.0448C83.9491 86.1928 82.6599 82.2287 82.6599 82.2287C82.6599 82.2287 77.2696 83.1463 70.1664 82.4123C63.0631 81.6782 62.3264 81.0725 62.3264 81.0725V81.0664Z" fill="#414F56"/>
<path d="M75.7461 108.246C76.065 109.292 76.3594 110.35 76.6169 111.415" stroke="#39464D" stroke-linecap="round" stroke-linejoin="round"/>
<path d="M68.3477 90.9395C68.3477 90.9395 71.9514 97.3383 74.6957 105.077" stroke="#39464D" stroke-linecap="round" stroke-linejoin="round"/>
<path d="M140.538 75.1997C140.17 74.955 134.141 74.0129 134.141 74.0129L132.962 73.5296C132.962 73.5296 140.268 74.1107 140.33 73.8049C140.391 73.499 140.637 73.132 140.145 73.0708C139.654 73.0096 130.255 71.101 130.255 71.101C130.255 71.101 132.643 68.8497 132.95 68.3603C133.257 67.8709 133.687 66.8983 133.196 66.8983C132.705 66.8983 132.582 67.2041 131.906 67.6324C131.231 68.0606 128.597 69.0944 127.867 69.7062C127.136 70.3179 124.926 71.9023 124.926 71.9023L99.3987 68.4032C99.3987 68.4032 90.4353 57.3917 88.4891 55.0365C86.5429 52.6813 83.903 50.8828 83.903 50.8828C82.0244 50.0508 82.098 51.4394 82.098 51.4394L85.9904 68.8191C85.9904 68.8191 96.1387 74.8448 96.7588 74.8448C97.3788 74.8448 124.803 75.7502 124.803 75.7502C124.803 75.7502 126.639 76.6067 127.805 77.3346C128.972 78.0626 136.321 80.3873 136.321 80.3873C136.321 80.3873 136.812 80.1426 136.259 79.7143C135.707 79.2861 132.158 77.5793 132.158 77.5793L139.507 79.1638C139.507 79.1638 139.937 78.8579 139.752 78.552C139.568 78.2461 133.018 75.7441 133.018 75.7441L140.366 76.1112C140.366 76.1112 140.919 75.4382 140.551 75.1935L140.538 75.1997Z" fill="#D9B8BC"/>
<path d="M97.8499 66.5129C95.1977 63.2584 89.9179 56.78 88.4813 55.0365C86.5351 52.6813 83.8952 50.8828 83.8952 50.8828C82.0166 50.0508 82.0902 51.4394 82.0902 51.4394L85.9826 68.8191C85.9826 68.8191 90.5625 71.5353 93.755 73.3216L97.856 66.5129H97.8499Z" fill="white"/>
<path d="M70.7185 49.3903C70.7185 49.3903 65.3896 49.635 62.1419 53.2382C58.8942 56.8414 59.2625 64.7757 60.6132 69.5351C61.9577 74.2945 63.6767 76.9189 63.3084 78.5706C62.94 80.2223 61.5955 80.7667 62.3261 82.2961C63.0628 83.8194 67.2866 85.4711 74.7582 85.2264C82.2298 84.9817 83.6418 83.3973 83.7032 81.9902C83.7646 80.5893 83.2121 79.427 83.3962 78.5706C83.5804 77.7141 88.9707 72.9547 88.9707 67.706C88.9707 62.4572 86.6439 60.6281 86.0914 56.8414C85.5389 53.0546 85.723 52.5102 83.4576 50.8585C81.1922 49.2068 73.7207 48.3564 70.7185 49.3964V49.3903Z" fill="white" stroke="#D9CEE4" stroke-width="0.6" stroke-linecap="round" stroke-linejoin="round"/>
<path d="M68.3011 67.6133C68.3011 67.6133 65.3604 70.1031 62.4258 71.2715" stroke="#D9CEE4" stroke-width="0.3" stroke-linecap="round" stroke-linejoin="round"/>
<path d="M68.8874 68.2012C68.8874 68.2012 67.5675 72.4467 64.332 74.7897" stroke="#D9CEE4" stroke-width="0.3" stroke-linecap="round" stroke-linejoin="round"/>
<path d="M82.1108 53.2344L82.7247 59.0949L80.1523 56.1035L82.1108 53.2344Z" fill="white" stroke="#D9CEE4" stroke-width="0.4" stroke-linecap="round" stroke-linejoin="round"/>
<path d="M78.6797 59.5834L82.1116 53.2335L78.9867 49.875L78.6797 59.5834Z" fill="white" stroke="#D9CEE4" stroke-width="0.4" stroke-linecap="round" stroke-linejoin="round"/>
<path d="M72.0703 39.0117C72.0703 39.0117 72.9912 42.4926 72.8684 45.484C72.7456 48.4754 72.4387 49.6928 72.4387 49.6928L78.6885 59.5786L80.4628 50.4269L81.6292 44.077C81.6292 44.077 74.526 43.6488 72.0765 39.0117H72.0703Z" fill="#C8A6A9"/>
<path d="M78.315 54.2734L78.6833 59.5834L76.8477 56.7143L78.315 54.2734Z" fill="white" stroke="#D9CEE4" stroke-width="0.4" stroke-linecap="round" stroke-linejoin="round"/>
<path d="M70.3516 49.4474L76.0489 59.6391L78.3143 54.274L72.2548 45.9727L70.3516 49.4474Z" fill="white" stroke="#D9CEE4" stroke-width="0.4" stroke-linecap="round" stroke-linejoin="round"/>
<path d="M170.16 54.1992H118.461V96.4709H170.16V54.1992Z" fill="#D3B1F8"/>
<path opacity="0.2" d="M170.16 54.1992H118.461V96.4709H170.16V54.1992Z" fill="black"/>
<path d="M170.16 54.1992H118.461V96.4709H170.16V54.1992Z" stroke="#AF8DD2" stroke-linecap="round" stroke-linejoin="round"/>
<path d="M159.215 54.2012H107.516V96.4728H159.215V54.2012Z" fill="#D3B1F8" stroke="#AF8DD2" stroke-linecap="round" stroke-linejoin="round"/>
<path d="M178.673 110.71C177.015 108.091 170.157 96.4805 170.157 96.4805H159.211L164.841 110.71H178.666H178.673Z" fill="#D3B1F8"/>
<path opacity="0.2" d="M178.673 110.71C177.015 108.091 170.157 96.4805 170.157 96.4805H159.211L164.841 110.71H178.666H178.673Z" fill="black"/>
<path d="M178.673 110.71C177.015 108.091 170.157 96.4805 170.157 96.4805H159.211L164.841 110.71H178.666H178.673Z" stroke="#AF8DD2" stroke-linecap="round" stroke-linejoin="round"/>
<path d="M98.9688 110.71C100.626 108.091 107.484 96.4805 107.484 96.4805H118.43L112.801 110.71H98.9749H98.9688Z" fill="#D3B1F8" stroke="#AF8DD2" stroke-linecap="round" stroke-linejoin="round"/>
<path d="M107.483 96.4727L102.719 110.708H156.714L159.219 96.4727H107.483Z" fill="#D3B1F8" stroke="#AF8DD2" stroke-linecap="round" stroke-linejoin="round"/>
<path d="M176.816 69.5V83.6497" stroke="#AF8DD2" stroke-linecap="round" stroke-linejoin="round"/>
<path d="M179.504 75.6172V87.0935" stroke="#AF8DD2" stroke-linecap="round" stroke-linejoin="round"/>
<path d="M101.961 83.6504V92.4473" stroke="#AF8DD2" stroke-linecap="round" stroke-linejoin="round"/>
<path d="M99.6562 88.623V95.5113" stroke="#AF8DD2" stroke-linecap="round" stroke-linejoin="round"/>
<path d="M135.457 71.1175C134.966 71.0563 124.922 70.0775 124.922 70.0775C124.922 70.0775 127.555 68.4319 127.862 67.9425C128.169 67.4531 128.599 66.4805 128.108 66.4805C127.617 66.4805 127.494 66.7863 126.819 67.2146C126.143 67.6428 123.51 68.6766 122.779 69.2884C122.042 69.9001 119.838 71.4846 119.838 71.4846L90.3143 71.5457L87.0236 68.958C85.7712 71.1053 83.4997 75.1306 82.0078 77.7855C84.3039 79.0641 86.0475 80.0062 86.3974 80.153C87.4411 80.5812 119.716 75.3324 119.716 75.3324C119.716 75.3324 121.551 76.1889 122.718 76.9169C123.884 77.651 131.233 79.9695 131.233 79.9695C131.233 79.9695 131.724 79.7248 131.172 79.2965C130.619 78.8683 127.07 77.1616 127.07 77.1616L134.419 78.746C134.419 78.746 134.849 78.4401 134.665 78.1342C134.481 77.8284 127.93 75.3263 127.93 75.3263L135.279 75.6934C135.279 75.6934 135.831 75.0204 135.463 74.7757C135.095 74.531 127.562 72.8243 127.562 72.8243C127.562 72.8243 135.586 72.1514 135.647 71.8455C135.709 71.5396 135.954 71.1726 135.463 71.1114L135.457 71.1175Z" fill="#D9B8BC"/>
<path d="M86.0241 33.8877C86.0241 33.7041 87.252 33.0924 87.5528 34.2547C87.8598 35.417 87.2458 37.3685 86.5705 38.0414C85.8952 38.7143 85.2812 38.8979 85.2812 38.0414C85.2812 37.185 86.018 33.8938 86.018 33.8938L86.0241 33.8877Z" fill="#D9B8BC"/>
<path d="M78.4831 23.1956C78.4831 23.1956 78.3604 27.747 74.8794 31.0932C71.3984 34.4456 68.2734 35.9994 68.2734 35.9994C68.2734 35.9994 68.6357 37.9142 69.354 38.5137C70.0723 39.1132 71.515 38.9909 71.515 38.9909C71.515 38.9909 72.5955 42.3432 75.481 44.9737C78.3665 47.6042 81.7308 47.3657 83.6525 43.4199C85.5741 39.468 86.5379 35.5223 86.2985 33.2466L86.0591 30.9709C86.0591 30.9709 79.8092 27.5023 78.4893 23.1895L78.4831 23.1956Z" fill="#D9B8BC"/>
</svg>
