<svg width="61" height="112" viewBox="0 0 61 112" fill="none" xmlns="http://www.w3.org/2000/svg">
<g opacity="0.1">
<path fill-rule="evenodd" clip-rule="evenodd" d="M-65.7441 56.9441C-66.0853 56.3488 -66.0853 55.6344 -65.7441 55.0391C-61.8374 48.2868 -38.3293 7.70479 -34.4227 0.952465C-34.0815 0.357172 -33.4501 0 -32.7677 0H-2.64047C-2.64047 0 -40.5811 65.5163 -49.0256 80.0925C-49.3668 80.6878 -49.998 81.0449 -50.6804 81.0449C-51.3628 81.0449 -51.9941 80.6878 -52.3353 80.0925C-55.7814 74.1395 -63.5946 60.6349 -65.7441 56.9441ZM37.8423 17.8928C38.1835 17.2975 38.1835 16.5832 37.8423 15.9879C36.1193 13.0114 30.8477 3.91192 29.1246 0.952465C28.7834 0.357172 28.1523 0 27.4699 0H-2.65755C-2.65755 0 15.477 31.3124 21.1067 41.0582C21.4479 41.6535 22.079 42.0107 22.7614 42.0107C23.4438 42.0107 24.075 41.6535 24.4162 41.0582C27.8622 35.1053 35.6757 21.6006 37.8252 17.9098L37.8423 17.8928Z" fill="#4CAFF6"/>
<path fill-rule="evenodd" clip-rule="evenodd" d="M60.4342 55.0394C60.7754 55.6346 60.7754 56.349 60.4342 56.9443C56.5275 63.6966 33.0191 104.279 29.1125 111.031C28.7713 111.626 28.1401 111.983 27.4577 111.983H-2.66973C-2.66973 111.983 35.2711 46.4671 43.7157 31.8909C44.0568 31.2956 44.688 30.9385 45.3704 30.9385C46.0528 30.9385 46.6839 31.2956 47.0251 31.8909C50.4712 37.8439 58.2847 51.3485 60.4342 55.0394ZM-43.1523 94.0906C-43.4935 94.6859 -43.4935 95.4002 -43.1523 95.9955C-41.4293 98.972 -36.1579 108.072 -34.4348 111.048C-34.0936 111.643 -33.4623 112 -32.7799 112H-2.65265C-2.65265 112 -20.787 80.688 -26.4167 70.9422C-26.7579 70.3469 -27.389 69.9897 -28.0714 69.9897C-28.7538 69.9897 -29.3852 70.3469 -29.7264 70.9422C-33.1724 76.8951 -40.9857 90.3998 -43.1352 94.0906H-43.1523Z" fill="#4CAFF6"/>
</g>
</svg>
