<svg width="63" height="112" viewBox="0 0 63 112" fill="none" xmlns="http://www.w3.org/2000/svg">
<g opacity="0.1">
<path fill-rule="evenodd" clip-rule="evenodd" d="M0.255895 56.9441C-0.0852984 56.3488 -0.0852984 55.6344 0.255895 55.0391C4.16256 48.2868 27.6707 7.70479 31.5773 0.952465C31.9185 0.357172 32.5499 0 33.2323 0H63.3595C63.3595 0 25.4189 65.5163 16.9744 80.0925C16.6332 80.6878 16.002 81.0449 15.3196 81.0449C14.6372 81.0449 14.0059 80.6878 13.6647 80.0925C10.2186 74.1395 2.40541 60.6349 0.255895 56.9441ZM103.842 17.8928C104.184 17.2975 104.184 16.5832 103.842 15.9879C102.119 13.0114 96.8477 3.91192 95.1246 0.952465C94.7834 0.357172 94.1523 0 93.4699 0H63.3425C63.3425 0 81.477 31.3124 87.1067 41.0582C87.4479 41.6535 88.079 42.0107 88.7614 42.0107C89.4438 42.0107 90.075 41.6535 90.4162 41.0582C93.8622 35.1053 101.676 21.6006 103.825 17.9098L103.842 17.8928Z" fill="#FF559C"/>
<path fill-rule="evenodd" clip-rule="evenodd" d="M126.434 55.0394C126.775 55.6346 126.775 56.349 126.434 56.9443C122.528 63.6966 99.0191 104.279 95.1125 111.031C94.7713 111.626 94.1401 111.983 93.4577 111.983H63.3303C63.3303 111.983 101.271 46.4671 109.716 31.8909C110.057 31.2956 110.688 30.9385 111.37 30.9385C112.053 30.9385 112.684 31.2956 113.025 31.8909C116.471 37.8439 124.285 51.3485 126.434 55.0394ZM22.8477 94.0906C22.5065 94.6859 22.5065 95.4002 22.8477 95.9955C24.5707 98.972 29.8421 108.072 31.5652 111.048C31.9064 111.643 32.5377 112 33.2201 112H63.3474C63.3474 112 45.213 80.688 39.5833 70.9422C39.2421 70.3469 38.611 69.9897 37.9286 69.9897C37.2462 69.9897 36.6148 70.3469 36.2736 70.9422C32.8276 76.8951 25.0143 90.3998 22.8648 94.0906H22.8477Z" fill="#FF559C"/>
</g>
</svg>
